<svg width="303" height="155" viewBox="0 0 303 155" fill="none" xmlns="http://www.w3.org/2000/svg">
<path d="M12.12 0H15.15V9.07378H12.12V0ZM18.18 0H21.21V9.07378H18.18V0ZM272.7 0H275.73V21.1721H272.7V0ZM278.76 0H293.91V3.0246H278.76V0ZM296.94 0H299.97V3.0246H296.94V0ZM3.03 3.0246H12.12V6.04918H3.03V3.0246ZM15.15 3.0246H18.18V6.04918H15.15V3.0246ZM21.21 3.0246H42.42V6.04918H21.21V3.0246ZM209.07 3.0246H218.16V6.04918H209.07V3.0246ZM257.55 3.0246H272.7V6.04918H257.55V3.0246ZM275.73 3.0246H284.82V6.04918H275.73V3.0246ZM287.85 3.0246H296.94V6.04918H287.85V3.0246ZM299.97 3.0246H303V6.04918H299.97V3.0246ZM0 6.04918H3.03V15.123H0V6.04918ZM6.06 6.04918H12.12V12.0984H6.06V6.04918ZM21.21 6.04918H39.39V12.0984H21.21V6.04918ZM42.42 6.04918H45.45V9.07378H42.42V6.04918ZM48.48 6.04918H51.51V9.07378H48.48V6.04918ZM54.54 6.04918H57.57V12.0984H54.54V6.04918ZM90.9 6.04918H99.99V9.07378H90.9V6.04918ZM203.01 6.04918H209.07V9.07378H203.01V6.04918ZM248.46 6.04918H251.49V12.0984H248.46V6.04918ZM254.52 6.04918H257.55V9.07378H254.52V6.04918ZM260.58 6.04918H263.61V12.0984H260.58V6.04918ZM266.64 6.04918H269.67V21.1721H266.64V6.04918ZM278.76 6.04918H287.85V9.07378H278.76V6.04918ZM290.88 6.04918H299.97V12.0984H290.88V6.04918ZM3.03 9.07378H6.06V12.0984H3.03V9.07378ZM39.39 9.07378H42.42V12.0984H39.39V9.07378ZM45.45 9.07378H48.48V12.0984H45.45V9.07378ZM51.51 9.07378H54.54V12.0984H51.51V9.07378ZM57.57 9.07378H66.66V12.0984H57.57V9.07378ZM106.05 9.07378H109.08V12.0984H106.05V9.07378ZM196.95 9.07378H199.98V12.0984H196.95V9.07378ZM233.31 9.07378H242.4V12.0984H233.31V9.07378ZM245.43 9.07378H248.46V12.0984H245.43V9.07378ZM251.49 9.07378H254.52V12.0984H251.49V9.07378ZM257.55 9.07378H260.58V12.0984H257.55V9.07378ZM263.61 9.07378H266.64V12.0984H263.61V9.07378ZM269.67 9.07378H272.7V18.1476H269.67V9.07378ZM275.73 9.07378H284.82V18.1476H275.73V9.07378ZM299.97 9.07378H303V12.0984H299.97V9.07378ZM6.06 12.0984H9.09V30.2459H6.06V12.0984ZM24.24 12.0984H27.27V39.3197H24.24V12.0984ZM30.3 12.0984H39.39V18.1476H30.3V12.0984ZM42.42 12.0984H45.45V15.123H42.42V12.0984ZM48.48 12.0984H51.51V15.123H48.48V12.0984ZM60.6 12.0984H63.63V15.123H60.6V12.0984ZM66.66 12.0984H75.75V24.1967H66.66V12.0984ZM224.22 12.0984H233.31V24.1967H224.22V12.0984ZM236.34 12.0984H239.37V15.123H236.34V12.0984ZM242.4 12.0984H245.43V15.123H242.4V12.0984ZM290.88 12.0984H293.91V42.3443H290.88V12.0984ZM296.94 12.0984H299.97V15.123H296.94V12.0984ZM3.03 15.123H6.06V18.1476H3.03V15.123ZM9.09 15.123H24.24V18.1476H9.09V15.123ZM27.27 15.123H30.3V18.1476H27.27V15.123ZM39.39 15.123H42.42V18.1476H39.39V15.123ZM45.45 15.123H48.48V18.1476H45.45V15.123ZM51.51 15.123H54.54V18.1476H51.51V15.123ZM57.57 15.123H60.6V18.1476H57.57V15.123ZM63.63 15.123H66.66V18.1476H63.63V15.123ZM75.75 15.123H84.84V18.1476H75.75V15.123ZM118.17 15.123H121.2V18.1476H118.17V15.123ZM215.13 15.123H224.22V18.1476H215.13V15.123ZM233.31 15.123H236.34V24.1967H233.31V15.123ZM239.37 15.123H242.4V18.1476H239.37V15.123ZM245.43 15.123H248.46V18.1476H245.43V15.123ZM251.49 15.123H260.58V18.1476H251.49V15.123ZM263.61 15.123H266.64V18.1476H263.61V15.123ZM287.85 15.123H290.88V18.1476H287.85V15.123ZM293.91 15.123H296.94V18.1476H293.91V15.123ZM299.97 15.123H303V18.1476H299.97V15.123ZM0 18.1476H3.03V24.1967H0V18.1476ZM12.12 18.1476H15.15V45.3689H12.12V18.1476ZM18.18 18.1476H21.21V54.4426H18.18V18.1476ZM30.3 18.1476H33.33V57.4672H30.3V18.1476ZM36.36 18.1476H39.39V33.2705H36.36V18.1476ZM48.48 18.1476H51.51V21.1721H48.48V18.1476ZM54.54 18.1476H57.57V21.1721H54.54V18.1476ZM75.75 18.1476H81.81V24.1967H75.75V18.1476ZM84.84 18.1476H87.87V27.2213H84.84V18.1476ZM212.1 18.1476H215.13V33.2705H212.1V18.1476ZM218.16 18.1476H221.19V27.2213H218.16V18.1476ZM236.34 18.1476H239.37V27.2213H236.34V18.1476ZM260.58 18.1476H263.61V21.1721H260.58V18.1476ZM278.76 18.1476H281.79V21.1721H278.76V18.1476ZM284.82 18.1476H287.85V48.3934H284.82V18.1476ZM296.94 18.1476H299.97V21.1721H296.94V18.1476ZM3.03 21.1721H6.06V24.1967H3.03V21.1721ZM9.09 21.1721H12.12V24.1967H9.09V21.1721ZM15.15 21.1721H18.18V24.1967H15.15V21.1721ZM21.21 21.1721H24.24V24.1967H21.21V21.1721ZM27.27 21.1721H30.3V24.1967H27.27V21.1721ZM33.33 21.1721H36.36V24.1967H33.33V21.1721ZM39.39 21.1721H48.48V24.1967H39.39V21.1721ZM51.51 21.1721H54.54V24.1967H51.51V21.1721ZM57.57 21.1721H60.6V24.1967H57.57V21.1721ZM63.63 21.1721H66.66V30.2459H63.63V21.1721ZM81.81 21.1721H84.84V24.1967H81.81V21.1721ZM87.87 21.1721H96.96V24.1967H87.87V21.1721ZM130.29 21.1721H133.32V24.1967H130.29V21.1721ZM172.71 21.1721H175.74V24.1967H172.71V21.1721ZM203.01 21.1721H212.1V24.1967H203.01V21.1721ZM215.13 21.1721H218.16V24.1967H215.13V21.1721ZM221.19 21.1721H224.22V24.1967H221.19V21.1721ZM239.37 21.1721H242.4V24.1967H239.37V21.1721ZM245.43 21.1721H254.52V24.1967H245.43V21.1721ZM257.55 21.1721H260.58V24.1967H257.55V21.1721ZM263.61 21.1721H266.64V24.1967H263.61V21.1721ZM269.67 21.1721H272.7V24.1967H269.67V21.1721ZM275.73 21.1721H278.76V24.1967H275.73V21.1721ZM281.79 21.1721H284.82V24.1967H281.79V21.1721ZM287.85 21.1721H290.88V24.1967H287.85V21.1721ZM293.91 21.1721H296.94V24.1967H293.91V21.1721ZM299.97 21.1721H303V24.1967H299.97V21.1721ZM42.42 24.1967H45.45V39.3197H42.42V24.1967ZM48.48 24.1967H51.51V39.3197H48.48V24.1967ZM54.54 24.1967H57.57V36.2951H54.54V24.1967ZM60.6 24.1967H63.63V39.3197H60.6V24.1967ZM66.66 24.1967H69.69V39.3197H66.66V24.1967ZM72.72 24.1967H75.75V27.2213H72.72V24.1967ZM78.78 24.1967H81.81V27.2213H78.78V24.1967ZM87.87 24.1967H93.93V30.2459H87.87V24.1967ZM96.96 24.1967H99.99V27.2213H96.96V24.1967ZM199.98 24.1967H203.01V27.2213H199.98V24.1967ZM209.07 24.1967H212.1V30.2459H209.07V24.1967ZM224.22 24.1967H227.25V27.2213H224.22V24.1967ZM230.28 24.1967H233.31V27.2213H230.28V24.1967ZM242.4 24.1967H245.43V39.3197H242.4V24.1967ZM248.46 24.1967H251.49V39.3197H248.46V24.1967ZM254.52 24.1967H257.55V39.3197H254.52V24.1967ZM260.58 24.1967H263.61V39.3197H260.58V24.1967ZM266.64 24.1967H269.67V33.2705H266.64V24.1967ZM272.7 24.1967H275.73V57.4672H272.7V24.1967ZM278.76 24.1967H281.79V57.4672H278.76V24.1967ZM296.94 24.1967H299.97V30.2459H296.94V24.1967ZM3.03 27.2213H6.06V30.2459H3.03V27.2213ZM9.09 27.2213H12.12V30.2459H9.09V27.2213ZM15.15 27.2213H18.18V30.2459H15.15V27.2213ZM21.21 27.2213H24.24V30.2459H21.21V27.2213ZM27.27 27.2213H30.3V30.2459H27.27V27.2213ZM33.33 27.2213H36.36V30.2459H33.33V27.2213ZM39.39 27.2213H42.42V30.2459H39.39V27.2213ZM45.45 27.2213H48.48V30.2459H45.45V27.2213ZM51.51 27.2213H54.54V30.2459H51.51V27.2213ZM57.57 27.2213H60.6V30.2459H57.57V27.2213ZM69.69 27.2213H72.72V30.2459H69.69V27.2213ZM75.75 27.2213H78.78V30.2459H75.75V27.2213ZM81.81 27.2213H84.84V30.2459H81.81V27.2213ZM93.93 27.2213H96.96V30.2459H93.93V27.2213ZM99.99 27.2213H103.02V30.2459H99.99V27.2213ZM106.05 27.2213H109.08V30.2459H106.05V27.2213ZM190.89 27.2213H193.92V30.2459H190.89V27.2213ZM196.95 27.2213H199.98V30.2459H196.95V27.2213ZM203.01 27.2213H206.04V30.2459H203.01V27.2213ZM215.13 27.2213H218.16V30.2459H215.13V27.2213ZM221.19 27.2213H224.22V30.2459H221.19V27.2213ZM227.25 27.2213H230.28V30.2459H227.25V27.2213ZM233.31 27.2213H236.34V30.2459H233.31V27.2213ZM239.37 27.2213H242.4V30.2459H239.37V27.2213ZM245.43 27.2213H248.46V30.2459H245.43V27.2213ZM251.49 27.2213H254.52V30.2459H251.49V27.2213ZM257.55 27.2213H260.58V30.2459H257.55V27.2213ZM263.61 27.2213H266.64V30.2459H263.61V27.2213ZM269.67 27.2213H272.7V30.2459H269.67V27.2213ZM275.73 27.2213H278.76V30.2459H275.73V27.2213ZM281.79 27.2213H284.82V30.2459H281.79V27.2213ZM287.85 27.2213H290.88V30.2459H287.85V27.2213ZM293.91 27.2213H296.94V30.2459H293.91V27.2213ZM72.72 30.2459H75.75V33.2705H72.72V30.2459ZM78.78 30.2459H81.81V33.2705H78.78V30.2459ZM84.84 30.2459H87.87V33.2705H84.84V30.2459ZM90.9 30.2459H93.93V36.2951H90.9V30.2459ZM103.02 30.2459H106.05V33.2705H103.02V30.2459ZM187.86 30.2459H190.89V33.2705H187.86V30.2459ZM199.98 30.2459H203.01V33.2705H199.98V30.2459ZM224.22 30.2459H227.25V33.2705H224.22V30.2459ZM230.28 30.2459H233.31V33.2705H230.28V30.2459ZM236.34 30.2459H239.37V36.2951H236.34V30.2459ZM6.06 33.2705H12.12V36.2951H6.06V33.2705ZM15.15 33.2705H18.18V36.2951H15.15V33.2705ZM21.21 33.2705H24.24V36.2951H21.21V33.2705ZM27.27 33.2705H30.3V36.2951H27.27V33.2705ZM33.33 33.2705H36.36V36.2951H33.33V33.2705ZM39.39 33.2705H42.42V36.2951H39.39V33.2705ZM45.45 33.2705H48.48V36.2951H45.45V33.2705ZM51.51 33.2705H54.54V36.2951H51.51V33.2705ZM57.57 33.2705H60.6V36.2951H57.57V33.2705ZM63.63 33.2705H66.66V36.2951H63.63V33.2705ZM69.69 33.2705H72.72V36.2951H69.69V33.2705ZM75.75 33.2705H78.78V36.2951H75.75V33.2705ZM81.81 33.2705H84.84V36.2951H81.81V33.2705ZM87.87 33.2705H90.9V36.2951H87.87V33.2705ZM93.93 33.2705H96.96V36.2951H93.93V33.2705ZM99.99 33.2705H103.02V36.2951H99.99V33.2705ZM106.05 33.2705H109.08V36.2951H106.05V33.2705ZM112.11 33.2705H115.14V36.2951H112.11V33.2705ZM118.17 33.2705H121.2V36.2951H118.17V33.2705ZM181.8 33.2705H187.86V36.2951H181.8V33.2705ZM190.89 33.2705H199.98V36.2951H190.89V33.2705ZM203.01 33.2705H206.04V36.2951H203.01V33.2705ZM209.07 33.2705H212.1V36.2951H209.07V33.2705ZM215.13 33.2705H218.16V36.2951H215.13V33.2705ZM221.19 33.2705H224.22V36.2951H221.19V33.2705ZM227.25 33.2705H230.28V36.2951H227.25V33.2705ZM233.31 33.2705H236.34V36.2951H233.31V33.2705ZM239.37 33.2705H242.4V42.3443H239.37V33.2705ZM245.43 33.2705H248.46V36.2951H245.43V33.2705ZM251.49 33.2705H254.52V36.2951H251.49V33.2705ZM257.55 33.2705H260.58V36.2951H257.55V33.2705ZM263.61 33.2705H266.64V36.2951H263.61V33.2705ZM269.67 33.2705H272.7V36.2951H269.67V33.2705ZM275.73 33.2705H278.76V36.2951H275.73V33.2705ZM281.79 33.2705H284.82V36.2951H281.79V33.2705ZM287.85 33.2705H290.88V36.2951H287.85V33.2705ZM293.91 33.2705H296.94V36.2951H293.91V33.2705ZM36.36 36.2951H39.39V45.3689H36.36V36.2951ZM72.72 36.2951H75.75V39.3197H72.72V36.2951ZM78.78 36.2951H81.81V39.3197H78.78V36.2951ZM109.08 36.2951H112.11V39.3197H109.08V36.2951ZM115.14 36.2951H118.17V39.3197H115.14V36.2951ZM121.2 36.2951H124.23V39.3197H121.2V36.2951ZM151.5 36.2951H154.53V87.7131H151.5V36.2951ZM181.8 36.2951H184.83V45.3689H181.8V36.2951ZM187.86 36.2951H190.89V39.3197H187.86V36.2951ZM193.92 36.2951H196.95V39.3197H193.92V36.2951ZM199.98 36.2951H203.01V39.3197H199.98V36.2951ZM218.16 36.2951H221.19V39.3197H218.16V36.2951ZM224.22 36.2951H227.25V39.3197H224.22V36.2951ZM266.64 36.2951H269.67V39.3197H266.64V36.2951ZM9.09 39.3197H12.12V42.3443H9.09V39.3197ZM15.15 39.3197H18.18V42.3443H15.15V39.3197ZM21.21 39.3197H24.24V42.3443H21.21V39.3197ZM27.27 39.3197H30.3V42.3443H27.27V39.3197ZM33.33 39.3197H36.36V42.3443H33.33V39.3197ZM39.39 39.3197H42.42V42.3443H39.39V39.3197ZM45.45 39.3197H48.48V42.3443H45.45V39.3197ZM51.51 39.3197H54.54V42.3443H51.51V39.3197ZM57.57 39.3197H60.6V42.3443H57.57V39.3197ZM63.63 39.3197H66.66V42.3443H63.63V39.3197ZM69.69 39.3197H72.72V48.3934H69.69V39.3197ZM75.75 39.3197H78.78V42.3443H75.75V39.3197ZM81.81 39.3197H84.84V42.3443H81.81V39.3197ZM87.87 39.3197H90.9V42.3443H87.87V39.3197ZM93.93 39.3197H96.96V42.3443H93.93V39.3197ZM99.99 39.3197H103.02V42.3443H99.99V39.3197ZM106.05 39.3197H109.08V42.3443H106.05V39.3197ZM112.11 39.3197H115.14V42.3443H112.11V39.3197ZM118.17 39.3197H121.2V42.3443H118.17V39.3197ZM124.23 39.3197H127.26V42.3443H124.23V39.3197ZM142.41 39.3197H151.5V42.3443H142.41V39.3197ZM154.53 39.3197H157.56V42.3443H154.53V39.3197ZM172.71 39.3197H181.8V42.3443H172.71V39.3197ZM184.83 39.3197H187.86V42.3443H184.83V39.3197ZM190.89 39.3197H193.92V42.3443H190.89V39.3197ZM196.95 39.3197H199.98V42.3443H196.95V39.3197ZM203.01 39.3197H206.04V42.3443H203.01V39.3197ZM209.07 39.3197H212.1V42.3443H209.07V39.3197ZM215.13 39.3197H218.16V42.3443H215.13V39.3197ZM221.19 39.3197H224.22V42.3443H221.19V39.3197ZM227.25 39.3197H230.28V42.3443H227.25V39.3197ZM233.31 39.3197H239.37V42.3443H233.31V39.3197ZM245.43 39.3197H248.46V42.3443H245.43V39.3197ZM251.49 39.3197H254.52V42.3443H251.49V39.3197ZM257.55 39.3197H260.58V42.3443H257.55V39.3197ZM263.61 39.3197H266.64V42.3443H263.61V39.3197ZM269.67 39.3197H272.7V42.3443H269.67V39.3197ZM275.73 39.3197H278.76V42.3443H275.73V39.3197ZM281.79 39.3197H284.82V42.3443H281.79V39.3197ZM287.85 39.3197H290.88V42.3443H287.85V39.3197ZM24.24 42.3443H27.27V60.4918H24.24V42.3443ZM42.42 42.3443H45.45V45.3689H42.42V42.3443ZM48.48 42.3443H51.51V45.3689H48.48V42.3443ZM54.54 42.3443H57.57V45.3689H54.54V42.3443ZM60.6 42.3443H63.63V45.3689H60.6V42.3443ZM66.66 42.3443H69.69V45.3689H66.66V42.3443ZM72.72 42.3443H75.75V51.418H72.72V42.3443ZM78.78 42.3443H81.81V45.3689H78.78V42.3443ZM84.84 42.3443H87.87V45.3689H84.84V42.3443ZM90.9 42.3443H93.93V45.3689H90.9V42.3443ZM96.96 42.3443H99.99V48.3934H96.96V42.3443ZM109.08 42.3443H112.11V45.3689H109.08V42.3443ZM115.14 42.3443H118.17V45.3689H115.14V42.3443ZM121.2 42.3443H124.23V45.3689H121.2V42.3443ZM127.26 42.3443H130.29V75.6148H127.26V42.3443ZM145.44 42.3443H151.5V81.6639H145.44V42.3443ZM157.56 42.3443H160.59V45.3689H157.56V42.3443ZM169.68 42.3443H172.71V75.6148H169.68V42.3443ZM175.74 42.3443H181.8V48.3934H175.74V42.3443ZM206.04 42.3443H209.07V45.3689H206.04V42.3443ZM230.28 42.3443H233.31V45.3689H230.28V42.3443ZM254.52 42.3443H257.55V45.3689H254.52V42.3443ZM260.58 42.3443H263.61V45.3689H260.58V42.3443ZM266.64 42.3443H269.67V45.3689H266.64V42.3443ZM15.15 45.3689H18.18V48.3934H15.15V45.3689ZM21.21 45.3689H24.24V48.3934H21.21V45.3689ZM27.27 45.3689H30.3V48.3934H27.27V45.3689ZM33.33 45.3689H36.36V48.3934H33.33V45.3689ZM39.39 45.3689H42.42V48.3934H39.39V45.3689ZM45.45 45.3689H48.48V48.3934H45.45V45.3689ZM51.51 45.3689H54.54V48.3934H51.51V45.3689ZM57.57 45.3689H60.6V48.3934H57.57V45.3689ZM63.63 45.3689H66.66V48.3934H63.63V45.3689ZM75.75 45.3689H78.78V54.4426H75.75V45.3689ZM81.81 45.3689H84.84V48.3934H81.81V45.3689ZM87.87 45.3689H90.9V48.3934H87.87V45.3689ZM93.93 45.3689H96.96V48.3934H93.93V45.3689ZM99.99 45.3689H103.02V48.3934H99.99V45.3689ZM106.05 45.3689H109.08V48.3934H106.05V45.3689ZM112.11 45.3689H115.14V48.3934H112.11V45.3689ZM118.17 45.3689H121.2V48.3934H118.17V45.3689ZM124.23 45.3689H127.26V48.3934H124.23V45.3689ZM130.29 45.3689H136.35V54.4426H130.29V45.3689ZM154.53 45.3689H157.56V78.6394H154.53V45.3689ZM166.65 45.3689H169.68V48.3934H166.65V45.3689ZM172.71 45.3689H175.74V48.3934H172.71V45.3689ZM184.83 45.3689H187.86V48.3934H184.83V45.3689ZM190.89 45.3689H193.92V48.3934H190.89V45.3689ZM196.95 45.3689H206.04V48.3934H196.95V45.3689ZM209.07 45.3689H212.1V48.3934H209.07V45.3689ZM215.13 45.3689H218.16V48.3934H215.13V45.3689ZM221.19 45.3689H224.22V48.3934H221.19V45.3689ZM227.25 45.3689H230.28V48.3934H227.25V45.3689ZM233.31 45.3689H236.34V48.3934H233.31V45.3689ZM239.37 45.3689H242.4V48.3934H239.37V45.3689ZM245.43 45.3689H248.46V48.3934H245.43V45.3689ZM251.49 45.3689H254.52V48.3934H251.49V45.3689ZM257.55 45.3689H260.58V48.3934H257.55V45.3689ZM263.61 45.3689H266.64V48.3934H263.61V45.3689ZM269.67 45.3689H272.7V48.3934H269.67V45.3689ZM275.73 45.3689H278.76V48.3934H275.73V45.3689ZM281.79 45.3689H284.82V48.3934H281.79V45.3689ZM36.36 48.3934H39.39V51.418H36.36V48.3934ZM42.42 48.3934H45.45V51.418H42.42V48.3934ZM78.78 48.3934H81.81V51.418H78.78V48.3934ZM84.84 48.3934H87.87V51.418H84.84V48.3934ZM90.9 48.3934H93.93V51.418H90.9V48.3934ZM109.08 48.3934H112.11V51.418H109.08V48.3934ZM115.14 48.3934H118.17V51.418H115.14V48.3934ZM121.2 48.3934H124.23V75.6148H121.2V48.3934ZM136.35 48.3934H139.38V72.5902H136.35V48.3934ZM157.56 48.3934H160.59V81.6639H157.56V48.3934ZM163.62 48.3934H166.65V75.6148H163.62V48.3934ZM175.74 48.3934H178.77V75.6148H175.74V48.3934ZM181.8 48.3934H184.83V51.418H181.8V48.3934ZM187.86 48.3934H190.89V51.418H187.86V48.3934ZM224.22 48.3934H227.25V51.418H224.22V48.3934ZM230.28 48.3934H233.31V51.418H230.28V48.3934ZM236.34 48.3934H239.37V51.418H236.34V48.3934ZM242.4 48.3934H245.43V51.418H242.4V48.3934ZM266.64 48.3934H269.67V51.418H266.64V48.3934ZM21.21 51.418H24.24V54.4426H21.21V51.418ZM27.27 51.418H30.3V54.4426H27.27V51.418ZM33.33 51.418H36.36V54.4426H33.33V51.418ZM39.39 51.418H42.42V54.4426H39.39V51.418ZM45.45 51.418H48.48V54.4426H45.45V51.418ZM51.51 51.418H66.66V54.4426H51.51V51.418ZM69.69 51.418H72.72V54.4426H69.69V51.418ZM81.81 51.418H84.84V54.4426H81.81V51.418ZM87.87 51.418H90.9V54.4426H87.87V51.418ZM93.93 51.418H96.96V54.4426H93.93V51.418ZM99.99 51.418H103.02V54.4426H99.99V51.418ZM106.05 51.418H109.08V54.4426H106.05V51.418ZM112.11 51.418H115.14V54.4426H112.11V51.418ZM118.17 51.418H121.2V54.4426H118.17V51.418ZM124.23 51.418H127.26V54.4426H124.23V51.418ZM139.38 51.418H145.44V54.4426H139.38V51.418ZM160.59 51.418H163.62V72.5902H160.59V51.418ZM166.65 51.418H169.68V72.5902H166.65V51.418ZM172.71 51.418H175.74V54.4426H172.71V51.418ZM178.77 51.418H181.8V54.4426H178.77V51.418ZM184.83 51.418H187.86V54.4426H184.83V51.418ZM190.89 51.418H193.92V54.4426H190.89V51.418ZM196.95 51.418H199.98V54.4426H196.95V51.418ZM203.01 51.418H206.04V54.4426H203.01V51.418ZM209.07 51.418H212.1V54.4426H209.07V51.418ZM215.13 51.418H218.16V54.4426H215.13V51.418ZM221.19 51.418H224.22V54.4426H221.19V51.418ZM227.25 51.418H230.28V54.4426H227.25V51.418ZM233.31 51.418H236.34V54.4426H233.31V51.418ZM239.37 51.418H242.4V54.4426H239.37V51.418ZM245.43 51.418H248.46V54.4426H245.43V51.418ZM251.49 51.418H260.58V54.4426H251.49V51.418ZM263.61 51.418H266.64V54.4426H263.61V51.418ZM269.67 51.418H272.7V54.4426H269.67V51.418ZM275.73 51.418H278.76V54.4426H275.73V51.418ZM281.79 51.418H284.82V54.4426H281.79V51.418ZM36.36 54.4426H39.39V72.5902H36.36V54.4426ZM42.42 54.4426H45.45V57.4672H42.42V54.4426ZM72.72 54.4426H75.75V57.4672H72.72V54.4426ZM84.84 54.4426H87.87V69.5656H84.84V54.4426ZM109.08 54.4426H112.11V57.4672H109.08V54.4426ZM115.14 54.4426H118.17V57.4672H115.14V54.4426ZM133.32 54.4426H136.35V75.6148H133.32V54.4426ZM139.38 54.4426H142.41V75.6148H139.38V54.4426ZM181.8 54.4426H184.83V75.6148H181.8V54.4426ZM187.86 54.4426H190.89V57.4672H187.86V54.4426ZM193.92 54.4426H196.95V57.4672H193.92V54.4426ZM199.98 54.4426H203.01V57.4672H199.98V54.4426ZM206.04 54.4426H209.07V57.4672H206.04V54.4426ZM212.1 54.4426H215.13V69.5656H212.1V54.4426ZM260.58 54.4426H263.61V57.4672H260.58V54.4426ZM266.64 54.4426H269.67V69.5656H266.64V54.4426ZM27.27 57.4672H30.3V60.4918H27.27V57.4672ZM33.33 57.4672H36.36V60.4918H33.33V57.4672ZM39.39 57.4672H42.42V60.4918H39.39V57.4672ZM45.45 57.4672H48.48V60.4918H45.45V57.4672ZM51.51 57.4672H54.54V60.4918H51.51V57.4672ZM57.57 57.4672H60.6V60.4918H57.57V57.4672ZM75.75 57.4672H78.78V60.4918H75.75V57.4672ZM81.81 57.4672H84.84V60.4918H81.81V57.4672ZM87.87 57.4672H96.96V60.4918H87.87V57.4672ZM99.99 57.4672H103.02V60.4918H99.99V57.4672ZM106.05 57.4672H109.08V60.4918H106.05V57.4672ZM112.11 57.4672H115.14V60.4918H112.11V57.4672ZM118.17 57.4672H121.2V60.4918H118.17V57.4672ZM124.23 57.4672H127.26V60.4918H124.23V57.4672ZM130.29 57.4672H133.32V66.541H130.29V57.4672ZM142.41 57.4672H145.44V60.4918H142.41V57.4672ZM172.71 57.4672H175.74V60.4918H172.71V57.4672ZM178.77 57.4672H181.8V60.4918H178.77V57.4672ZM184.83 57.4672H187.86V60.4918H184.83V57.4672ZM190.89 57.4672H193.92V60.4918H190.89V57.4672ZM196.95 57.4672H199.98V60.4918H196.95V57.4672ZM203.01 57.4672H206.04V66.541H203.01V57.4672ZM209.07 57.4672H212.1V60.4918H209.07V57.4672ZM215.13 57.4672H218.16V60.4918H215.13V57.4672ZM221.19 57.4672H224.22V60.4918H221.19V57.4672ZM227.25 57.4672H236.34V60.4918H227.25V57.4672ZM239.37 57.4672H242.4V60.4918H239.37V57.4672ZM245.43 57.4672H248.46V60.4918H245.43V57.4672ZM257.55 57.4672H260.58V60.4918H257.55V57.4672ZM263.61 57.4672H266.64V60.4918H263.61V57.4672ZM269.67 57.4672H272.7V60.4918H269.67V57.4672ZM275.73 57.4672H278.76V60.4918H275.73V57.4672ZM30.3 60.4918H33.33V66.541H30.3V60.4918ZM60.6 60.4918H63.63V81.6639H60.6V60.4918ZM72.72 60.4918H75.75V63.5164H72.72V60.4918ZM90.9 60.4918H99.99V66.541H90.9V60.4918ZM103.02 60.4918H106.05V69.5656H103.02V60.4918ZM109.08 60.4918H112.11V69.5656H109.08V60.4918ZM115.14 60.4918H118.17V75.6148H115.14V60.4918ZM187.86 60.4918H190.89V69.5656H187.86V60.4918ZM193.92 60.4918H196.95V75.6148H193.92V60.4918ZM206.04 60.4918H209.07V69.5656H206.04V60.4918ZM218.16 60.4918H221.19V75.6148H218.16V60.4918ZM230.28 60.4918H233.31V75.6148H230.28V60.4918ZM242.4 60.4918H245.43V81.6639H242.4V60.4918ZM248.46 60.4918H251.49V63.5164H248.46V60.4918ZM272.7 60.4918H275.73V63.5164H272.7V60.4918ZM33.33 63.5164H36.36V69.5656H33.33V63.5164ZM39.39 63.5164H42.42V66.541H39.39V63.5164ZM45.45 63.5164H48.48V66.541H45.45V63.5164ZM57.57 63.5164H60.6V66.541H57.57V63.5164ZM63.63 63.5164H72.72V66.541H63.63V63.5164ZM75.75 63.5164H78.78V66.541H75.75V63.5164ZM81.81 63.5164H84.84V66.541H81.81V63.5164ZM87.87 63.5164H90.9V66.541H87.87V63.5164ZM99.99 63.5164H103.02V66.541H99.99V63.5164ZM106.05 63.5164H109.08V66.541H106.05V63.5164ZM112.11 63.5164H115.14V72.5902H112.11V63.5164ZM118.17 63.5164H121.2V66.541H118.17V63.5164ZM124.23 63.5164H127.26V66.541H124.23V63.5164ZM142.41 63.5164H145.44V66.541H142.41V63.5164ZM172.71 63.5164H175.74V66.541H172.71V63.5164ZM178.77 63.5164H181.8V66.541H178.77V63.5164ZM184.83 63.5164H187.86V66.541H184.83V63.5164ZM190.89 63.5164H193.92V72.5902H190.89V63.5164ZM196.95 63.5164H203.01V66.541H196.95V63.5164ZM209.07 63.5164H212.1V66.541H209.07V63.5164ZM215.13 63.5164H218.16V69.5656H215.13V63.5164ZM221.19 63.5164H230.28V69.5656H221.19V63.5164ZM233.31 63.5164H242.4V66.541H233.31V63.5164ZM245.43 63.5164H248.46V66.541H245.43V63.5164ZM251.49 63.5164H254.52V66.541H251.49V63.5164ZM257.55 63.5164H266.64V66.541H257.55V63.5164ZM269.67 63.5164H272.7V66.541H269.67V63.5164ZM42.42 66.541H45.45V75.6148H42.42V66.541ZM54.54 66.541H57.57V75.6148H54.54V66.541ZM66.66 66.541H69.69V75.6148H66.66V66.541ZM72.72 66.541H75.75V69.5656H72.72V66.541ZM78.78 66.541H81.81V69.5656H78.78V66.541ZM90.9 66.541H93.93V75.6148H90.9V66.541ZM96.96 66.541H99.99V69.5656H96.96V66.541ZM199.98 66.541H203.01V69.5656H199.98V66.541ZM233.31 66.541H239.37V72.5902H233.31V66.541ZM248.46 66.541H251.49V78.6394H248.46V66.541ZM260.58 66.541H263.61V69.5656H260.58V66.541ZM39.39 69.5656H42.42V72.5902H39.39V69.5656ZM45.45 69.5656H54.54V72.5902H45.45V69.5656ZM57.57 69.5656H60.6V78.6394H57.57V69.5656ZM63.63 69.5656H66.66V72.5902H63.63V69.5656ZM69.69 69.5656H72.72V72.5902H69.69V69.5656ZM75.75 69.5656H78.78V72.5902H75.75V69.5656ZM81.81 69.5656H84.84V72.5902H81.81V69.5656ZM87.87 69.5656H90.9V72.5902H87.87V69.5656ZM93.93 69.5656H96.96V72.5902H93.93V69.5656ZM99.99 69.5656H103.02V72.5902H99.99V69.5656ZM106.05 69.5656H109.08V72.5902H106.05V69.5656ZM118.17 69.5656H121.2V72.5902H118.17V69.5656ZM124.23 69.5656H127.26V72.5902H124.23V69.5656ZM130.29 69.5656H133.32V72.5902H130.29V69.5656ZM142.41 69.5656H145.44V72.5902H142.41V69.5656ZM172.71 69.5656H175.74V72.5902H172.71V69.5656ZM178.77 69.5656H181.8V72.5902H178.77V69.5656ZM184.83 69.5656H187.86V72.5902H184.83V69.5656ZM196.95 69.5656H199.98V72.5902H196.95V69.5656ZM203.01 69.5656H206.04V72.5902H203.01V69.5656ZM209.07 69.5656H212.1V72.5902H209.07V69.5656ZM221.19 69.5656H224.22V72.5902H221.19V69.5656ZM227.25 69.5656H230.28V72.5902H227.25V69.5656ZM239.37 69.5656H242.4V72.5902H239.37V69.5656ZM245.43 69.5656H248.46V72.5902H245.43V69.5656ZM251.49 69.5656H254.52V72.5902H251.49V69.5656ZM257.55 69.5656H260.58V72.5902H257.55V69.5656ZM263.61 69.5656H266.64V72.5902H263.61V69.5656ZM48.48 72.5902H51.51V78.6394H48.48V72.5902ZM72.72 72.5902H75.75V75.6148H72.72V72.5902ZM78.78 72.5902H81.81V75.6148H78.78V72.5902ZM84.84 72.5902H87.87V75.6148H84.84V72.5902ZM96.96 72.5902H99.99V75.6148H96.96V72.5902ZM103.02 72.5902H106.05V75.6148H103.02V72.5902ZM109.08 72.5902H112.11V75.6148H109.08V72.5902ZM187.86 72.5902H190.89V75.6148H187.86V72.5902ZM199.98 72.5902H203.01V75.6148H199.98V72.5902ZM206.04 72.5902H209.07V75.6148H206.04V72.5902ZM212.1 72.5902H215.13V75.6148H212.1V72.5902ZM224.22 72.5902H227.25V75.6148H224.22V72.5902ZM236.34 72.5902H239.37V75.6148H236.34V72.5902ZM254.52 72.5902H257.55V78.6394H254.52V72.5902ZM260.58 72.5902H263.61V75.6148H260.58V72.5902ZM45.45 75.6148H48.48V78.6394H45.45V75.6148ZM51.51 75.6148H54.54V78.6394H51.51V75.6148ZM63.63 75.6148H66.66V78.6394H63.63V75.6148ZM69.69 75.6148H72.72V78.6394H69.69V75.6148ZM75.75 75.6148H78.78V78.6394H75.75V75.6148ZM81.81 75.6148H84.84V78.6394H81.81V75.6148ZM87.87 75.6148H90.9V78.6394H87.87V75.6148ZM93.93 75.6148H96.96V78.6394H93.93V75.6148ZM99.99 75.6148H103.02V78.6394H99.99V75.6148ZM106.05 75.6148H109.08V78.6394H106.05V75.6148ZM112.11 75.6148H115.14V78.6394H112.11V75.6148ZM118.17 75.6148H121.2V78.6394H118.17V75.6148ZM124.23 75.6148H127.26V78.6394H124.23V75.6148ZM130.29 75.6148H133.32V78.6394H130.29V75.6148ZM136.35 75.6148H139.38V78.6394H136.35V75.6148ZM142.41 75.6148H145.44V78.6394H142.41V75.6148ZM160.59 75.6148H163.62V78.6394H160.59V75.6148ZM166.65 75.6148H169.68V78.6394H166.65V75.6148ZM172.71 75.6148H175.74V78.6394H172.71V75.6148ZM178.77 75.6148H181.8V78.6394H178.77V75.6148ZM184.83 75.6148H187.86V78.6394H184.83V75.6148ZM190.89 75.6148H193.92V78.6394H190.89V75.6148ZM196.95 75.6148H199.98V78.6394H196.95V75.6148ZM203.01 75.6148H206.04V78.6394H203.01V75.6148ZM209.07 75.6148H212.1V78.6394H209.07V75.6148ZM215.13 75.6148H218.16V78.6394H215.13V75.6148ZM221.19 75.6148H224.22V78.6394H221.19V75.6148ZM227.25 75.6148H230.28V78.6394H227.25V75.6148ZM233.31 75.6148H236.34V78.6394H233.31V75.6148ZM239.37 75.6148H242.4V78.6394H239.37V75.6148ZM245.43 75.6148H248.46V78.6394H245.43V75.6148ZM251.49 75.6148H254.52V78.6394H251.49V75.6148ZM54.54 78.6394H57.57V81.6639H54.54V78.6394ZM66.66 78.6394H69.69V81.6639H66.66V78.6394ZM72.72 78.6394H75.75V81.6639H72.72V78.6394ZM78.78 78.6394H81.81V81.6639H78.78V78.6394ZM84.84 78.6394H87.87V81.6639H84.84V78.6394ZM90.9 78.6394H93.93V81.6639H90.9V78.6394ZM96.96 78.6394H99.99V81.6639H96.96V78.6394ZM103.02 78.6394H106.05V81.6639H103.02V78.6394ZM109.08 78.6394H112.11V81.6639H109.08V78.6394ZM115.14 78.6394H118.17V81.6639H115.14V78.6394ZM121.2 78.6394H124.23V81.6639H121.2V78.6394ZM127.26 78.6394H130.29V81.6639H127.26V78.6394ZM133.32 78.6394H136.35V81.6639H133.32V78.6394ZM163.62 78.6394H166.65V81.6639H163.62V78.6394ZM169.68 78.6394H172.71V81.6639H169.68V78.6394ZM175.74 78.6394H178.77V81.6639H175.74V78.6394ZM181.8 78.6394H184.83V81.6639H181.8V78.6394ZM187.86 78.6394H190.89V81.6639H187.86V78.6394ZM193.92 78.6394H196.95V81.6639H193.92V78.6394ZM199.98 78.6394H203.01V81.6639H199.98V78.6394ZM206.04 78.6394H209.07V81.6639H206.04V78.6394ZM212.1 78.6394H215.13V81.6639H212.1V78.6394ZM218.16 78.6394H221.19V81.6639H218.16V78.6394ZM224.22 78.6394H227.25V81.6639H224.22V78.6394ZM230.28 78.6394H233.31V81.6639H230.28V78.6394ZM236.34 78.6394H239.37V81.6639H236.34V78.6394ZM51.51 81.6639H54.54V90.7377H51.51V81.6639ZM57.57 81.6639H60.6V84.6885H57.57V81.6639ZM63.63 81.6639H66.66V84.6885H63.63V81.6639ZM69.69 81.6639H72.72V84.6885H69.69V81.6639ZM75.75 81.6639H78.78V84.6885H75.75V81.6639ZM81.81 81.6639H84.84V84.6885H81.81V81.6639ZM87.87 81.6639H90.9V84.6885H87.87V81.6639ZM93.93 81.6639H96.96V84.6885H93.93V81.6639ZM99.99 81.6639H103.02V84.6885H99.99V81.6639ZM106.05 81.6639H109.08V84.6885H106.05V81.6639ZM112.11 81.6639H115.14V84.6885H112.11V81.6639ZM118.17 81.6639H121.2V84.6885H118.17V81.6639ZM124.23 81.6639H127.26V84.6885H124.23V81.6639ZM130.29 81.6639H133.32V84.6885H130.29V81.6639ZM136.35 81.6639H139.38V84.6885H136.35V81.6639ZM142.41 81.6639H145.44V84.6885H142.41V81.6639ZM148.47 81.6639H151.5V84.6885H148.47V81.6639ZM154.53 81.6639H157.56V84.6885H154.53V81.6639ZM160.59 81.6639H163.62V84.6885H160.59V81.6639ZM166.65 81.6639H169.68V84.6885H166.65V81.6639ZM172.71 81.6639H175.74V84.6885H172.71V81.6639ZM178.77 81.6639H181.8V84.6885H178.77V81.6639ZM184.83 81.6639H187.86V84.6885H184.83V81.6639ZM190.89 81.6639H193.92V84.6885H190.89V81.6639ZM196.95 81.6639H199.98V84.6885H196.95V81.6639ZM203.01 81.6639H206.04V84.6885H203.01V81.6639ZM209.07 81.6639H212.1V84.6885H209.07V81.6639ZM215.13 81.6639H218.16V84.6885H215.13V81.6639ZM221.19 81.6639H224.22V84.6885H221.19V81.6639ZM227.25 81.6639H230.28V84.6885H227.25V81.6639ZM233.31 81.6639H236.34V84.6885H233.31V81.6639ZM239.37 81.6639H242.4V84.6885H239.37V81.6639ZM245.43 81.6639H248.46V84.6885H245.43V81.6639ZM48.48 84.6885H51.51V111.91H48.48V84.6885ZM54.54 84.6885H57.57V87.7131H54.54V84.6885ZM60.6 84.6885H63.63V87.7131H60.6V84.6885ZM66.66 84.6885H69.69V87.7131H66.66V84.6885ZM72.72 84.6885H75.75V87.7131H72.72V84.6885ZM78.78 84.6885H81.81V87.7131H78.78V84.6885ZM84.84 84.6885H87.87V87.7131H84.84V84.6885ZM90.9 84.6885H93.93V87.7131H90.9V84.6885ZM96.96 84.6885H99.99V87.7131H96.96V84.6885ZM103.02 84.6885H106.05V87.7131H103.02V84.6885ZM109.08 84.6885H112.11V87.7131H109.08V84.6885ZM115.14 84.6885H118.17V87.7131H115.14V84.6885ZM121.2 84.6885H124.23V87.7131H121.2V84.6885ZM127.26 84.6885H130.29V87.7131H127.26V84.6885ZM133.32 84.6885H136.35V87.7131H133.32V84.6885ZM145.44 84.6885H148.47V87.7131H145.44V84.6885ZM157.56 84.6885H160.59V142.156H157.56V84.6885ZM163.62 84.6885H166.65V87.7131H163.62V84.6885ZM169.68 84.6885H172.71V87.7131H169.68V84.6885ZM175.74 84.6885H178.77V87.7131H175.74V84.6885ZM181.8 84.6885H184.83V87.7131H181.8V84.6885ZM187.86 84.6885H190.89V87.7131H187.86V84.6885ZM193.92 84.6885H196.95V87.7131H193.92V84.6885ZM199.98 84.6885H203.01V87.7131H199.98V84.6885ZM206.04 84.6885H209.07V87.7131H206.04V84.6885ZM212.1 84.6885H215.13V87.7131H212.1V84.6885ZM218.16 84.6885H221.19V87.7131H218.16V84.6885ZM224.22 84.6885H227.25V87.7131H224.22V84.6885ZM230.28 84.6885H233.31V87.7131H230.28V84.6885ZM236.34 84.6885H239.37V87.7131H236.34V84.6885ZM242.4 84.6885H245.43V87.7131H242.4V84.6885ZM248.46 84.6885H254.52V87.7131H248.46V84.6885ZM45.45 87.7131H48.48V90.7377H45.45V87.7131ZM57.57 87.7131H60.6V90.7377H57.57V87.7131ZM63.63 87.7131H66.66V90.7377H63.63V87.7131ZM69.69 87.7131H72.72V90.7377H69.69V87.7131ZM75.75 87.7131H78.78V90.7377H75.75V87.7131ZM81.81 87.7131H84.84V90.7377H81.81V87.7131ZM87.87 87.7131H90.9V90.7377H87.87V87.7131ZM93.93 87.7131H96.96V90.7377H93.93V87.7131ZM99.99 87.7131H103.02V90.7377H99.99V87.7131ZM106.05 87.7131H109.08V90.7377H106.05V87.7131ZM112.11 87.7131H115.14V90.7377H112.11V87.7131ZM118.17 87.7131H121.2V90.7377H118.17V87.7131ZM124.23 87.7131H127.26V90.7377H124.23V87.7131ZM130.29 87.7131H133.32V90.7377H130.29V87.7131ZM136.35 87.7131H139.38V90.7377H136.35V87.7131ZM142.41 87.7131H145.44V90.7377H142.41V87.7131ZM148.47 87.7131H151.5V90.7377H148.47V87.7131ZM154.53 87.7131H157.56V90.7377H154.53V87.7131ZM166.65 87.7131H169.68V90.7377H166.65V87.7131ZM172.71 87.7131H175.74V90.7377H172.71V87.7131ZM178.77 87.7131H181.8V90.7377H178.77V87.7131ZM184.83 87.7131H187.86V90.7377H184.83V87.7131ZM190.89 87.7131H193.92V90.7377H190.89V87.7131ZM196.95 87.7131H199.98V90.7377H196.95V87.7131ZM203.01 87.7131H206.04V90.7377H203.01V87.7131ZM209.07 87.7131H212.1V90.7377H209.07V87.7131ZM215.13 87.7131H218.16V90.7377H215.13V87.7131ZM221.19 87.7131H224.22V90.7377H221.19V87.7131ZM227.25 87.7131H230.28V90.7377H227.25V87.7131ZM233.31 87.7131H236.34V90.7377H233.31V87.7131ZM239.37 87.7131H242.4V90.7377H239.37V87.7131ZM245.43 87.7131H248.46V90.7377H245.43V87.7131ZM251.49 87.7131H257.55V90.7377H251.49V87.7131ZM54.54 90.7377H57.57V99.8115H54.54V90.7377ZM60.6 90.7377H63.63V93.7623H60.6V90.7377ZM66.66 90.7377H69.69V93.7623H66.66V90.7377ZM72.72 90.7377H75.75V93.7623H72.72V90.7377ZM78.78 90.7377H81.81V93.7623H78.78V90.7377ZM84.84 90.7377H87.87V93.7623H84.84V90.7377ZM96.96 90.7377H99.99V93.7623H96.96V90.7377ZM103.02 90.7377H106.05V93.7623H103.02V90.7377ZM109.08 90.7377H112.11V93.7623H109.08V90.7377ZM115.14 90.7377H118.17V93.7623H115.14V90.7377ZM121.2 90.7377H124.23V93.7623H121.2V90.7377ZM127.26 90.7377H130.29V93.7623H127.26V90.7377ZM133.32 90.7377H136.35V93.7623H133.32V90.7377ZM145.44 90.7377H148.47V93.7623H145.44V90.7377ZM151.5 90.7377H154.53V93.7623H151.5V90.7377ZM169.68 90.7377H172.71V93.7623H169.68V90.7377ZM175.74 90.7377H178.77V93.7623H175.74V90.7377ZM181.8 90.7377H184.83V93.7623H181.8V90.7377ZM187.86 90.7377H190.89V93.7623H187.86V90.7377ZM193.92 90.7377H196.95V93.7623H193.92V90.7377ZM199.98 90.7377H203.01V93.7623H199.98V90.7377ZM206.04 90.7377H209.07V93.7623H206.04V90.7377ZM212.1 90.7377H215.13V93.7623H212.1V90.7377ZM218.16 90.7377H221.19V93.7623H218.16V90.7377ZM224.22 90.7377H227.25V93.7623H224.22V90.7377ZM230.28 90.7377H233.31V93.7623H230.28V90.7377ZM236.34 90.7377H239.37V93.7623H236.34V90.7377ZM242.4 90.7377H245.43V93.7623H242.4V90.7377ZM254.52 90.7377H257.55V105.861H254.52V90.7377ZM45.45 93.7623H48.48V96.7869H45.45V93.7623ZM51.51 93.7623H54.54V114.934H51.51V93.7623ZM57.57 93.7623H60.6V105.861H57.57V93.7623ZM63.63 93.7623H66.66V96.7869H63.63V93.7623ZM69.69 93.7623H72.72V96.7869H69.69V93.7623ZM75.75 93.7623H78.78V96.7869H75.75V93.7623ZM81.81 93.7623H84.84V96.7869H81.81V93.7623ZM87.87 93.7623H90.9V96.7869H87.87V93.7623ZM93.93 93.7623H96.96V96.7869H93.93V93.7623ZM99.99 93.7623H103.02V96.7869H99.99V93.7623ZM106.05 93.7623H109.08V96.7869H106.05V93.7623ZM112.11 93.7623H115.14V96.7869H112.11V93.7623ZM118.17 93.7623H121.2V96.7869H118.17V93.7623ZM124.23 93.7623H127.26V96.7869H124.23V93.7623ZM130.29 93.7623H133.32V96.7869H130.29V93.7623ZM136.35 93.7623H139.38V96.7869H136.35V93.7623ZM142.41 93.7623H145.44V96.7869H142.41V93.7623ZM148.47 93.7623H151.5V96.7869H148.47V93.7623ZM154.53 93.7623H157.56V96.7869H154.53V93.7623ZM160.59 93.7623H163.62V96.7869H160.59V93.7623ZM166.65 93.7623H169.68V96.7869H166.65V93.7623ZM172.71 93.7623H175.74V96.7869H172.71V93.7623ZM178.77 93.7623H181.8V96.7869H178.77V93.7623ZM184.83 93.7623H187.86V96.7869H184.83V93.7623ZM190.89 93.7623H193.92V96.7869H190.89V93.7623ZM196.95 93.7623H199.98V96.7869H196.95V93.7623ZM203.01 93.7623H206.04V96.7869H203.01V93.7623ZM209.07 93.7623H212.1V96.7869H209.07V93.7623ZM215.13 93.7623H218.16V96.7869H215.13V93.7623ZM221.19 93.7623H224.22V96.7869H221.19V93.7623ZM227.25 93.7623H230.28V96.7869H227.25V93.7623ZM233.31 93.7623H236.34V96.7869H233.31V93.7623ZM239.37 93.7623H242.4V96.7869H239.37V93.7623ZM245.43 93.7623H254.52V99.8115H245.43V93.7623ZM60.6 96.7869H63.63V124.008H60.6V96.7869ZM66.66 96.7869H69.69V99.8115H66.66V96.7869ZM72.72 96.7869H75.75V99.8115H72.72V96.7869ZM78.78 96.7869H81.81V99.8115H78.78V96.7869ZM84.84 96.7869H87.87V99.8115H84.84V96.7869ZM90.9 96.7869H93.93V99.8115H90.9V96.7869ZM96.96 96.7869H99.99V99.8115H96.96V96.7869ZM103.02 96.7869H106.05V99.8115H103.02V96.7869ZM109.08 96.7869H112.11V99.8115H109.08V96.7869ZM115.14 96.7869H118.17V99.8115H115.14V96.7869ZM121.2 96.7869H124.23V99.8115H121.2V96.7869ZM127.26 96.7869H130.29V99.8115H127.26V96.7869ZM133.32 96.7869H136.35V99.8115H133.32V96.7869ZM145.44 96.7869H148.47V99.8115H145.44V96.7869ZM151.5 96.7869H154.53V99.8115H151.5V96.7869ZM169.68 96.7869H172.71V99.8115H169.68V96.7869ZM175.74 96.7869H178.77V99.8115H175.74V96.7869ZM181.8 96.7869H184.83V99.8115H181.8V96.7869ZM187.86 96.7869H190.89V99.8115H187.86V96.7869ZM193.92 96.7869H196.95V99.8115H193.92V96.7869ZM199.98 96.7869H203.01V99.8115H199.98V96.7869ZM206.04 96.7869H209.07V99.8115H206.04V96.7869ZM212.1 96.7869H215.13V99.8115H212.1V96.7869ZM218.16 96.7869H221.19V99.8115H218.16V96.7869ZM224.22 96.7869H227.25V99.8115H224.22V96.7869ZM230.28 96.7869H233.31V99.8115H230.28V96.7869ZM236.34 96.7869H239.37V117.959H236.34V96.7869ZM242.4 96.7869H245.43V105.861H242.4V96.7869ZM45.45 99.8115H48.48V102.836H45.45V99.8115ZM63.63 99.8115H66.66V117.959H63.63V99.8115ZM69.69 99.8115H72.72V102.836H69.69V99.8115ZM75.75 99.8115H78.78V102.836H75.75V99.8115ZM81.81 99.8115H84.84V102.836H81.81V99.8115ZM87.87 99.8115H90.9V102.836H87.87V99.8115ZM93.93 99.8115H96.96V102.836H93.93V99.8115ZM99.99 99.8115H103.02V102.836H99.99V99.8115ZM106.05 99.8115H109.08V102.836H106.05V99.8115ZM112.11 99.8115H115.14V102.836H112.11V99.8115ZM118.17 99.8115H121.2V102.836H118.17V99.8115ZM124.23 99.8115H127.26V102.836H124.23V99.8115ZM130.29 99.8115H133.32V102.836H130.29V99.8115ZM136.35 99.8115H139.38V102.836H136.35V99.8115ZM142.41 99.8115H145.44V102.836H142.41V99.8115ZM148.47 99.8115H151.5V102.836H148.47V99.8115ZM154.53 99.8115H157.56V102.836H154.53V99.8115ZM160.59 99.8115H163.62V102.836H160.59V99.8115ZM166.65 99.8115H169.68V102.836H166.65V99.8115ZM172.71 99.8115H175.74V102.836H172.71V99.8115ZM178.77 99.8115H181.8V102.836H178.77V99.8115ZM184.83 99.8115H187.86V102.836H184.83V99.8115ZM190.89 99.8115H193.92V102.836H190.89V99.8115ZM196.95 99.8115H199.98V102.836H196.95V99.8115ZM203.01 99.8115H206.04V102.836H203.01V99.8115ZM209.07 99.8115H212.1V102.836H209.07V99.8115ZM215.13 99.8115H218.16V102.836H215.13V99.8115ZM221.19 99.8115H224.22V102.836H221.19V99.8115ZM227.25 99.8115H230.28V102.836H227.25V99.8115ZM233.31 99.8115H236.34V114.934H233.31V99.8115ZM239.37 99.8115H242.4V124.008H239.37V99.8115ZM245.43 99.8115H248.46V108.885H245.43V99.8115ZM251.49 99.8115H254.52V108.885H251.49V99.8115ZM54.54 102.836H57.57V108.885H54.54V102.836ZM66.66 102.836H69.69V114.934H66.66V102.836ZM72.72 102.836H75.75V105.861H72.72V102.836ZM78.78 102.836H81.81V105.861H78.78V102.836ZM90.9 102.836H93.93V105.861H90.9V102.836ZM96.96 102.836H99.99V105.861H96.96V102.836ZM103.02 102.836H106.05V105.861H103.02V102.836ZM109.08 102.836H112.11V105.861H109.08V102.836ZM115.14 102.836H118.17V105.861H115.14V102.836ZM121.2 102.836H124.23V105.861H121.2V102.836ZM127.26 102.836H130.29V105.861H127.26V102.836ZM145.44 102.836H148.47V105.861H145.44V102.836ZM151.5 102.836H154.53V105.861H151.5V102.836ZM169.68 102.836H172.71V105.861H169.68V102.836ZM175.74 102.836H178.77V105.861H175.74V102.836ZM181.8 102.836H184.83V105.861H181.8V102.836ZM187.86 102.836H190.89V105.861H187.86V102.836ZM199.98 102.836H203.01V105.861H199.98V102.836ZM206.04 102.836H209.07V105.861H206.04V102.836ZM212.1 102.836H215.13V105.861H212.1V102.836ZM218.16 102.836H221.19V105.861H218.16V102.836ZM224.22 102.836H227.25V105.861H224.22V102.836ZM230.28 102.836H233.31V117.959H230.28V102.836ZM248.46 102.836H251.49V114.934H248.46V102.836ZM69.69 105.861H72.72V117.959H69.69V105.861ZM75.75 105.861H78.78V108.885H75.75V105.861ZM81.81 105.861H84.84V108.885H81.81V105.861ZM87.87 105.861H90.9V108.885H87.87V105.861ZM93.93 105.861H96.96V108.885H93.93V105.861ZM99.99 105.861H103.02V108.885H99.99V105.861ZM106.05 105.861H109.08V108.885H106.05V105.861ZM112.11 105.861H115.14V108.885H112.11V105.861ZM118.17 105.861H121.2V108.885H118.17V105.861ZM124.23 105.861H127.26V108.885H124.23V105.861ZM130.29 105.861H133.32V108.885H130.29V105.861ZM142.41 105.861H145.44V108.885H142.41V105.861ZM148.47 105.861H151.5V108.885H148.47V105.861ZM154.53 105.861H157.56V108.885H154.53V105.861ZM160.59 105.861H163.62V108.885H160.59V105.861ZM166.65 105.861H169.68V108.885H166.65V105.861ZM172.71 105.861H175.74V108.885H172.71V105.861ZM178.77 105.861H181.8V108.885H178.77V105.861ZM184.83 105.861H187.86V108.885H184.83V105.861ZM190.89 105.861H193.92V108.885H190.89V105.861ZM196.95 105.861H199.98V108.885H196.95V105.861ZM203.01 105.861H206.04V108.885H203.01V105.861ZM209.07 105.861H212.1V108.885H209.07V105.861ZM215.13 105.861H218.16V108.885H215.13V105.861ZM221.19 105.861H224.22V108.885H221.19V105.861ZM227.25 105.861H230.28V133.082H227.25V105.861ZM72.72 108.885H75.75V130.057H72.72V108.885ZM78.78 108.885H81.81V124.008H78.78V108.885ZM84.84 108.885H87.87V111.91H84.84V108.885ZM96.96 108.885H99.99V111.91H96.96V108.885ZM103.02 108.885H106.05V111.91H103.02V108.885ZM109.08 108.885H112.11V111.91H109.08V108.885ZM115.14 108.885H118.17V111.91H115.14V108.885ZM127.26 108.885H130.29V111.91H127.26V108.885ZM145.44 108.885H148.47V111.91H145.44V108.885ZM151.5 108.885H154.53V111.91H151.5V108.885ZM169.68 108.885H172.71V111.91H169.68V108.885ZM175.74 108.885H178.77V111.91H175.74V108.885ZM181.8 108.885H184.83V111.91H181.8V108.885ZM187.86 108.885H190.89V111.91H187.86V108.885ZM193.92 108.885H196.95V111.91H193.92V108.885ZM199.98 108.885H203.01V111.91H199.98V108.885ZM206.04 108.885H209.07V111.91H206.04V108.885ZM212.1 108.885H215.13V111.91H212.1V108.885ZM218.16 108.885H221.19V114.934H218.16V108.885ZM224.22 108.885H227.25V133.082H224.22V108.885ZM54.54 111.91H60.6V117.959H54.54V111.91ZM75.75 111.91H78.78V133.082H75.75V111.91ZM81.81 111.91H84.84V124.008H81.81V111.91ZM87.87 111.91H90.9V114.934H87.87V111.91ZM93.93 111.91H96.96V114.934H93.93V111.91ZM99.99 111.91H103.02V114.934H99.99V111.91ZM106.05 111.91H109.08V114.934H106.05V111.91ZM112.11 111.91H115.14V114.934H112.11V111.91ZM118.17 111.91H121.2V114.934H118.17V111.91ZM124.23 111.91H127.26V114.934H124.23V111.91ZM130.29 111.91H133.32V114.934H130.29V111.91ZM142.41 111.91H145.44V114.934H142.41V111.91ZM148.47 111.91H151.5V114.934H148.47V111.91ZM154.53 111.91H157.56V114.934H154.53V111.91ZM160.59 111.91H163.62V114.934H160.59V111.91ZM172.71 111.91H175.74V114.934H172.71V111.91ZM178.77 111.91H181.8V114.934H178.77V111.91ZM184.83 111.91H187.86V114.934H184.83V111.91ZM190.89 111.91H193.92V114.934H190.89V111.91ZM196.95 111.91H199.98V114.934H196.95V111.91ZM203.01 111.91H206.04V114.934H203.01V111.91ZM209.07 111.91H212.1V114.934H209.07V111.91ZM215.13 111.91H218.16V114.934H215.13V111.91ZM221.19 111.91H224.22V114.934H221.19V111.91ZM242.4 111.91H248.46V120.984H242.4V111.91ZM84.84 114.934H87.87V124.008H84.84V114.934ZM90.9 114.934H93.93V130.057H90.9V114.934ZM96.96 114.934H99.99V117.959H96.96V114.934ZM103.02 114.934H106.05V117.959H103.02V114.934ZM109.08 114.934H112.11V117.959H109.08V114.934ZM115.14 114.934H118.17V117.959H115.14V114.934ZM121.2 114.934H124.23V117.959H121.2V114.934ZM127.26 114.934H130.29V117.959H127.26V114.934ZM145.44 114.934H148.47V117.959H145.44V114.934ZM151.5 114.934H154.53V117.959H151.5V114.934ZM175.74 114.934H178.77V117.959H175.74V114.934ZM181.8 114.934H184.83V117.959H181.8V114.934ZM187.86 114.934H190.89V117.959H187.86V114.934ZM193.92 114.934H196.95V117.959H193.92V114.934ZM199.98 114.934H203.01V117.959H199.98V114.934ZM206.04 114.934H209.07V117.959H206.04V114.934ZM212.1 114.934H215.13V130.057H212.1V114.934ZM57.57 117.959H60.6V120.984H57.57V117.959ZM87.87 117.959H90.9V139.131H87.87V117.959ZM93.93 117.959H96.96V139.131H93.93V117.959ZM99.99 117.959H103.02V120.984H99.99V117.959ZM106.05 117.959H109.08V120.984H106.05V117.959ZM112.11 117.959H115.14V120.984H112.11V117.959ZM118.17 117.959H121.2V120.984H118.17V117.959ZM124.23 117.959H127.26V120.984H124.23V117.959ZM130.29 117.959H133.32V120.984H130.29V117.959ZM142.41 117.959H145.44V120.984H142.41V117.959ZM148.47 117.959H151.5V120.984H148.47V117.959ZM154.53 117.959H157.56V120.984H154.53V117.959ZM160.59 117.959H163.62V120.984H160.59V117.959ZM172.71 117.959H175.74V120.984H172.71V117.959ZM178.77 117.959H181.8V120.984H178.77V117.959ZM184.83 117.959H187.86V120.984H184.83V117.959ZM190.89 117.959H193.92V120.984H190.89V117.959ZM196.95 117.959H199.98V120.984H196.95V117.959ZM203.01 117.959H206.04V120.984H203.01V117.959ZM209.07 117.959H212.1V127.033H209.07V117.959ZM215.13 117.959H224.22V124.008H215.13V117.959ZM63.63 120.984H69.69V127.033H63.63V120.984ZM96.96 120.984H99.99V139.131H96.96V120.984ZM103.02 120.984H106.05V142.156H103.02V120.984ZM109.08 120.984H112.11V130.057H109.08V120.984ZM115.14 120.984H118.17V124.008H115.14V120.984ZM121.2 120.984H124.23V124.008H121.2V120.984ZM127.26 120.984H130.29V124.008H127.26V120.984ZM145.44 120.984H148.47V124.008H145.44V120.984ZM151.5 120.984H154.53V124.008H151.5V120.984ZM175.74 120.984H178.77V124.008H175.74V120.984ZM181.8 120.984H184.83V124.008H181.8V120.984ZM187.86 120.984H190.89V124.008H187.86V120.984ZM193.92 120.984H196.95V139.131H193.92V120.984ZM206.04 120.984H209.07V139.131H206.04V120.984ZM230.28 120.984H233.31V130.057H230.28V120.984ZM236.34 120.984H239.37V127.033H236.34V120.984ZM69.69 124.008H72.72V130.057H69.69V124.008ZM99.99 124.008H103.02V133.082H99.99V124.008ZM106.05 124.008H109.08V139.131H106.05V124.008ZM112.11 124.008H115.14V139.131H112.11V124.008ZM118.17 124.008H121.2V127.033H118.17V124.008ZM124.23 124.008H127.26V127.033H124.23V124.008ZM130.29 124.008H133.32V127.033H130.29V124.008ZM142.41 124.008H145.44V127.033H142.41V124.008ZM148.47 124.008H151.5V127.033H148.47V124.008ZM154.53 124.008H157.56V127.033H154.53V124.008ZM160.59 124.008H163.62V127.033H160.59V124.008ZM172.71 124.008H175.74V127.033H172.71V124.008ZM178.77 124.008H181.8V127.033H178.77V124.008ZM184.83 124.008H187.86V127.033H184.83V124.008ZM190.89 124.008H193.92V127.033H190.89V124.008ZM196.95 124.008H199.98V139.131H196.95V124.008ZM203.01 124.008H206.04V133.082H203.01V124.008ZM215.13 124.008H218.16V136.107H215.13V124.008ZM233.31 124.008H236.34V127.033H233.31V124.008ZM84.84 127.033H87.87V136.107H84.84V127.033ZM115.14 127.033H118.17V133.082H115.14V127.033ZM121.2 127.033H124.23V133.082H121.2V127.033ZM127.26 127.033H130.29V130.057H127.26V127.033ZM151.5 127.033H154.53V130.057H151.5V127.033ZM175.74 127.033H178.77V136.107H175.74V127.033ZM181.8 127.033H184.83V133.082H181.8V127.033ZM187.86 127.033H190.89V139.131H187.86V127.033ZM199.98 127.033H203.01V130.057H199.98V127.033ZM78.78 130.057H84.84V133.082H78.78V130.057ZM118.17 130.057H121.2V133.082H118.17V130.057ZM124.23 130.057H127.26V139.131H124.23V130.057ZM142.41 130.057H145.44V133.082H142.41V130.057ZM148.47 130.057H151.5V133.082H148.47V130.057ZM154.53 130.057H157.56V133.082H154.53V130.057ZM172.71 130.057H175.74V133.082H172.71V130.057ZM178.77 130.057H181.8V133.082H178.77V130.057ZM184.83 130.057H187.86V133.082H184.83V130.057ZM190.89 130.057H193.92V133.082H190.89V130.057ZM218.16 130.057H224.22V133.082H218.16V130.057ZM81.81 133.082H84.84V136.107H81.81V133.082ZM90.9 133.082H93.93V139.131H90.9V133.082ZM109.08 133.082H112.11V142.156H109.08V133.082ZM145.44 133.082H148.47V136.107H145.44V133.082ZM151.5 133.082H154.53V136.107H151.5V133.082ZM209.07 133.082H215.13V139.131H209.07V133.082ZM218.16 133.082H221.19V136.107H218.16V133.082ZM99.99 136.107H103.02V139.131H99.99V136.107ZM115.14 136.107H124.23V139.131H115.14V136.107ZM148.47 136.107H151.5V139.131H148.47V136.107ZM154.53 136.107H157.56V139.131H154.53V136.107ZM178.77 136.107H187.86V139.131H178.77V136.107ZM190.89 136.107H193.92V139.131H190.89V136.107ZM199.98 136.107H206.04V139.131H199.98V136.107ZM145.44 139.131H148.47V142.156H145.44V139.131ZM151.5 139.131H154.53V142.156H151.5V139.131ZM148.47 142.156H151.5V145.18H148.47V142.156ZM154.53 142.156H157.56V145.18H154.53V142.156ZM151.5 145.18H154.53V154.254H151.5V145.18ZM148.47 148.205H151.5V151.23H148.47V148.205ZM154.53 148.205H157.56V151.23H154.53V148.205Z" fill="#99B1C3"/>
</svg>
