<svg width="225" height="161" viewBox="0 0 225 161" fill="none" xmlns="http://www.w3.org/2000/svg">
<path d="M6.06 0H21.21V9.07377H6.06V0ZM199.98 0H203.01V3.02459H199.98V0ZM206.04 0H209.07V3.02459H206.04V0ZM212.1 0H215.13V3.02459H212.1V0ZM218.16 0H221.19V3.02459H218.16V0ZM3.03 3.02459H6.06V30.2459H3.03V3.02459ZM21.21 3.02459H30.3V15.123H21.21V3.02459ZM190.89 3.02459H193.92V6.04918H190.89V3.02459ZM209.07 3.02459H212.1V6.04918H209.07V3.02459ZM0 6.04918H3.03V9.07377H0V6.04918ZM30.3 6.04918H36.36V30.2459H30.3V6.04918ZM187.86 6.04918H190.89V9.07377H187.86V6.04918ZM193.92 6.04918H196.95V9.07377H193.92V6.04918ZM199.98 6.04918H203.01V9.07377H199.98V6.04918ZM206.04 6.04918H209.07V9.07377H206.04V6.04918ZM212.1 6.04918H221.19V9.07377H212.1V6.04918ZM9.09 9.07377H21.21V45.3689H9.09V9.07377ZM36.36 9.07377H42.42V27.2213H36.36V9.07377ZM184.83 9.07377H187.86V12.0984H184.83V9.07377ZM190.89 9.07377H193.92V12.0984H190.89V9.07377ZM209.07 9.07377H215.13V12.0984H209.07V9.07377ZM221.19 9.07377H224.22V24.1967H221.19V9.07377ZM0 12.0984H3.03V27.2213H0V12.0984ZM6.06 12.0984H9.09V27.2213H6.06V12.0984ZM42.42 12.0984H45.45V27.2213H42.42V12.0984ZM175.74 12.0984H178.77V15.123H175.74V12.0984ZM181.8 12.0984H184.83V15.123H181.8V12.0984ZM187.86 12.0984H190.89V21.1721H187.86V12.0984ZM193.92 12.0984H196.95V27.2213H193.92V12.0984ZM199.98 12.0984H203.01V15.123H199.98V12.0984ZM206.04 12.0984H209.07V15.123H206.04V12.0984ZM212.1 12.0984H215.13V21.1721H212.1V12.0984ZM218.16 12.0984H221.19V15.123H218.16V12.0984ZM21.21 15.123H24.24V21.1721H21.21V15.123ZM27.27 15.123H30.3V24.1967H27.27V15.123ZM45.45 15.123H51.51V24.1967H45.45V15.123ZM172.71 15.123H175.74V18.1475H172.71V15.123ZM178.77 15.123H181.8V18.1475H178.77V15.123ZM190.89 15.123H193.92V18.1475H190.89V15.123ZM203.01 15.123H206.04V18.1475H203.01V15.123ZM209.07 15.123H212.1V18.1475H209.07V15.123ZM215.13 15.123H218.16V30.2459H215.13V15.123ZM24.24 18.1475H27.27V21.1721H24.24V18.1475ZM51.51 18.1475H54.54V54.4426H51.51V18.1475ZM66.66 18.1475H69.69V21.1721H66.66V18.1475ZM145.44 18.1475H148.47V21.1721H145.44V18.1475ZM169.68 18.1475H172.71V21.1721H169.68V18.1475ZM175.74 18.1475H178.77V21.1721H175.74V18.1475ZM181.8 18.1475H184.83V21.1721H181.8V18.1475ZM199.98 18.1475H203.01V21.1721H199.98V18.1475ZM206.04 18.1475H209.07V21.1721H206.04V18.1475ZM54.54 21.1721H60.6V51.418H54.54V21.1721ZM69.69 21.1721H72.72V24.1967H69.69V21.1721ZM166.65 21.1721H169.68V24.1967H166.65V21.1721ZM172.71 21.1721H175.74V42.3443H172.71V21.1721ZM184.83 21.1721H187.86V24.1967H184.83V21.1721ZM196.95 21.1721H199.98V24.1967H196.95V21.1721ZM209.07 21.1721H212.1V24.1967H209.07V21.1721ZM21.21 24.1967H27.27V39.3197H21.21V24.1967ZM48.48 24.1967H51.51V27.2213H48.48V24.1967ZM60.6 24.1967H63.63V27.2213H60.6V24.1967ZM72.72 24.1967H75.75V27.2213H72.72V24.1967ZM163.62 24.1967H166.65V27.2213H163.62V24.1967ZM169.68 24.1967H172.71V27.2213H169.68V24.1967ZM175.74 24.1967H184.83V27.2213H175.74V24.1967ZM199.98 24.1967H203.01V27.2213H199.98V24.1967ZM206.04 24.1967H209.07V27.2213H206.04V24.1967ZM212.1 24.1967H215.13V27.2213H212.1V24.1967ZM27.27 27.2213H30.3V30.2459H27.27V27.2213ZM45.45 27.2213H48.48V60.4918H45.45V27.2213ZM63.63 27.2213H66.66V54.4426H63.63V27.2213ZM160.59 27.2213H163.62V30.2459H160.59V27.2213ZM178.77 27.2213H181.8V42.3443H178.77V27.2213ZM190.89 27.2213H193.92V30.2459H190.89V27.2213ZM196.95 27.2213H199.98V30.2459H196.95V27.2213ZM209.07 27.2213H212.1V30.2459H209.07V27.2213ZM6.06 30.2459H9.09V39.3197H6.06V30.2459ZM33.33 30.2459H42.42V33.2705H33.33V30.2459ZM48.48 30.2459H51.51V51.418H48.48V30.2459ZM60.6 30.2459H63.63V51.418H60.6V30.2459ZM66.66 30.2459H69.69V33.2705H66.66V30.2459ZM157.56 30.2459H160.59V33.2705H157.56V30.2459ZM169.68 30.2459H172.71V33.2705H169.68V30.2459ZM175.74 30.2459H178.77V33.2705H175.74V30.2459ZM181.8 30.2459H187.86V33.2705H181.8V30.2459ZM193.92 30.2459H196.95V33.2705H193.92V30.2459ZM206.04 30.2459H209.07V33.2705H206.04V30.2459ZM212.1 30.2459H215.13V33.2705H212.1V30.2459ZM3.03 33.2705H6.06V39.3197H3.03V33.2705ZM27.27 33.2705H30.3V36.2951H27.27V33.2705ZM33.33 33.2705H36.36V60.4918H33.33V33.2705ZM42.42 33.2705H45.45V57.4672H42.42V33.2705ZM69.69 33.2705H72.72V54.4426H69.69V33.2705ZM154.53 33.2705H157.56V36.2951H154.53V33.2705ZM166.65 33.2705H169.68V42.3443H166.65V33.2705ZM181.8 33.2705H184.83V39.3197H181.8V33.2705ZM196.95 33.2705H199.98V36.2951H196.95V33.2705ZM203.01 33.2705H206.04V36.2951H203.01V33.2705ZM209.07 33.2705H212.1V54.4426H209.07V33.2705ZM215.13 33.2705H221.19V36.2951H215.13V33.2705ZM30.3 36.2951H33.33V63.5164H30.3V36.2951ZM36.36 36.2951H39.39V63.5164H36.36V36.2951ZM66.66 36.2951H69.69V51.418H66.66V36.2951ZM72.72 36.2951H75.75V51.418H72.72V36.2951ZM148.47 36.2951H154.53V39.3197H148.47V36.2951ZM175.74 36.2951H178.77V45.3689H175.74V36.2951ZM184.83 36.2951H196.95V39.3197H184.83V36.2951ZM206.04 36.2951H209.07V39.3197H206.04V36.2951ZM212.1 36.2951H215.13V45.3689H212.1V36.2951ZM21.21 39.3197H24.24V66.541H21.21V39.3197ZM27.27 39.3197H30.3V60.4918H27.27V39.3197ZM39.39 39.3197H42.42V60.4918H39.39V39.3197ZM75.75 39.3197H78.78V54.4426H75.75V39.3197ZM154.53 39.3197H157.56V42.3443H154.53V39.3197ZM160.59 39.3197H166.65V45.3689H160.59V39.3197ZM190.89 39.3197H193.92V51.418H190.89V39.3197ZM6.06 42.3443H9.09V45.3689H6.06V42.3443ZM24.24 42.3443H27.27V78.6393H24.24V42.3443ZM78.78 42.3443H81.81V57.4672H78.78V42.3443ZM142.41 42.3443H145.44V48.3934H142.41V42.3443ZM151.5 42.3443H154.53V45.3689H151.5V42.3443ZM157.56 42.3443H160.59V45.3689H157.56V42.3443ZM169.68 42.3443H172.71V45.3689H169.68V42.3443ZM181.8 42.3443H184.83V45.3689H181.8V42.3443ZM187.86 42.3443H190.89V45.3689H187.86V42.3443ZM193.92 42.3443H196.95V45.3689H193.92V42.3443ZM206.04 42.3443H209.07V45.3689H206.04V42.3443ZM9.09 45.3689H18.18V51.418H9.09V45.3689ZM81.81 45.3689H84.84V66.541H81.81V45.3689ZM154.53 45.3689H157.56V51.418H154.53V45.3689ZM160.59 45.3689H163.62V48.3934H160.59V45.3689ZM166.65 45.3689H169.68V54.4426H166.65V45.3689ZM172.71 45.3689H175.74V48.3934H172.71V45.3689ZM178.77 45.3689H181.8V48.3934H178.77V45.3689ZM184.83 45.3689H187.86V51.418H184.83V45.3689ZM196.95 45.3689H199.98V48.3934H196.95V45.3689ZM203.01 45.3689H206.04V48.3934H203.01V45.3689ZM6.06 48.3934H9.09V51.418H6.06V48.3934ZM18.18 48.3934H21.21V69.5656H18.18V48.3934ZM84.84 48.3934H87.87V57.4672H84.84V48.3934ZM139.38 48.3934H142.41V51.418H139.38V48.3934ZM145.44 48.3934H151.5V51.418H145.44V48.3934ZM157.56 48.3934H160.59V57.4672H157.56V48.3934ZM163.62 48.3934H166.65V51.418H163.62V48.3934ZM169.68 48.3934H172.71V51.418H169.68V48.3934ZM175.74 48.3934H178.77V57.4672H175.74V48.3934ZM181.8 48.3934H184.83V51.418H181.8V48.3934ZM187.86 48.3934H190.89V51.418H187.86V48.3934ZM193.92 48.3934H196.95V51.418H193.92V48.3934ZM199.98 48.3934H203.01V51.418H199.98V48.3934ZM206.04 48.3934H209.07V57.4672H206.04V48.3934ZM212.1 48.3934H215.13V51.418H212.1V48.3934ZM9.09 51.418H12.12V54.4426H9.09V51.418ZM15.15 51.418H18.18V54.4426H15.15V51.418ZM57.57 51.418H60.6V54.4426H57.57V51.418ZM136.35 51.418H139.38V54.4426H136.35V51.418ZM148.47 51.418H151.5V54.4426H148.47V51.418ZM160.59 51.418H163.62V54.4426H160.59V51.418ZM178.77 51.418H181.8V54.4426H178.77V51.418ZM12.12 54.4426H15.15V63.5164H12.12V54.4426ZM48.48 54.4426H51.51V57.4672H48.48V54.4426ZM54.54 54.4426H57.57V57.4672H54.54V54.4426ZM60.6 54.4426H63.63V57.4672H60.6V54.4426ZM66.66 54.4426H69.69V57.4672H66.66V54.4426ZM72.72 54.4426H75.75V57.4672H72.72V54.4426ZM87.87 54.4426H90.9V60.4918H87.87V54.4426ZM133.32 54.4426H136.35V57.4672H133.32V54.4426ZM142.41 54.4426H145.44V63.5164H142.41V54.4426ZM151.5 54.4426H154.53V57.4672H151.5V54.4426ZM163.62 54.4426H166.65V57.4672H163.62V54.4426ZM169.68 54.4426H172.71V57.4672H169.68V54.4426ZM193.92 54.4426H196.95V57.4672H193.92V54.4426ZM15.15 57.4672H18.18V63.5164H15.15V57.4672ZM51.51 57.4672H54.54V60.4918H51.51V57.4672ZM57.57 57.4672H60.6V60.4918H57.57V57.4672ZM63.63 57.4672H66.66V60.4918H63.63V57.4672ZM69.69 57.4672H72.72V60.4918H69.69V57.4672ZM75.75 57.4672H78.78V60.4918H75.75V57.4672ZM148.47 57.4672H151.5V60.4918H148.47V57.4672ZM160.59 57.4672H163.62V60.4918H160.59V57.4672ZM172.71 57.4672H175.74V60.4918H172.71V57.4672ZM178.77 57.4672H181.8V60.4918H178.77V57.4672ZM184.83 57.4672H193.92V60.4918H184.83V57.4672ZM209.07 57.4672H212.1V63.5164H209.07V57.4672ZM42.42 60.4918H45.45V63.5164H42.42V60.4918ZM48.48 60.4918H51.51V63.5164H48.48V60.4918ZM54.54 60.4918H57.57V63.5164H54.54V60.4918ZM60.6 60.4918H63.63V63.5164H60.6V60.4918ZM66.66 60.4918H69.69V63.5164H66.66V60.4918ZM72.72 60.4918H75.75V63.5164H72.72V60.4918ZM78.78 60.4918H81.81V63.5164H78.78V60.4918ZM84.84 60.4918H87.87V63.5164H84.84V60.4918ZM90.9 60.4918H93.93V63.5164H90.9V60.4918ZM103.02 60.4918H106.05V63.5164H103.02V60.4918ZM130.29 60.4918H136.35V63.5164H130.29V60.4918ZM139.38 60.4918H142.41V63.5164H139.38V60.4918ZM145.44 60.4918H148.47V63.5164H145.44V60.4918ZM151.5 60.4918H154.53V63.5164H151.5V60.4918ZM157.56 60.4918H160.59V63.5164H157.56V60.4918ZM181.8 60.4918H184.83V63.5164H181.8V60.4918ZM193.92 60.4918H196.95V63.5164H193.92V60.4918ZM199.98 60.4918H209.07V63.5164H199.98V60.4918ZM27.27 63.5164H30.3V78.6393H27.27V63.5164ZM33.33 63.5164H36.36V75.6148H33.33V63.5164ZM39.39 63.5164H42.42V66.541H39.39V63.5164ZM45.45 63.5164H48.48V66.541H45.45V63.5164ZM51.51 63.5164H54.54V66.541H51.51V63.5164ZM57.57 63.5164H60.6V66.541H57.57V63.5164ZM63.63 63.5164H66.66V66.541H63.63V63.5164ZM69.69 63.5164H72.72V66.541H69.69V63.5164ZM75.75 63.5164H78.78V66.541H75.75V63.5164ZM87.87 63.5164H90.9V81.6639H87.87V63.5164ZM96.96 63.5164H103.02V69.5656H96.96V63.5164ZM106.05 63.5164H112.11V69.5656H106.05V63.5164ZM130.29 63.5164H133.32V66.541H130.29V63.5164ZM199.98 63.5164H203.01V69.5656H199.98V63.5164ZM30.3 66.541H33.33V69.5656H30.3V66.541ZM36.36 66.541H39.39V69.5656H36.36V66.541ZM42.42 66.541H45.45V69.5656H42.42V66.541ZM48.48 66.541H51.51V69.5656H48.48V66.541ZM54.54 66.541H57.57V69.5656H54.54V66.541ZM60.6 66.541H63.63V69.5656H60.6V66.541ZM66.66 66.541H69.69V69.5656H66.66V66.541ZM72.72 66.541H75.75V69.5656H72.72V66.541ZM78.78 66.541H81.81V69.5656H78.78V66.541ZM84.84 66.541H87.87V69.5656H84.84V66.541ZM90.9 66.541H96.96V69.5656H90.9V66.541ZM103.02 66.541H106.05V75.6148H103.02V66.541ZM127.26 66.541H130.29V75.6148H127.26V66.541ZM133.32 66.541H136.35V75.6148H133.32V66.541ZM139.38 66.541H142.41V69.5656H139.38V66.541ZM151.5 66.541H154.53V69.5656H151.5V66.541ZM187.86 66.541H190.89V69.5656H187.86V66.541ZM193.92 66.541H196.95V69.5656H193.92V66.541ZM21.21 69.5656H24.24V72.5902H21.21V69.5656ZM45.45 69.5656H48.48V72.5902H45.45V69.5656ZM51.51 69.5656H54.54V72.5902H51.51V69.5656ZM57.57 69.5656H60.6V72.5902H57.57V69.5656ZM63.63 69.5656H66.66V72.5902H63.63V69.5656ZM69.69 69.5656H72.72V72.5902H69.69V69.5656ZM75.75 69.5656H78.78V72.5902H75.75V69.5656ZM81.81 69.5656H84.84V78.6393H81.81V69.5656ZM93.93 69.5656H96.96V81.6639H93.93V69.5656ZM99.99 69.5656H103.02V72.5902H99.99V69.5656ZM106.05 69.5656H109.08V72.5902H106.05V69.5656ZM136.35 69.5656H139.38V72.5902H136.35V69.5656ZM196.95 69.5656H199.98V75.6148H196.95V69.5656ZM18.18 72.5902H21.21V75.6148H18.18V72.5902ZM30.3 72.5902H33.33V75.6148H30.3V72.5902ZM36.36 72.5902H39.39V75.6148H36.36V72.5902ZM42.42 72.5902H45.45V75.6148H42.42V72.5902ZM48.48 72.5902H51.51V75.6148H48.48V72.5902ZM54.54 72.5902H57.57V75.6148H54.54V72.5902ZM60.6 72.5902H63.63V75.6148H60.6V72.5902ZM66.66 72.5902H69.69V75.6148H66.66V72.5902ZM72.72 72.5902H75.75V75.6148H72.72V72.5902ZM78.78 72.5902H81.81V75.6148H78.78V72.5902ZM84.84 72.5902H87.87V75.6148H84.84V72.5902ZM90.9 72.5902H93.93V75.6148H90.9V72.5902ZM96.96 72.5902H99.99V75.6148H96.96V72.5902ZM109.08 72.5902H112.11V75.6148H109.08V72.5902ZM130.29 72.5902H133.32V78.6393H130.29V72.5902ZM139.38 72.5902H148.47V75.6148H139.38V72.5902ZM151.5 72.5902H154.53V75.6148H151.5V72.5902ZM163.62 72.5902H166.65V75.6148H163.62V72.5902ZM169.68 72.5902H172.71V75.6148H169.68V72.5902ZM175.74 72.5902H178.77V75.6148H175.74V72.5902ZM181.8 72.5902H184.83V75.6148H181.8V72.5902ZM187.86 72.5902H196.95V75.6148H187.86V72.5902ZM199.98 72.5902H203.01V75.6148H199.98V72.5902ZM21.21 75.6148H24.24V78.6393H21.21V75.6148ZM45.45 75.6148H48.48V78.6393H45.45V75.6148ZM51.51 75.6148H54.54V78.6393H51.51V75.6148ZM63.63 75.6148H66.66V78.6393H63.63V75.6148ZM69.69 75.6148H72.72V78.6393H69.69V75.6148ZM75.75 75.6148H78.78V78.6393H75.75V75.6148ZM99.99 75.6148H103.02V108.885H99.99V75.6148ZM106.05 75.6148H109.08V114.934H106.05V75.6148ZM142.41 75.6148H145.44V78.6393H142.41V75.6148ZM160.59 75.6148H163.62V78.6393H160.59V75.6148ZM30.3 78.6393H39.39V81.6639H30.3V78.6393ZM42.42 78.6393H45.45V81.6639H42.42V78.6393ZM48.48 78.6393H51.51V81.6639H48.48V78.6393ZM54.54 78.6393H57.57V81.6639H54.54V78.6393ZM60.6 78.6393H63.63V81.6639H60.6V78.6393ZM66.66 78.6393H69.69V93.7623H66.66V78.6393ZM72.72 78.6393H75.75V87.7131H72.72V78.6393ZM78.78 78.6393H81.81V81.6639H78.78V78.6393ZM84.84 78.6393H87.87V81.6639H84.84V78.6393ZM90.9 78.6393H93.93V81.6639H90.9V78.6393ZM96.96 78.6393H99.99V81.6639H96.96V78.6393ZM103.02 78.6393H106.05V81.6639H103.02V78.6393ZM109.08 78.6393H112.11V81.6639H109.08V78.6393ZM127.26 78.6393H130.29V81.6639H127.26V78.6393ZM133.32 78.6393H136.35V81.6639H133.32V78.6393ZM139.38 78.6393H142.41V81.6639H139.38V78.6393ZM145.44 78.6393H148.47V81.6639H145.44V78.6393ZM151.5 78.6393H154.53V81.6639H151.5V78.6393ZM157.56 78.6393H160.59V81.6639H157.56V78.6393ZM163.62 78.6393H166.65V81.6639H163.62V78.6393ZM169.68 78.6393H175.74V81.6639H169.68V78.6393ZM181.8 78.6393H184.83V81.6639H181.8V78.6393ZM187.86 78.6393H190.89V81.6639H187.86V78.6393ZM39.39 81.6639H42.42V84.6885H39.39V81.6639ZM45.45 81.6639H48.48V84.6885H45.45V81.6639ZM51.51 81.6639H54.54V96.7869H51.51V81.6639ZM57.57 81.6639H60.6V96.7869H57.57V81.6639ZM63.63 81.6639H66.66V96.7869H63.63V81.6639ZM69.69 81.6639H72.72V96.7869H69.69V81.6639ZM75.75 81.6639H78.78V84.6885H75.75V81.6639ZM81.81 81.6639H84.84V84.6885H81.81V81.6639ZM136.35 81.6639H139.38V87.7131H136.35V81.6639ZM142.41 81.6639H145.44V84.6885H142.41V81.6639ZM166.65 81.6639H169.68V84.6885H166.65V81.6639ZM172.71 81.6639H175.74V84.6885H172.71V81.6639ZM178.77 81.6639H181.8V84.6885H178.77V81.6639ZM33.33 84.6885H39.39V87.7131H33.33V84.6885ZM42.42 84.6885H45.45V99.8115H42.42V84.6885ZM48.48 84.6885H51.51V93.7623H48.48V84.6885ZM54.54 84.6885H57.57V93.7623H54.54V84.6885ZM60.6 84.6885H63.63V93.7623H60.6V84.6885ZM78.78 84.6885H81.81V87.7131H78.78V84.6885ZM84.84 84.6885H93.93V87.7131H84.84V84.6885ZM96.96 84.6885H99.99V87.7131H96.96V84.6885ZM103.02 84.6885H106.05V93.7623H103.02V84.6885ZM109.08 84.6885H112.11V87.7131H109.08V84.6885ZM127.26 84.6885H130.29V87.7131H127.26V84.6885ZM133.32 84.6885H136.35V87.7131H133.32V84.6885ZM139.38 84.6885H142.41V87.7131H139.38V84.6885ZM145.44 84.6885H148.47V87.7131H145.44V84.6885ZM151.5 84.6885H154.53V87.7131H151.5V84.6885ZM169.68 84.6885H172.71V87.7131H169.68V84.6885ZM175.74 84.6885H178.77V87.7131H175.74V84.6885ZM181.8 84.6885H190.89V87.7131H181.8V84.6885ZM27.27 87.7131H30.3V90.7377H27.27V87.7131ZM39.39 87.7131H42.42V108.885H39.39V87.7131ZM45.45 87.7131H48.48V96.7869H45.45V87.7131ZM75.75 87.7131H78.78V96.7869H75.75V87.7131ZM81.81 87.7131H84.84V96.7869H81.81V87.7131ZM87.87 87.7131H90.9V90.7377H87.87V87.7131ZM93.93 87.7131H96.96V102.836H93.93V87.7131ZM130.29 87.7131H133.32V90.7377H130.29V87.7131ZM166.65 87.7131H169.68V93.7623H166.65V87.7131ZM178.77 87.7131H181.8V90.7377H178.77V87.7131ZM184.83 87.7131H187.86V99.8115H184.83V87.7131ZM190.89 87.7131H193.92V93.7623H190.89V87.7131ZM24.24 90.7377H27.27V117.959H24.24V90.7377ZM30.3 90.7377H39.39V93.7623H30.3V90.7377ZM72.72 90.7377H75.75V93.7623H72.72V90.7377ZM78.78 90.7377H81.81V93.7623H78.78V90.7377ZM84.84 90.7377H87.87V93.7623H84.84V90.7377ZM90.9 90.7377H93.93V93.7623H90.9V90.7377ZM96.96 90.7377H99.99V93.7623H96.96V90.7377ZM109.08 90.7377H112.11V99.8115H109.08V90.7377ZM127.26 90.7377H130.29V93.7623H127.26V90.7377ZM133.32 90.7377H136.35V93.7623H133.32V90.7377ZM139.38 90.7377H142.41V93.7623H139.38V90.7377ZM145.44 90.7377H148.47V93.7623H145.44V90.7377ZM151.5 90.7377H154.53V93.7623H151.5V90.7377ZM157.56 90.7377H160.59V93.7623H157.56V90.7377ZM163.62 90.7377H166.65V93.7623H163.62V90.7377ZM169.68 90.7377H178.77V93.7623H169.68V90.7377ZM181.8 90.7377H184.83V93.7623H181.8V90.7377ZM187.86 90.7377H190.89V99.8115H187.86V90.7377ZM193.92 90.7377H199.98V93.7623H193.92V90.7377ZM27.27 93.7623H30.3V124.008H27.27V93.7623ZM33.33 93.7623H39.39V117.959H33.33V93.7623ZM87.87 93.7623H90.9V96.7869H87.87V93.7623ZM136.35 93.7623H139.38V96.7869H136.35V93.7623ZM178.77 93.7623H181.8V96.7869H178.77V93.7623ZM196.95 93.7623H199.98V105.861H196.95V93.7623ZM30.3 96.7869H33.33V105.861H30.3V96.7869ZM48.48 96.7869H51.51V99.8115H48.48V96.7869ZM54.54 96.7869H57.57V99.8115H54.54V96.7869ZM60.6 96.7869H63.63V99.8115H60.6V96.7869ZM66.66 96.7869H69.69V99.8115H66.66V96.7869ZM72.72 96.7869H75.75V99.8115H72.72V96.7869ZM78.78 96.7869H81.81V99.8115H78.78V96.7869ZM84.84 96.7869H87.87V99.8115H84.84V96.7869ZM90.9 96.7869H93.93V99.8115H90.9V96.7869ZM96.96 96.7869H99.99V99.8115H96.96V96.7869ZM103.02 96.7869H106.05V105.861H103.02V96.7869ZM127.26 96.7869H130.29V99.8115H127.26V96.7869ZM133.32 96.7869H136.35V99.8115H133.32V96.7869ZM139.38 96.7869H142.41V99.8115H139.38V96.7869ZM145.44 96.7869H148.47V99.8115H145.44V96.7869ZM151.5 96.7869H154.53V99.8115H151.5V96.7869ZM157.56 96.7869H160.59V99.8115H157.56V96.7869ZM163.62 96.7869H166.65V99.8115H163.62V96.7869ZM169.68 96.7869H172.71V99.8115H169.68V96.7869ZM175.74 96.7869H178.77V99.8115H175.74V96.7869ZM181.8 96.7869H184.83V99.8115H181.8V96.7869ZM193.92 96.7869H196.95V99.8115H193.92V96.7869ZM21.21 99.8115H24.24V111.91H21.21V99.8115ZM45.45 99.8115H48.48V102.836H45.45V99.8115ZM57.57 99.8115H60.6V102.836H57.57V99.8115ZM69.69 99.8115H72.72V102.836H69.69V99.8115ZM81.81 99.8115H84.84V102.836H81.81V99.8115ZM87.87 99.8115H90.9V102.836H87.87V99.8115ZM124.23 99.8115H127.26V105.861H124.23V99.8115ZM130.29 99.8115H133.32V102.836H130.29V99.8115ZM136.35 99.8115H139.38V102.836H136.35V99.8115ZM190.89 99.8115H193.92V117.959H190.89V99.8115ZM42.42 102.836H45.45V105.861H42.42V102.836ZM48.48 102.836H51.51V105.861H48.48V102.836ZM54.54 102.836H57.57V105.861H54.54V102.836ZM60.6 102.836H69.69V105.861H60.6V102.836ZM72.72 102.836H75.75V105.861H72.72V102.836ZM78.78 102.836H81.81V105.861H78.78V102.836ZM84.84 102.836H87.87V105.861H84.84V102.836ZM90.9 102.836H93.93V105.861H90.9V102.836ZM121.2 102.836H124.23V105.861H121.2V102.836ZM127.26 102.836H130.29V105.861H127.26V102.836ZM133.32 102.836H136.35V105.861H133.32V102.836ZM139.38 102.836H142.41V105.861H139.38V102.836ZM145.44 102.836H148.47V105.861H145.44V102.836ZM151.5 102.836H154.53V105.861H151.5V102.836ZM157.56 102.836H160.59V105.861H157.56V102.836ZM163.62 102.836H166.65V105.861H163.62V102.836ZM169.68 102.836H172.71V105.861H169.68V102.836ZM175.74 102.836H178.77V105.861H175.74V102.836ZM187.86 102.836H190.89V111.91H187.86V102.836ZM193.92 102.836H196.95V105.861H193.92V102.836ZM199.98 102.836H203.01V105.861H199.98V102.836ZM18.18 105.861H21.21V108.885H18.18V105.861ZM45.45 105.861H48.48V108.885H45.45V105.861ZM75.75 105.861H78.78V108.885H75.75V105.861ZM87.87 105.861H90.9V108.885H87.87V105.861ZM130.29 105.861H133.32V108.885H130.29V105.861ZM136.35 105.861H139.38V108.885H136.35V105.861ZM142.41 105.861H145.44V108.885H142.41V105.861ZM203.01 105.861H206.04V108.885H203.01V105.861ZM30.3 108.885H33.33V130.057H30.3V108.885ZM42.42 108.885H45.45V111.91H42.42V108.885ZM48.48 108.885H51.51V111.91H48.48V108.885ZM54.54 108.885H57.57V111.91H54.54V108.885ZM60.6 108.885H63.63V111.91H60.6V108.885ZM66.66 108.885H69.69V111.91H66.66V108.885ZM72.72 108.885H75.75V111.91H72.72V108.885ZM78.78 108.885H81.81V111.91H78.78V108.885ZM84.84 108.885H87.87V111.91H84.84V108.885ZM90.9 108.885H93.93V111.91H90.9V108.885ZM103.02 108.885H106.05V111.91H103.02V108.885ZM121.2 108.885H124.23V111.91H121.2V108.885ZM127.26 108.885H130.29V111.91H127.26V108.885ZM133.32 108.885H136.35V111.91H133.32V108.885ZM139.38 108.885H142.41V111.91H139.38V108.885ZM145.44 108.885H148.47V111.91H145.44V108.885ZM151.5 108.885H154.53V111.91H151.5V108.885ZM157.56 108.885H160.59V111.91H157.56V108.885ZM163.62 108.885H166.65V111.91H163.62V108.885ZM169.68 108.885H172.71V111.91H169.68V108.885ZM181.8 108.885H184.83V111.91H181.8V108.885ZM193.92 108.885H199.98V111.91H193.92V108.885ZM39.39 111.91H42.42V130.057H39.39V111.91ZM51.51 111.91H54.54V114.934H51.51V111.91ZM63.63 111.91H66.66V114.934H63.63V111.91ZM69.69 111.91H72.72V114.934H69.69V111.91ZM75.75 111.91H78.78V114.934H75.75V111.91ZM81.81 111.91H84.84V114.934H81.81V111.91ZM87.87 111.91H90.9V114.934H87.87V111.91ZM142.41 111.91H145.44V114.934H142.41V111.91ZM148.47 111.91H151.5V114.934H148.47V111.91ZM196.95 111.91H199.98V114.934H196.95V111.91ZM42.42 114.934H45.45V117.959H42.42V114.934ZM48.48 114.934H51.51V117.959H48.48V114.934ZM54.54 114.934H57.57V117.959H54.54V114.934ZM60.6 114.934H63.63V117.959H60.6V114.934ZM66.66 114.934H69.69V117.959H66.66V114.934ZM72.72 114.934H75.75V117.959H72.72V114.934ZM78.78 114.934H81.81V117.959H78.78V114.934ZM84.84 114.934H87.87V117.959H84.84V114.934ZM103.02 114.934H106.05V117.959H103.02V114.934ZM133.32 114.934H136.35V117.959H133.32V114.934ZM139.38 114.934H142.41V117.959H139.38V114.934ZM145.44 114.934H148.47V117.959H145.44V114.934ZM151.5 114.934H154.53V117.959H151.5V114.934ZM157.56 114.934H160.59V117.959H157.56V114.934ZM163.62 114.934H166.65V117.959H163.62V114.934ZM175.74 114.934H178.77V117.959H175.74V114.934ZM181.8 114.934H184.83V117.959H181.8V114.934ZM187.86 114.934H190.89V117.959H187.86V114.934ZM193.92 114.934H196.95V117.959H193.92V114.934ZM199.98 114.934H203.01V120.984H199.98V114.934ZM21.21 117.959H24.24V120.984H21.21V117.959ZM33.33 117.959H36.36V120.984H33.33V117.959ZM45.45 117.959H48.48V120.984H45.45V117.959ZM51.51 117.959H54.54V120.984H51.51V117.959ZM57.57 117.959H60.6V120.984H57.57V117.959ZM63.63 117.959H66.66V120.984H63.63V117.959ZM69.69 117.959H72.72V120.984H69.69V117.959ZM106.05 117.959H109.08V142.156H106.05V117.959ZM154.53 117.959H157.56V120.984H154.53V117.959ZM178.77 117.959H181.8V120.984H178.77V117.959ZM184.83 117.959H187.86V133.082H184.83V117.959ZM196.95 117.959H199.98V124.008H196.95V117.959ZM24.24 120.984H27.27V124.008H24.24V120.984ZM36.36 120.984H39.39V136.107H36.36V120.984ZM42.42 120.984H45.45V139.131H42.42V120.984ZM48.48 120.984H51.51V124.008H48.48V120.984ZM54.54 120.984H57.57V124.008H54.54V120.984ZM60.6 120.984H63.63V124.008H60.6V120.984ZM66.66 120.984H69.69V124.008H66.66V120.984ZM72.72 120.984H75.75V124.008H72.72V120.984ZM78.78 120.984H81.81V124.008H78.78V120.984ZM84.84 120.984H87.87V124.008H84.84V120.984ZM103.02 120.984H106.05V124.008H103.02V120.984ZM127.26 120.984H130.29V124.008H127.26V120.984ZM133.32 120.984H136.35V124.008H133.32V120.984ZM139.38 120.984H142.41V124.008H139.38V120.984ZM145.44 120.984H148.47V124.008H145.44V120.984ZM151.5 120.984H154.53V124.008H151.5V120.984ZM157.56 120.984H160.59V124.008H157.56V120.984ZM163.62 120.984H166.65V124.008H163.62V120.984ZM181.8 120.984H184.83V124.008H181.8V120.984ZM187.86 120.984H196.95V124.008H187.86V120.984ZM45.45 124.008H48.48V139.131H45.45V124.008ZM51.51 124.008H54.54V127.033H51.51V124.008ZM63.63 124.008H66.66V127.033H63.63V124.008ZM75.75 124.008H78.78V127.033H75.75V124.008ZM148.47 124.008H151.5V127.033H148.47V124.008ZM187.86 124.008H193.92V127.033H187.86V124.008ZM33.33 127.033H36.36V133.082H33.33V127.033ZM48.48 127.033H51.51V148.205H48.48V127.033ZM54.54 127.033H57.57V130.057H54.54V127.033ZM60.6 127.033H63.63V130.057H60.6V127.033ZM66.66 127.033H69.69V130.057H66.66V127.033ZM72.72 127.033H75.75V130.057H72.72V127.033ZM78.78 127.033H81.81V130.057H78.78V127.033ZM84.84 127.033H87.87V130.057H84.84V127.033ZM139.38 127.033H142.41V130.057H139.38V127.033ZM145.44 127.033H148.47V130.057H145.44V127.033ZM151.5 127.033H154.53V130.057H151.5V127.033ZM157.56 127.033H160.59V130.057H157.56V127.033ZM169.68 127.033H172.71V130.057H169.68V127.033ZM175.74 127.033H178.77V130.057H175.74V127.033ZM181.8 127.033H184.83V130.057H181.8V127.033ZM187.86 127.033H190.89V130.057H187.86V127.033ZM193.92 127.033H196.95V133.082H193.92V127.033ZM51.51 130.057H54.54V151.23H51.51V130.057ZM63.63 130.057H66.66V151.23H63.63V130.057ZM178.77 130.057H181.8V142.156H178.77V130.057ZM190.89 130.057H193.92V133.082H190.89V130.057ZM39.39 133.082H42.42V145.18H39.39V133.082ZM54.54 133.082H57.57V145.18H54.54V133.082ZM60.6 133.082H63.63V154.254H60.6V133.082ZM66.66 133.082H69.69V136.107H66.66V133.082ZM72.72 133.082H75.75V136.107H72.72V133.082ZM78.78 133.082H81.81V136.107H78.78V133.082ZM90.9 133.082H93.93V136.107H90.9V133.082ZM103.02 133.082H106.05V136.107H103.02V133.082ZM127.26 133.082H130.29V136.107H127.26V133.082ZM139.38 133.082H142.41V136.107H139.38V133.082ZM151.5 133.082H154.53V136.107H151.5V133.082ZM163.62 133.082H166.65V136.107H163.62V133.082ZM175.74 133.082H178.77V136.107H175.74V133.082ZM181.8 133.082H184.83V142.156H181.8V133.082ZM57.57 136.107H60.6V157.279H57.57V136.107ZM69.69 136.107H72.72V148.205H69.69V136.107ZM75.75 136.107H78.78V151.23H75.75V136.107ZM87.87 136.107H90.9V145.18H87.87V136.107ZM136.35 136.107H139.38V139.131H136.35V136.107ZM184.83 136.107H187.86V139.131H184.83V136.107ZM36.36 139.131H39.39V142.156H36.36V139.131ZM66.66 139.131H69.69V148.205H66.66V139.131ZM72.72 139.131H75.75V154.254H72.72V139.131ZM78.78 139.131H87.87V142.156H78.78V139.131ZM90.9 139.131H93.93V142.156H90.9V139.131ZM103.02 139.131H106.05V142.156H103.02V139.131ZM151.5 139.131H154.53V142.156H151.5V139.131ZM169.68 139.131H172.71V142.156H169.68V139.131ZM175.74 139.131H178.77V142.156H175.74V139.131ZM187.86 139.131H190.89V145.18H187.86V139.131ZM33.33 142.156H36.36V145.18H33.33V142.156ZM42.42 142.156H48.48V148.205H42.42V142.156ZM78.78 142.156H81.81V148.205H78.78V142.156ZM133.32 142.156H139.38V145.18H133.32V142.156ZM172.71 142.156H175.74V151.23H172.71V142.156ZM184.83 142.156H187.86V145.18H184.83V142.156ZM81.81 145.18H87.87V148.205H81.81V145.18ZM103.02 145.18H106.05V148.205H103.02V145.18ZM139.38 145.18H142.41V148.205H139.38V145.18ZM145.44 145.18H154.53V148.205H145.44V145.18ZM157.56 145.18H160.59V148.205H157.56V145.18ZM163.62 145.18H172.71V148.205H163.62V145.18ZM45.45 148.205H48.48V154.254H45.45V148.205ZM54.54 148.205H57.57V154.254H54.54V148.205ZM142.41 148.205H145.44V151.23H142.41V148.205ZM160.59 148.205H163.62V157.279H160.59V148.205ZM166.65 148.205H169.68V154.254H166.65V148.205ZM66.66 151.23H72.72V154.254H66.66V151.23ZM148.47 151.23H154.53V154.254H148.47V151.23ZM157.56 151.23H160.59V154.254H157.56V151.23ZM175.74 151.23H178.77V154.254H175.74V151.23ZM63.63 154.254H66.66V157.279H63.63V154.254ZM163.62 157.279H166.65V160.303H163.62V157.279Z" fill="#99B1C3"/>
</svg>
