<?xml version="1.0" encoding="UTF-8"?>
<svg id="Layer_1" xmlns="http://www.w3.org/2000/svg" version="1.1" viewBox="0 0 476 342">
  <!-- Generator: Adobe Illustrator 30.2.1, SVG Export Plug-In . SVG Version: 2.1.1 Build 1)  -->
  <path d="M4,162v-2h2v2h-2ZM6,164v-2h2v2h-2ZM6,160v-2h2v2h-2ZM6,156v-2h2v2h-2ZM8,166v-2h2v2h-2ZM8,162v-2h2v2h-2ZM8,158v-2h2v2h-2ZM10,164v-2h2v2h-2ZM12,170v-2h2v2h-2ZM12,166v-2h2v2h-2ZM12,162v-2h2v2h-2ZM12,158v-2h2v2h-2ZM12,154v-2h2v2h-2ZM14,172v-2h2v2h-2ZM14,168v-2h2v2h-2ZM14,164v-2h2v2h-2ZM14,160v-2h2v2h-2ZM16,174v-2h2v2h-2ZM16,170v-2h2v2h-2ZM16,166v-2h2v2h-2ZM16,162v-2h2v2h-2ZM16,158v-2h2v2h-2ZM16,154v-2h2v2h-2ZM18,172v-2h2v2h-2ZM18,168v-2h2v2h-2ZM18,164v-2h2v2h-2ZM18,160v-2h2v2h-2ZM20,174v-2h2v2h-2ZM20,170v-2h2v2h-2ZM20,166v-2h2v2h-2ZM20,162v-2h2v2h-2ZM20,158v-2h2v2h-2ZM20,154v-2h2v2h-2ZM22,172v-2h2v2h-2ZM22,168v-2h10v2h-10ZM22,164v-2h2v2h-2ZM22,160v-2h2v2h-2ZM22,152v-2h2v2h-2ZM24,178v-2h2v2h-2ZM24,174v-2h2v2h-2ZM24,170v-2h2v2h-2ZM24,166v-2h2v2h-2ZM24,162v-2h2v2h-2ZM24,158v-2h2v2h-2ZM24,154v-2h2v2h-2ZM26,180v-2h2v2h-2ZM26,176v-2h22v2h-22ZM26,172v-2h2v2h-2ZM26,164v-2h2v2h-2ZM28,182v-2h2v2h-2ZM28,178v-2h2v2h-2ZM28,174v-2h2v2h-2ZM28,170v-2h2v2h-2ZM28,166v-2h2v2h-2ZM28,162v-2h2v2h-2ZM28,158v-2h2v2h-2ZM28,154v-2h2v2h-2ZM30,180v-2h22v2h-22ZM30,172v-2h22v2h-22ZM30,164v-2h2v2h-2ZM32,182v-2h2v2h-2ZM32,178v-2h2v2h-2ZM32,174v-2h2v2h-2ZM32,170v-2h2v2h-2ZM32,166v-2h2v2h-2ZM32,162v-2h2v2h-2ZM32,158v-2h2v2h-2ZM32,154v-2h2v2h-2ZM32,150v-2h2v2h-2ZM34,184v-2h2v2h-2ZM34,168v-2h2v2h-2ZM34,164v-2h2v2h-2ZM36,186v-2h2v2h-2ZM36,182v-2h2v2h-2ZM36,178v-2h2v2h-2ZM36,174v-2h2v2h-2ZM36,170v-2h2v2h-2ZM36,166v-2h2v2h-2ZM36,162v-2h2v2h-2ZM36,158v-2h2v2h-2ZM36,150v-2h2v2h-2ZM38,184v-2h2v2h-2ZM38,168v-2h2v2h-2ZM40,186v-2h2v2h-2ZM40,182v-2h2v2h-2ZM40,178v-2h2v2h-2ZM40,174v-2h2v2h-2ZM40,170v-2h2v2h-2ZM40,166v-2h2v2h-2ZM40,162v-2h2v2h-2ZM40,158v-2h2v2h-2ZM40,154v-2h2v2h-2ZM40,150v-2h2v2h-2ZM42,184v-2h2v2h-2ZM42,168v-2h2v2h-2ZM44,186v-2h2v2h-2ZM44,182v-2h2v2h-2ZM44,178v-2h2v2h-2ZM44,174v-2h2v2h-2ZM44,170v-2h2v2h-2ZM44,166v-2h2v2h-2ZM44,162v-2h2v2h-2ZM44,158v-2h2v2h-2ZM44,154v-2h2v2h-2ZM44,150v-2h2v2h-2ZM46,188v-2h42v2h-42ZM46,184v-2h2v2h-2ZM46,168v-2h2v2h-2ZM46,164v-2h2v2h-2ZM48,186v-2h2v2h-2ZM48,182v-2h2v2h-2ZM48,178v-2h2v2h-2ZM48,174v-2h2v2h-2ZM48,170v-2h2v2h-2ZM48,166v-2h2v2h-2ZM48,162v-2h2v2h-2ZM48,158v-2h2v2h-2ZM48,154v-2h2v2h-2ZM48,150v-2h2v2h-2ZM50,184v-2h2v2h-2ZM50,176v-2h18v2h-18ZM50,168v-2h2v2h-2ZM50,164v-2h2v2h-2ZM52,190v-2h2v2h-2ZM52,186v-2h2v2h-2ZM52,182v-2h2v2h-2ZM52,178v-2h2v2h-2ZM52,174v-2h2v2h-2ZM52,170v-2h2v2h-2ZM52,166v-2h2v2h-2ZM52,162v-2h2v2h-2ZM52,158v-2h2v2h-2ZM52,154v-2h2v2h-2ZM52,150v-2h2v2h-2ZM54,184v-2h26v2h-26ZM54,180v-2h30v2h-30ZM54,172v-2h2v2h-2ZM54,168v-2h2v2h-2ZM54,156v-2h2v2h-2ZM54,152v-2h6v2h-6ZM56,190v-2h2v2h-2ZM56,186v-2h2v2h-2ZM56,182v-2h2v2h-2ZM56,178v-2h2v2h-2ZM56,174v-2h2v2h-2ZM56,170v-2h2v2h-2ZM56,166v-2h2v2h-2ZM56,162v-2h2v2h-2ZM56,158v-2h2v2h-2ZM56,154v-2h2v2h-2ZM58,172v-2h10v2h-10ZM58,168v-2h2v2h-2ZM60,190v-2h2v2h-2ZM60,186v-2h2v2h-2ZM60,182v-2h2v2h-2ZM60,178v-2h2v2h-2ZM60,174v-2h2v2h-2ZM60,170v-2h2v2h-2ZM60,166v-2h2v2h-2ZM60,162v-2h2v2h-2ZM60,158v-2h2v2h-2ZM60,154v-2h2v2h-2ZM62,168v-2h2v2h-2ZM62,164v-2h2v2h-2ZM62,156v-2h4v2h-4ZM64,190v-2h2v2h-2ZM64,186v-2h2v2h-2ZM64,182v-2h2v2h-2ZM64,178v-2h2v2h-2ZM64,174v-2h2v2h-2ZM64,170v-2h2v2h-2ZM64,166v-2h2v2h-2ZM64,162v-2h2v2h-2ZM64,158v-2h2v2h-2ZM64,154v-2h2v2h-2ZM66,208v-2h10v2h-10ZM66,204v-2h2v2h-2ZM66,200v-2h2v2h-2ZM66,196v-2h2v2h-2ZM66,192v-2h10v2h-10ZM66,168v-2h2v2h-2ZM66,164v-2h2v2h-2ZM68,210v-2h2v2h-2ZM68,206v-2h2v2h-2ZM68,202v-2h2v2h-2ZM68,198v-2h2v2h-2ZM68,194v-2h2v2h-2ZM68,190v-2h2v2h-2ZM68,186v-2h2v2h-2ZM68,182v-2h2v2h-2ZM68,178v-2h2v2h-2ZM68,174v-2h2v2h-2ZM68,170v-2h2v2h-2ZM68,166v-2h2v2h-2ZM68,162v-2h2v2h-2ZM68,158v-2h2v2h-2ZM68,154v-2h2v2h-2ZM70,212v-2h10v2h-10ZM70,204v-2h6v2h-6ZM70,200v-2h2v2h-2ZM70,196v-2h4v2h-4ZM70,176v-2h2v2h-2ZM70,172v-2h2v2h-2ZM70,168v-2h2v2h-2ZM70,156v-2h2v2h-2ZM72,210v-2h2v2h-2ZM72,206v-2h2v2h-2ZM72,202v-2h2v2h-2ZM72,198v-2h2v2h-2ZM72,194v-2h2v2h-2ZM72,190v-2h2v2h-2ZM72,186v-2h2v2h-2ZM72,182v-2h2v2h-2ZM72,178v-2h2v2h-2ZM72,174v-2h2v2h-2ZM72,170v-2h2v2h-2ZM72,166v-2h2v2h-2ZM72,162v-2h2v2h-2ZM72,158v-2h2v2h-2ZM72,154v-2h2v2h-2ZM74,176v-2h6v2h-6ZM74,172v-2h2v2h-2ZM74,168v-2h2v2h-2ZM74,156v-2h2v2h-2ZM74,152v-2h2v2h-2ZM76,214v-2h2v2h-2ZM76,210v-2h2v2h-2ZM76,206v-2h2v2h-2ZM76,194v-2h2v2h-2ZM76,190v-2h2v2h-2ZM76,186v-2h2v2h-2ZM76,182v-2h2v2h-2ZM76,178v-2h2v2h-2ZM76,174v-2h2v2h-2ZM76,170v-2h2v2h-2ZM76,166v-2h2v2h-2ZM76,162v-2h2v2h-2ZM76,158v-2h2v2h-2ZM76,154v-2h2v2h-2ZM76,150v-2h2v2h-2ZM78,216v-2h2v2h-2ZM78,208v-2h2v2h-2ZM78,192v-2h22v2h-22ZM78,172v-2h2v2h-2ZM78,168v-2h2v2h-2ZM78,156v-2h6v2h-6ZM78,152v-2h6v2h-6ZM78,148v-2h2v2h-2ZM80,218v-2h2v2h-2ZM80,214v-2h2v2h-2ZM80,210v-2h2v2h-2ZM80,194v-2h2v2h-2ZM80,190v-2h2v2h-2ZM80,186v-2h2v2h-2ZM80,182v-2h2v2h-2ZM80,178v-2h2v2h-2ZM80,174v-2h2v2h-2ZM80,170v-2h2v2h-2ZM80,166v-2h2v2h-2ZM80,162v-2h2v2h-2ZM80,158v-2h2v2h-2ZM80,154v-2h2v2h-2ZM80,150v-2h2v2h-2ZM80,146v-2h2v2h-2ZM80,142v-2h2v2h-2ZM82,216v-2h2v2h-2ZM82,212v-2h2v2h-2ZM82,208v-2h2v2h-2ZM82,184v-2h2v2h-2ZM82,176v-2h2v2h-2ZM82,172v-2h2v2h-2ZM82,168v-2h2v2h-2ZM82,148v-2h2v2h-2ZM82,144v-2h2v2h-2ZM82,140v-2h2v2h-2ZM84,218v-2h2v2h-2ZM84,214v-2h2v2h-2ZM84,210v-2h2v2h-2ZM84,194v-2h2v2h-2ZM84,190v-2h2v2h-2ZM84,186v-2h2v2h-2ZM84,182v-2h2v2h-2ZM84,178v-2h2v2h-2ZM84,174v-2h2v2h-2ZM84,170v-2h2v2h-2ZM84,166v-2h2v2h-2ZM84,162v-2h2v2h-2ZM84,158v-2h2v2h-2ZM84,150v-2h2v2h-2ZM84,146v-2h2v2h-2ZM84,142v-2h2v2h-2ZM86,196v-2h2v2h-2ZM86,184v-2h6v2h-6ZM86,180v-2h2v2h-2ZM86,176v-2h2v2h-2ZM86,144v-2h2v2h-2ZM88,210v-2h2v2h-2ZM88,198v-2h2v2h-2ZM88,194v-2h2v2h-2ZM88,190v-2h2v2h-2ZM88,186v-2h2v2h-2ZM88,182v-2h2v2h-2ZM88,178v-2h2v2h-2ZM88,174v-2h2v2h-2ZM88,170v-2h2v2h-2ZM88,166v-2h2v2h-2ZM88,162v-2h2v2h-2ZM88,158v-2h2v2h-2ZM88,142v-2h2v2h-2ZM88,138v-2h2v2h-2ZM90,196v-2h26v2h-26ZM90,188v-2h10v2h-10ZM90,160v-2h2v2h-2ZM90,140v-2h2v2h-2ZM90,136v-2h2v2h-2ZM92,198v-2h2v2h-2ZM92,194v-2h2v2h-2ZM92,190v-2h2v2h-2ZM92,186v-2h2v2h-2ZM92,182v-10h2v10h-2ZM92,170v-2h2v2h-2ZM92,166v-2h2v2h-2ZM92,162v-2h2v2h-2ZM92,158v-2h2v2h-2ZM92,142v-2h2v2h-2ZM92,138v-2h2v2h-2ZM94,184v-2h2v2h-2ZM94,180v-2h2v2h-2ZM94,176v-2h2v2h-2ZM94,172v-2h2v2h-2ZM94,168v-2h2v2h-2ZM94,140v-2h2v2h-2ZM94,136v-2h2v2h-2ZM96,198v-2h2v2h-2ZM96,194v-2h2v2h-2ZM96,190v-2h2v2h-2ZM96,186v-2h2v2h-2ZM96,182v-2h2v2h-2ZM96,178v-2h2v2h-2ZM96,174v-2h2v2h-2ZM96,170v-2h2v2h-2ZM96,166v-2h2v2h-2ZM96,162v-2h2v2h-2ZM96,142v-2h2v2h-2ZM96,138v-2h2v2h-2ZM96,134v-2h2v2h-2ZM98,312v-2h2v2h-2ZM98,200v-2h2v2h-2ZM98,184v-2h2v2h-2ZM98,180v-2h2v2h-2ZM98,176v-2h2v2h-2ZM98,168v-2h2v2h-2ZM98,160v-2h2v2h-2ZM98,140v-2h2v2h-2ZM98,136v-2h2v2h-2ZM100,314v-2h2v2h-2ZM100,310v-2h2v2h-2ZM100,198v-2h2v2h-2ZM100,194v-2h2v2h-2ZM100,190v-2h2v2h-2ZM100,186v-2h2v2h-2ZM100,182v-2h2v2h-2ZM100,178v-2h2v2h-2ZM100,174v-2h2v2h-2ZM100,170v-2h2v2h-2ZM100,166v-2h2v2h-2ZM100,162v-2h2v2h-2ZM100,138v-2h2v2h-2ZM100,130v-2h2v2h-2ZM102,316v-2h30v2h-30ZM102,312v-2h2v2h-2ZM102,308v-2h2v2h-2ZM102,200v-2h2v2h-2ZM102,192v-2h2v2h-2ZM102,188v-2h2v2h-2ZM102,184v-2h2v2h-2ZM102,180v-2h4v2h-4ZM102,176v-2h2v2h-2ZM102,172v-2h2v2h-2ZM102,168v-2h2v2h-2ZM104,314v-2h2v2h-2ZM104,310v-2h2v2h-2ZM104,202v-2h2v2h-2ZM104,198v-2h2v2h-2ZM104,194v-2h2v2h-2ZM104,190v-2h2v2h-2ZM104,186v-2h2v2h-2ZM104,182v-2h2v2h-2ZM104,178v-2h2v2h-2ZM104,174v-2h2v2h-2ZM104,170v-2h2v2h-2ZM104,166v-2h2v2h-2ZM104,162v-2h2v2h-2ZM104,134v-2h2v2h-2ZM106,312v-2h6v2h-6ZM106,308v-2h2v2h-2ZM106,304v-2h2v2h-2ZM106,200v-2h6v2h-6ZM106,192v-2h10v2h-10ZM106,188v-2h26v2h-26ZM106,184v-2h2v2h-2ZM106,176v-2h2v2h-2ZM106,172v-2h2v2h-2ZM106,168v-2h2v2h-2ZM106,160v-2h2v2h-2ZM106,44v-2h2v2h-2ZM108,314v-2h2v2h-2ZM108,310v-2h2v2h-2ZM108,306v-2h2v2h-2ZM108,202v-2h2v2h-2ZM108,198v-2h2v2h-2ZM108,194v-2h2v2h-2ZM108,190v-2h2v2h-2ZM108,186v-2h2v2h-2ZM108,182v-2h2v2h-2ZM108,178v-2h2v2h-2ZM108,174v-2h2v2h-2ZM108,170v-2h2v2h-2ZM108,166v-2h2v2h-2ZM108,162v-2h2v2h-2ZM108,46v-2h2v2h-2ZM108,42v-2h2v2h-2ZM110,308v-2h2v2h-2ZM110,304v-2h2v2h-2ZM110,300v-2h2v2h-2ZM110,184v-2h6v2h-6ZM110,180v-2h2v2h-2ZM110,176v-2h2v2h-2ZM110,44v-2h2v2h-2ZM112,314v-2h2v2h-2ZM112,310v-2h2v2h-2ZM112,306v-2h2v2h-2ZM112,302v-2h2v2h-2ZM112,202v-2h2v2h-2ZM112,198v-2h2v2h-2ZM112,194v-2h2v2h-2ZM112,190v-2h2v2h-2ZM112,186v-2h2v2h-2ZM112,182v-2h2v2h-2ZM112,178v-2h2v2h-2ZM112,174v-2h2v2h-2ZM112,170v-2h2v2h-2ZM112,166v-2h2v2h-2ZM112,162v-2h2v2h-2ZM112,46v-2h2v2h-2ZM112,42v-2h2v2h-2ZM112,38v-2h2v2h-2ZM114,312v-2h6v2h-6ZM114,308v-2h2v2h-2ZM114,304v-2h2v2h-2ZM114,296v-2h6v2h-6ZM114,200v-2h2v2h-2ZM114,180v-2h2v2h-2ZM116,318v-2h2v2h-2ZM116,314v-2h2v2h-2ZM116,310v-2h2v2h-2ZM116,306v-2h2v2h-2ZM116,302v-2h2v2h-2ZM116,298v-2h2v2h-2ZM116,202v-2h2v2h-2ZM116,198v-2h2v2h-2ZM116,194v-2h2v2h-2ZM116,190v-2h2v2h-2ZM116,186v-2h2v2h-2ZM116,182v-2h2v2h-2ZM116,178v-2h2v2h-2ZM116,174v-2h2v2h-2ZM116,170v-2h2v2h-2ZM116,166v-2h2v2h-2ZM116,162v-2h2v2h-2ZM116,46v-2h2v2h-2ZM116,42v-2h2v2h-2ZM116,38v-2h2v2h-2ZM116,34v-2h2v2h-2ZM118,308v-2h2v2h-2ZM118,304v-2h2v2h-2ZM118,300v-2h2v2h-2ZM118,200v-2h2v2h-2ZM118,196v-2h6v2h-6ZM118,192v-2h10v2h-10ZM118,184v-2h10v2h-10ZM118,180v-2h2v2h-2ZM118,176v-2h2v2h-2ZM118,44v-2h10v2h-10ZM118,40v-2h2v2h-2ZM120,318v-2h2v2h-2ZM120,314v-2h2v2h-2ZM120,310v-2h2v2h-2ZM120,306v-2h2v2h-2ZM120,302v-2h2v2h-2ZM120,298v-2h2v2h-2ZM120,294v-2h2v2h-2ZM120,202v-2h2v2h-2ZM120,198v-2h2v2h-2ZM120,194v-2h2v2h-2ZM120,190v-2h2v2h-2ZM120,186v-2h2v2h-2ZM120,182v-2h2v2h-2ZM120,178v-2h2v2h-2ZM120,174v-2h2v2h-2ZM120,170v-2h2v2h-2ZM120,166v-2h2v2h-2ZM120,162v-2h2v2h-2ZM120,46v-2h2v2h-2ZM120,42v-2h2v2h-2ZM120,38v-2h2v2h-2ZM120,34v-2h2v2h-2ZM120,30v-2h2v2h-2ZM122,312v-2h2v2h-2ZM122,308v-2h2v2h-2ZM122,304v-2h2v2h-2ZM122,300v-2h2v2h-2ZM122,292v-2h2v2h-2ZM122,204v-2h2v2h-2ZM122,200v-2h2v2h-2ZM122,180v-2h14v2h-14ZM122,176v-2h2v2h-2ZM122,172v-2h2v2h-2ZM122,40v-2h2v2h-2ZM122,36v-2h2v2h-2ZM124,318v-2h2v2h-2ZM124,314v-2h2v2h-2ZM124,310v-2h2v2h-2ZM124,306v-2h2v2h-2ZM124,302v-2h2v2h-2ZM124,298v-2h2v2h-2ZM124,294v-2h2v2h-2ZM124,286v-2h2v2h-2ZM124,282v-2h2v2h-2ZM124,202v-2h2v2h-2ZM124,198v-2h2v2h-2ZM124,194v-2h2v2h-2ZM124,190v-2h2v2h-2ZM124,186v-2h2v2h-2ZM124,182v-2h2v2h-2ZM124,178v-2h2v2h-2ZM124,174v-2h2v2h-2ZM124,170v-2h2v2h-2ZM124,166v-2h2v2h-2ZM124,162v-2h2v2h-2ZM124,46v-2h2v2h-2ZM124,42v-2h2v2h-2ZM124,38v-2h2v2h-2ZM124,34v-2h2v2h-2ZM124,30v-2h2v2h-2ZM126,312v-2h2v2h-2ZM126,308v-2h6v2h-6ZM126,304v-2h6v2h-6ZM126,300v-2h2v2h-2ZM126,292v-2h2v2h-2ZM126,204v-2h2v2h-2ZM126,200v-2h6v2h-6ZM126,196v-2h4v2h-4ZM126,172v-2h2v2h-2ZM126,168v-2h2v2h-2ZM126,164v-2h2v2h-2ZM126,40v-2h10v2h-10ZM126,36v-2h22v2h-22ZM128,314v-2h2v2h-2ZM128,310v-2h2v2h-2ZM128,306v-2h2v2h-2ZM128,302v-2h2v2h-2ZM128,298v-2h2v2h-2ZM128,294v-2h2v2h-2ZM128,290v-2h2v2h-2ZM128,286v-2h2v2h-2ZM128,282v-2h2v2h-2ZM128,202v-2h2v2h-2ZM128,198v-2h2v2h-2ZM128,194v-2h2v2h-2ZM128,190v-2h2v2h-2ZM128,186v-2h2v2h-2ZM128,182v-2h2v2h-2ZM128,178v-2h2v2h-2ZM128,174v-2h2v2h-2ZM128,170v-2h2v2h-2ZM128,166v-2h2v2h-2ZM128,162v-2h2v2h-2ZM128,42v-2h2v2h-2ZM128,38v-2h2v2h-2ZM128,34v-2h2v2h-2ZM128,30v-2h2v2h-2ZM130,312v-2h2v2h-2ZM130,300v-2h2v2h-2ZM130,296v-2h2v2h-2ZM130,292v-2h2v2h-2ZM130,284v-2h2v2h-2ZM130,280v-2h2v2h-2ZM130,204v-2h2v2h-2ZM130,192v-2h4v2h-4ZM130,184v-2h18v2h-18ZM130,32v-2h2v2h-2ZM132,314v-2h2v2h-2ZM132,310v-2h2v2h-2ZM132,306v-2h2v2h-2ZM132,302v-2h2v2h-2ZM132,298v-2h2v2h-2ZM132,294v-2h2v2h-2ZM132,290v-2h2v2h-2ZM132,282v-2h2v2h-2ZM132,206v-2h2v2h-2ZM132,202v-2h2v2h-2ZM132,198v-6h2v6h-2ZM132,190v-2h2v2h-2ZM132,186v-2h2v2h-2ZM132,182v-2h2v2h-2ZM132,178v-2h2v2h-2ZM132,174v-2h2v2h-2ZM132,170v-2h2v2h-2ZM132,166v-2h2v2h-2ZM132,162v-2h2v2h-2ZM132,42v-2h2v2h-2ZM132,38v-2h2v2h-2ZM132,34v-2h2v2h-2ZM132,30v-2h2v2h-2ZM132,26v-2h2v2h-2ZM134,312v-2h2v2h-2ZM134,308v-2h6v2h-6ZM134,304v-2h2v2h-2ZM134,300v-2h2v2h-2ZM134,296v-2h6v2h-6ZM134,280v-2h2v2h-2ZM134,204v-2h2v2h-2ZM134,200v-2h38v2h-38ZM134,196v-2h2v2h-2ZM134,188v-2h26v2h-26ZM134,176v-2h2v2h-2ZM134,172v-2h2v2h-2ZM134,168v-2h2v2h-2ZM134,164v-2h2v2h-2ZM134,32v-2h26v2h-26ZM136,326v-2h2v2h-2ZM136,314v-2h2v2h-2ZM136,310v-2h2v2h-2ZM136,306v-2h2v2h-2ZM136,302v-2h2v2h-2ZM136,298v-2h2v2h-2ZM136,294v-2h2v2h-2ZM136,290v-2h2v2h-2ZM136,282v-2h2v2h-2ZM136,206v-2h2v2h-2ZM136,202v-2h2v2h-2ZM136,198v-2h2v2h-2ZM136,194v-2h2v2h-2ZM136,190v-2h2v2h-2ZM136,186v-2h2v2h-2ZM136,182v-2h2v2h-2ZM136,178v-2h2v2h-2ZM136,174v-2h2v2h-2ZM136,170v-2h2v2h-2ZM136,166v-2h2v2h-2ZM136,162v-2h2v2h-2ZM136,42v-2h2v2h-2ZM136,38v-2h2v2h-2ZM136,34v-2h2v2h-2ZM136,30v-2h2v2h-2ZM136,26v-2h2v2h-2ZM138,312v-2h6v2h-6ZM138,304v-2h2v2h-2ZM138,300v-2h10v2h-10ZM138,288v-2h2v2h-2ZM138,280v-2h2v2h-2ZM138,204v-2h10v2h-10ZM138,196v-2h10v2h-10ZM138,192v-2h6v2h-6ZM138,180v-2h2v2h-2ZM138,176v-2h2v2h-2ZM138,172v-2h2v2h-2ZM138,40v-2h2v2h-2ZM138,28v-2h6v2h-6ZM140,326v-2h2v2h-2ZM140,322v-2h2v2h-2ZM140,318v-2h2v2h-2ZM140,314v-2h2v2h-2ZM140,310v-2h2v2h-2ZM140,306v-2h2v2h-2ZM140,302v-2h2v2h-2ZM140,298v-2h2v2h-2ZM140,294v-2h2v2h-2ZM140,290v-2h2v2h-2ZM140,286v-2h2v2h-2ZM140,282v-2h2v2h-2ZM140,278v-2h2v2h-2ZM140,206v-2h2v2h-2ZM140,202v-2h2v2h-2ZM140,198v-2h2v2h-2ZM140,194v-2h2v2h-2ZM140,190v-2h2v2h-2ZM140,186v-2h2v2h-2ZM140,182v-2h2v2h-2ZM140,178v-2h2v2h-2ZM140,174v-2h2v2h-2ZM140,170v-2h2v2h-2ZM140,166v-2h2v2h-2ZM140,162v-2h2v2h-2ZM140,38v-2h2v2h-2ZM140,34v-2h2v2h-2ZM140,30v-2h2v2h-2ZM140,26v-2h2v2h-2ZM142,308v-2h2v2h-2ZM142,304v-2h2v2h-2ZM142,296v-2h2v2h-2ZM142,292v-2h2v2h-2ZM142,288v-2h2v2h-2ZM142,284v-2h2v2h-2ZM142,280v-2h2v2h-2ZM142,180v-2h2v2h-2ZM142,176v-2h2v2h-2ZM142,172v-2h2v2h-2ZM144,322v-2h2v2h-2ZM144,318v-2h2v2h-2ZM144,310v-2h2v2h-2ZM144,306v-2h2v2h-2ZM144,302v-2h2v2h-2ZM144,298v-2h2v2h-2ZM144,294v-2h2v2h-2ZM144,290v-2h2v2h-2ZM144,286v-2h2v2h-2ZM144,282v-2h2v2h-2ZM144,206v-2h2v2h-2ZM144,202v-2h2v2h-2ZM144,198v-2h2v2h-2ZM144,194v-2h2v2h-2ZM144,190v-2h2v2h-2ZM144,186v-2h2v2h-2ZM144,182v-2h2v2h-2ZM144,178v-2h2v2h-2ZM144,174v-2h2v2h-2ZM144,170v-2h2v2h-2ZM144,166v-2h2v2h-2ZM144,162v-2h2v2h-2ZM144,38v-2h2v2h-2ZM144,34v-2h2v2h-2ZM144,30v-2h2v2h-2ZM144,26v-2h2v2h-2ZM144,22v-2h2v2h-2ZM144,18v-2h2v2h-2ZM146,320v-2h6v2h-6ZM146,312v-2h6v2h-6ZM146,304v-2h10v2h-10ZM146,296v-2h2v2h-2ZM146,292v-2h2v2h-2ZM146,192v-2h2v2h-2ZM146,180v-2h6v2h-6ZM146,176v-2h2v2h-2ZM146,172v-2h2v2h-2ZM146,164v-2h2v2h-2ZM146,160v-2h2v2h-2ZM146,28v-2h6v2h-6ZM148,322v-2h2v2h-2ZM148,318v-2h2v2h-2ZM148,314v-2h2v2h-2ZM148,310v-2h2v2h-2ZM148,306v-2h2v2h-2ZM148,302v-2h2v2h-2ZM148,298v-2h2v2h-2ZM148,294v-2h2v2h-2ZM148,290v-2h2v2h-2ZM148,286v-2h2v2h-2ZM148,206v-2h2v2h-2ZM148,202v-2h2v2h-2ZM148,198v-2h2v2h-2ZM148,194v-2h2v2h-2ZM148,190v-2h2v2h-2ZM148,186v-2h2v2h-2ZM148,182v-2h2v2h-2ZM148,178v-2h2v2h-2ZM148,174v-2h2v2h-2ZM148,170v-2h2v2h-2ZM148,166v-2h2v2h-2ZM148,162v-2h2v2h-2ZM148,42v-2h2v2h-2ZM148,38v-2h2v2h-2ZM148,34v-2h2v2h-2ZM148,30v-2h2v2h-2ZM148,26v-2h2v2h-2ZM148,22v-2h2v2h-2ZM150,316v-2h2v2h-2ZM150,308v-2h8v2h-8ZM150,300v-2h2v2h-2ZM150,296v-2h6v2h-6ZM150,292v-2h10v2h-10ZM150,284v-2h2v2h-2ZM150,204v-2h2v2h-2ZM150,196v-2h22v2h-22ZM150,192v-2h18v2h-18ZM150,184v-2h2v2h-2ZM150,172v-2h2v2h-2ZM150,164v-2h2v2h-2ZM150,36v-2h2v2h-2ZM150,24v-2h2v2h-2ZM152,318v-2h2v2h-2ZM152,314v-2h2v2h-2ZM152,310v-2h2v2h-2ZM152,306v-2h2v2h-2ZM152,302v-2h2v2h-2ZM152,298v-2h2v2h-2ZM152,294v-2h2v2h-2ZM152,290v-2h2v2h-2ZM152,286v-2h2v2h-2ZM152,206v-2h2v2h-2ZM152,202v-2h2v2h-2ZM152,198v-2h2v2h-2ZM152,194v-2h2v2h-2ZM152,190v-2h2v2h-2ZM152,186v-2h2v2h-2ZM152,182v-2h2v2h-2ZM152,178v-2h2v2h-2ZM152,174v-2h2v2h-2ZM152,170v-2h2v2h-2ZM152,166v-2h2v2h-2ZM152,162v-2h2v2h-2ZM152,34v-2h2v2h-2ZM152,30v-2h2v2h-2ZM152,26v-2h2v2h-2ZM152,22v-2h2v2h-2ZM154,300v-2h2v2h-2ZM154,288v-2h2v2h-2ZM154,204v-2h6v2h-6ZM154,184v-2h4v2h-4ZM154,180v-2h2v2h-2ZM154,176v-2h2v2h-2ZM154,172v-2h2v2h-2ZM154,160v-2h2v2h-2ZM154,28v-2h2v2h-2ZM154,24v-2h2v2h-2ZM156,306v-2h2v2h-2ZM156,302v-2h2v2h-2ZM156,298v-2h2v2h-2ZM156,294v-2h2v2h-2ZM156,290v-2h2v2h-2ZM156,286v-2h2v2h-2ZM156,282v-2h2v2h-2ZM156,206v-2h2v2h-2ZM156,202v-2h2v2h-2ZM156,198v-2h2v2h-2ZM156,194v-2h2v2h-2ZM156,190v-2h2v2h-2ZM156,186v-2h2v2h-2ZM156,182v-2h2v2h-2ZM156,178v-2h2v2h-2ZM156,174v-2h2v2h-2ZM156,170v-2h2v2h-2ZM156,166v-2h2v2h-2ZM156,162v-2h2v2h-2ZM156,158v-2h2v2h-2ZM156,34v-2h2v2h-2ZM156,30v-2h2v2h-2ZM156,26v-2h2v2h-2ZM156,22v-2h2v2h-2ZM156,18v-2h2v2h-2ZM158,300v-2h10v2h-10ZM158,296v-2h6v2h-6ZM158,288v-2h10v2h-10ZM158,280v-2h2v2h-2ZM158,180v-2h2v2h-2ZM158,176v-2h2v2h-2ZM158,168v-2h2v2h-2ZM158,164v-2h2v2h-2ZM158,28v-2h10v2h-10ZM158,24v-2h2v2h-2ZM158,20v-2h2v2h-2ZM160,306v-2h2v2h-2ZM160,302v-2h2v2h-2ZM160,298v-2h2v2h-2ZM160,294v-2h2v2h-2ZM160,290v-2h2v2h-2ZM160,286v-2h2v2h-2ZM160,282v-2h2v2h-2ZM160,202v-2h2v2h-2ZM160,198v-2h2v2h-2ZM160,194v-2h2v2h-2ZM160,190v-2h2v2h-2ZM160,186v-2h2v2h-2ZM160,182v-2h2v2h-2ZM160,178v-2h2v2h-2ZM160,174v-2h2v2h-2ZM160,170v-2h2v2h-2ZM160,166v-2h2v2h-2ZM160,162v-2h2v2h-2ZM160,158v-2h2v2h-2ZM160,34v-2h2v2h-2ZM160,30v-2h2v2h-2ZM160,26v-2h2v2h-2ZM160,22v-2h2v2h-2ZM160,18v-2h2v2h-2ZM162,304v-2h2v2h-2ZM162,292v-2h2v2h-2ZM162,280v-2h2v2h-2ZM162,204v-2h2v2h-2ZM162,188v-2h6v2h-6ZM162,184v-2h2v2h-2ZM162,180v-2h2v2h-2ZM162,176v-2h6v2h-6ZM162,172v-2h2v2h-2ZM162,168v-2h2v2h-2ZM162,164v-2h2v2h-2ZM162,160v-2h2v2h-2ZM162,32v-2h2v2h-2ZM162,24v-2h14v2h-14ZM162,16v-2h2v2h-2ZM164,306v-2h2v2h-2ZM164,302v-2h2v2h-2ZM164,298v-2h2v2h-2ZM164,294v-2h2v2h-2ZM164,290v-2h2v2h-2ZM164,286v-2h2v2h-2ZM164,282v-2h2v2h-2ZM164,202v-2h2v2h-2ZM164,198v-2h2v2h-2ZM164,194v-2h2v2h-2ZM164,190v-2h2v2h-2ZM164,186v-2h2v2h-2ZM164,182v-2h2v2h-2ZM164,178v-2h2v2h-2ZM164,174v-2h2v2h-2ZM164,170v-2h2v2h-2ZM164,166v-2h2v2h-2ZM164,162v-2h2v2h-2ZM164,158v-2h2v2h-2ZM164,34v-2h2v2h-2ZM164,30v-2h2v2h-2ZM164,26v-2h2v2h-2ZM164,22v-2h2v2h-2ZM164,18v-2h2v2h-2ZM166,304v-2h14v2h-14ZM166,296v-2h2v2h-2ZM166,292v-2h2v2h-2ZM166,184v-2h10v2h-10ZM166,180v-2h6v2h-6ZM166,172v-2h2v2h-2ZM166,32v-2h2v2h-2ZM168,306v-2h2v2h-2ZM168,302v-2h2v2h-2ZM168,298v-2h2v2h-2ZM168,294v-2h2v2h-2ZM168,290v-2h2v2h-2ZM168,286v-2h2v2h-2ZM168,282v-2h2v2h-2ZM168,278v-2h2v2h-2ZM168,202v-2h2v2h-2ZM168,198v-2h2v2h-2ZM168,194v-2h2v2h-2ZM168,190v-2h2v2h-2ZM168,186v-2h2v2h-2ZM168,182v-2h2v2h-2ZM168,178v-2h2v2h-2ZM168,174v-2h2v2h-2ZM168,166v-2h2v2h-2ZM168,162v-2h2v2h-2ZM168,158v-2h2v2h-2ZM168,34v-2h2v2h-2ZM168,30v-2h2v2h-2ZM168,26v-2h2v2h-2ZM168,22v-2h2v2h-2ZM168,18v-2h2v2h-2ZM170,300v-2h2v2h-2ZM170,296v-2h18v2h-18ZM170,292v-2h6v2h-6ZM170,288v-2h6v2h-6ZM170,284v-2h2v2h-2ZM170,276v-2h10v2h-10ZM170,188v-2h2v2h-2ZM170,176v-2h2v2h-2ZM170,172v-2h2v2h-2ZM170,32v-2h2v2h-2ZM170,28v-2h2v2h-2ZM170,20v-2h2v2h-2ZM172,302v-2h2v2h-2ZM172,298v-2h2v2h-2ZM172,294v-2h2v2h-2ZM172,290v-2h2v2h-2ZM172,286v-2h2v2h-2ZM172,282v-2h2v2h-2ZM172,278v-2h2v2h-2ZM172,202v-2h2v2h-2ZM172,198v-2h2v2h-2ZM172,194v-6h2v6h-2ZM172,186v-2h2v2h-2ZM172,182v-2h2v2h-2ZM172,178v-2h2v2h-2ZM172,174v-2h2v2h-2ZM172,170v-2h2v2h-2ZM172,166v-2h2v2h-2ZM172,162v-2h2v2h-2ZM172,158v-2h2v2h-2ZM172,154v-2h2v2h-2ZM172,34v-2h2v2h-2ZM172,30v-2h2v2h-2ZM172,26v-2h2v2h-2ZM172,22v-2h2v2h-2ZM172,18v-2h2v2h-2ZM174,284v-2h6v2h-6ZM174,200v-2h2v2h-2ZM174,196v-2h14v2h-14ZM174,192v-2h6v2h-6ZM174,188v-2h10v2h-10ZM174,180v-2h2v2h-2ZM174,176v-2h2v2h-2ZM174,32v-2h2v2h-2ZM174,28v-2h2v2h-2ZM174,20v-2h2v2h-2ZM176,302v-2h2v2h-2ZM176,298v-2h2v2h-2ZM176,294v-2h2v2h-2ZM176,290v-2h2v2h-2ZM176,286v-2h2v2h-2ZM176,282v-2h2v2h-2ZM176,278v-2h2v2h-2ZM176,202v-2h2v2h-2ZM176,198v-2h2v2h-2ZM176,194v-2h2v2h-2ZM176,190v-2h2v2h-2ZM176,186v-2h2v2h-2ZM176,182v-2h2v2h-2ZM176,178v-2h2v2h-2ZM176,174v-2h2v2h-2ZM176,170v-2h2v2h-2ZM176,166v-2h2v2h-2ZM176,162v-2h2v2h-2ZM176,158v-2h2v2h-2ZM176,154v-2h2v2h-2ZM176,34v-2h2v2h-2ZM176,30v-2h2v2h-2ZM176,26v-2h2v2h-2ZM176,22v-2h2v2h-2ZM176,18v-2h2v2h-2ZM176,14v-2h2v2h-2ZM178,292v-2h2v2h-2ZM178,288v-2h2v2h-2ZM178,200v-2h2v2h-2ZM178,184v-2h6v2h-6ZM178,180v-2h2v2h-2ZM178,168v-2h2v2h-2ZM178,156v-2h2v2h-2ZM178,32v-2h2v2h-2ZM178,28v-2h2v2h-2ZM178,24v-2h2v2h-2ZM178,20v-2h10v2h-10ZM180,302v-2h2v2h-2ZM180,298v-2h2v2h-2ZM180,294v-2h2v2h-2ZM180,290v-2h2v2h-2ZM180,286v-2h2v2h-2ZM180,282v-2h2v2h-2ZM180,278v-2h2v2h-2ZM180,274v-2h2v2h-2ZM180,198v-2h2v2h-2ZM180,194v-2h2v2h-2ZM180,190v-2h2v2h-2ZM180,186v-2h2v2h-2ZM180,182v-2h2v2h-2ZM180,178v-2h2v2h-2ZM180,174v-2h2v2h-2ZM180,170v-2h2v2h-2ZM180,162v-2h2v2h-2ZM180,158v-2h2v2h-2ZM180,154v-2h2v2h-2ZM180,34v-2h2v2h-2ZM180,30v-2h2v2h-2ZM180,26v-2h2v2h-2ZM180,22v-2h2v2h-2ZM180,18v-2h2v2h-2ZM180,14v-2h2v2h-2ZM182,304v-2h2v2h-2ZM182,292v-2h14v2h-14ZM182,288v-2h10v2h-10ZM182,284v-2h2v2h-2ZM182,276v-2h2v2h-2ZM182,200v-2h2v2h-2ZM182,192v-2h18v2h-18ZM182,180v-2h2v2h-2ZM182,176v-2h2v2h-2ZM182,172v-2h6v2h-6ZM182,168v-2h2v2h-2ZM182,164v-2h2v2h-2ZM182,156v-2h2v2h-2ZM182,152v-2h2v2h-2ZM182,32v-2h2v2h-2ZM182,28v-2h2v2h-2ZM182,24v-2h14v2h-14ZM184,302v-2h2v2h-2ZM184,298v-2h2v2h-2ZM184,294v-2h2v2h-2ZM184,290v-2h2v2h-2ZM184,286v-2h2v2h-2ZM184,282v-2h2v2h-2ZM184,278v-2h2v2h-2ZM184,274v-2h6v2h-6ZM184,198v-2h2v2h-2ZM184,194v-2h2v2h-2ZM184,190v-2h2v2h-2ZM184,186v-2h2v2h-2ZM184,182v-2h2v2h-2ZM184,178v-2h2v2h-2ZM184,174v-2h2v2h-2ZM184,170v-2h2v2h-2ZM184,166v-2h2v2h-2ZM184,162v-2h2v2h-2ZM184,158v-2h2v2h-2ZM184,154v-2h2v2h-2ZM184,34v-2h2v2h-2ZM184,30v-2h2v2h-2ZM184,26v-2h2v2h-2ZM184,22v-2h2v2h-2ZM184,18v-2h2v2h-2ZM184,14v-2h2v2h-2ZM186,304v-2h2v2h-2ZM186,284v-2h2v2h-2ZM186,280v-2h2v2h-2ZM186,276v-2h2v2h-2ZM186,272v-2h2v2h-2ZM186,188v-2h2v2h-2ZM186,184v-2h6v2h-6ZM186,180v-2h2v2h-2ZM186,176v-2h2v2h-2ZM186,164v-2h2v2h-2ZM186,160v-2h2v2h-2ZM186,32v-2h2v2h-2ZM186,28v-2h10v2h-10ZM188,302v-2h2v2h-2ZM188,298v-2h2v2h-2ZM188,294v-2h2v2h-2ZM188,290v-2h2v2h-2ZM188,286v-2h2v2h-2ZM188,282v-2h2v2h-2ZM188,278v-2h2v2h-2ZM188,198v-2h2v2h-2ZM188,194v-2h2v2h-2ZM188,190v-2h2v2h-2ZM188,186v-2h2v2h-2ZM188,182v-2h2v2h-2ZM188,178v-2h2v2h-2ZM188,174v-2h2v2h-2ZM188,170v-2h2v2h-2ZM188,166v-2h2v2h-2ZM188,162v-2h2v2h-2ZM188,158v-2h2v2h-2ZM188,154v-2h2v2h-2ZM188,150v-2h2v2h-2ZM188,34v-2h2v2h-2ZM188,30v-2h2v2h-2ZM188,26v-2h2v2h-2ZM188,22v-2h2v2h-2ZM188,18v-2h2v2h-2ZM190,304v-2h2v2h-2ZM190,300v-2h2v2h-2ZM190,296v-2h2v2h-2ZM190,284v-2h2v2h-2ZM190,280v-2h2v2h-2ZM190,272v-2h2v2h-2ZM190,196v-2h2v2h-2ZM190,188v-2h30v2h-30ZM190,180v-2h14v2h-14ZM190,176v-2h2v2h-2ZM190,172v-2h2v2h-2ZM190,168v-2h2v2h-2ZM190,164v-2h2v2h-2ZM190,160v-2h2v2h-2ZM190,32v-2h18v2h-18ZM190,20v-2h2v2h-2ZM192,302v-2h2v2h-2ZM192,298v-2h2v2h-2ZM192,294v-2h2v2h-2ZM192,290v-2h2v2h-2ZM192,286v-2h2v2h-2ZM192,282v-2h2v2h-2ZM192,278v-2h2v2h-2ZM192,274v-2h2v2h-2ZM192,198v-2h2v2h-2ZM192,194v-2h2v2h-2ZM192,190v-2h2v2h-2ZM192,186v-2h2v2h-2ZM192,182v-2h2v2h-2ZM192,178v-2h2v2h-2ZM192,174v-2h2v2h-2ZM192,170v-2h2v2h-2ZM192,166v-2h2v2h-2ZM192,162v-2h2v2h-2ZM192,158v-2h2v2h-2ZM192,150v-2h2v2h-2ZM192,34v-2h2v2h-2ZM192,30v-2h2v2h-2ZM192,26v-2h2v2h-2ZM192,22v-2h2v2h-2ZM192,18v-2h2v2h-2ZM194,304v-2h18v2h-18ZM194,300v-2h2v2h-2ZM194,296v-2h6v2h-6ZM194,288v-2h6v2h-6ZM194,284v-2h2v2h-2ZM194,280v-2h2v2h-2ZM194,276v-2h2v2h-2ZM194,272v-2h26v2h-26ZM194,196v-2h2v2h-2ZM194,184v-2h10v2h-10ZM194,176v-2h2v2h-2ZM194,172v-2h2v2h-2ZM194,156v-2h2v2h-2ZM194,20v-2h2v2h-2ZM196,302v-2h2v2h-2ZM196,298v-2h2v2h-2ZM196,294v-2h2v2h-2ZM196,290v-2h2v2h-2ZM196,286v-2h2v2h-2ZM196,282v-2h2v2h-2ZM196,274v-2h2v2h-2ZM196,198v-2h2v2h-2ZM196,194v-2h2v2h-2ZM196,190v-2h2v2h-2ZM196,186v-2h2v2h-2ZM196,182v-2h2v2h-2ZM196,178v-2h2v2h-2ZM196,174v-2h2v2h-2ZM196,170v-6h2v6h-2ZM196,162v-2h2v2h-2ZM196,158v-2h2v2h-2ZM196,154v-2h2v2h-2ZM196,150v-2h2v2h-2ZM196,34v-2h2v2h-2ZM196,30v-2h2v2h-2ZM196,26v-2h2v2h-2ZM196,22v-2h2v2h-2ZM196,18v-2h2v2h-2ZM198,300v-2h2v2h-2ZM198,292v-2h6v2h-6ZM198,284v-2h2v2h-2ZM198,280v-2h2v2h-2ZM198,196v-2h2v2h-2ZM198,172v-2h2v2h-2ZM198,168v-2h2v2h-2ZM198,164v-2h2v2h-2ZM198,160v-2h2v2h-2ZM198,156v-2h2v2h-2ZM198,36v-2h2v2h-2ZM198,28v-2h2v2h-2ZM198,24v-2h2v2h-2ZM198,20v-2h2v2h-2ZM200,306v-2h2v2h-2ZM200,302v-2h2v2h-2ZM200,298v-2h2v2h-2ZM200,294v-2h2v2h-2ZM200,290v-2h2v2h-2ZM200,286v-2h2v2h-2ZM200,282v-2h2v2h-2ZM200,278v-2h2v2h-2ZM200,274v-2h2v2h-2ZM200,194v-2h2v2h-2ZM200,190v-2h2v2h-2ZM200,186v-2h2v2h-2ZM200,182v-2h2v2h-2ZM200,178v-6h2v6h-2ZM200,170v-2h2v2h-2ZM200,166v-2h2v2h-2ZM200,162v-2h2v2h-2ZM200,158v-2h2v2h-2ZM200,154v-2h2v2h-2ZM200,150v-2h2v2h-2ZM200,146v-2h2v2h-2ZM200,38v-2h2v2h-2ZM200,34v-2h2v2h-2ZM200,30v-2h2v2h-2ZM200,26v-2h2v2h-2ZM200,22v-2h2v2h-2ZM200,18v-2h2v2h-2ZM202,300v-2h2v2h-2ZM202,296v-2h6v2h-6ZM202,288v-2h2v2h-2ZM202,284v-2h10v2h-10ZM202,280v-2h2v2h-2ZM202,192v-2h6v2h-6ZM202,176v-2h16v2h-16ZM202,172v-2h2v2h-2ZM202,168v-2h2v2h-2ZM202,164v-2h2v2h-2ZM202,160v-2h2v2h-2ZM202,148v-2h2v2h-2ZM202,36v-2h2v2h-2ZM202,28v-2h6v2h-6ZM202,24v-2h2v2h-2ZM202,20v-2h2v2h-2ZM204,306v-2h2v2h-2ZM204,302v-2h2v2h-2ZM204,298v-2h2v2h-2ZM204,294v-2h2v2h-2ZM204,290v-2h2v2h-2ZM204,286v-2h2v2h-2ZM204,282v-2h2v2h-2ZM204,278v-2h2v2h-2ZM204,274v-2h2v2h-2ZM204,194v-2h2v2h-2ZM204,190v-2h2v2h-2ZM204,186v-2h2v2h-2ZM204,182v-2h2v2h-2ZM204,178v-2h2v2h-2ZM204,174v-2h2v2h-2ZM204,170v-2h2v2h-2ZM204,166v-2h2v2h-2ZM204,162v-2h2v2h-2ZM204,158v-2h2v2h-2ZM204,154v-2h2v2h-2ZM204,150v-2h2v2h-2ZM204,146v-2h2v2h-2ZM204,38v-2h2v2h-2ZM204,34v-2h2v2h-2ZM204,30v-2h2v2h-2ZM204,26v-2h2v2h-2ZM204,22v-2h2v2h-2ZM204,18v-2h2v2h-2ZM206,300v-2h2v2h-2ZM206,292v-2h2v2h-2ZM206,288v-2h2v2h-2ZM206,280v-2h2v2h-2ZM206,184v-2h26v2h-26ZM206,180v-2h2v2h-2ZM206,172v-2h2v2h-2ZM206,168v-2h2v2h-2ZM206,160v-2h2v2h-2ZM206,144v-2h2v2h-2ZM206,40v-2h2v2h-2ZM206,36v-2h2v2h-2ZM206,24v-2h2v2h-2ZM208,306v-2h2v2h-2ZM208,302v-2h2v2h-2ZM208,298v-2h2v2h-2ZM208,294v-2h2v2h-2ZM208,290v-2h2v2h-2ZM208,286v-2h2v2h-2ZM208,282v-2h2v2h-2ZM208,278v-2h2v2h-2ZM208,274v-2h2v2h-2ZM208,194v-2h2v2h-2ZM208,190v-2h2v2h-2ZM208,186v-2h2v2h-2ZM208,182v-2h2v2h-2ZM208,178v-2h2v2h-2ZM208,174v-2h2v2h-2ZM208,170v-2h2v2h-2ZM208,166v-2h2v2h-2ZM208,162v-2h2v2h-2ZM208,158v-2h2v2h-2ZM208,154v-2h2v2h-2ZM208,150v-2h2v2h-2ZM208,146v-2h2v2h-2ZM208,42v-2h2v2h-2ZM208,38v-2h2v2h-2ZM208,34v-2h2v2h-2ZM208,30v-2h2v2h-2ZM208,26v-2h2v2h-2ZM208,22v-2h2v2h-2ZM208,18v-2h2v2h-2ZM210,308v-2h18v2h-18ZM210,300v-2h2v2h-2ZM210,296v-2h6v2h-6ZM210,292v-2h10v2h-10ZM210,288v-2h6v2h-6ZM210,192v-2h2v2h-2ZM210,180v-2h2v2h-2ZM210,172v-2h2v2h-2ZM210,168v-2h18v2h-18ZM210,164v-2h2v2h-2ZM210,160v-2h2v2h-2ZM210,156v-2h2v2h-2ZM210,148v-2h2v2h-2ZM210,144v-2h2v2h-2ZM210,40v-2h2v2h-2ZM210,36v-2h6v2h-6ZM210,32v-2h6v2h-6ZM210,28v-2h2v2h-2ZM210,24v-2h2v2h-2ZM212,306v-2h2v2h-2ZM212,302v-2h2v2h-2ZM212,298v-2h2v2h-2ZM212,294v-2h2v2h-2ZM212,290v-2h2v2h-2ZM212,286v-2h2v2h-2ZM212,282v-2h2v2h-2ZM212,278v-2h2v2h-2ZM212,274v-2h2v2h-2ZM212,190v-2h2v2h-2ZM212,186v-2h2v2h-2ZM212,182v-2h2v2h-2ZM212,178v-2h2v2h-2ZM212,174v-2h2v2h-2ZM212,170v-2h2v2h-2ZM212,166v-2h2v2h-2ZM212,162v-2h2v2h-2ZM212,158v-2h2v2h-2ZM212,154v-2h2v2h-2ZM212,150v-2h2v2h-2ZM212,146v-2h2v2h-2ZM212,42v-2h2v2h-2ZM212,38v-2h2v2h-2ZM212,34v-2h2v2h-2ZM212,30v-2h2v2h-2ZM212,26v-2h2v2h-2ZM212,22v-2h2v2h-2ZM214,304v-2h2v2h-2ZM214,300v-2h2v2h-2ZM214,284v-2h2v2h-2ZM214,192v-2h2v2h-2ZM214,180v-2h6v2h-6ZM214,172v-2h2v2h-2ZM214,164v-2h6v2h-6ZM214,144v-2h2v2h-2ZM214,44v-2h2v2h-2ZM214,40v-2h2v2h-2ZM214,28v-2h2v2h-2ZM216,310v-2h2v2h-2ZM216,306v-2h2v2h-2ZM216,302v-2h2v2h-2ZM216,298v-2h2v2h-2ZM216,294v-2h2v2h-2ZM216,290v-2h2v2h-2ZM216,286v-2h2v2h-2ZM216,282v-2h2v2h-2ZM216,278v-2h2v2h-2ZM216,274v-2h2v2h-2ZM216,190v-2h2v2h-2ZM216,186v-2h2v2h-2ZM216,182v-2h2v2h-2ZM216,178v-2h2v2h-2ZM216,174v-2h2v2h-2ZM216,170v-2h2v2h-2ZM216,166v-2h2v2h-2ZM216,162v-2h2v2h-2ZM216,158v-2h2v2h-2ZM216,154v-2h2v2h-2ZM216,150v-2h2v2h-2ZM216,146v-2h2v2h-2ZM216,142v-2h2v2h-2ZM216,46v-2h2v2h-2ZM216,42v-2h2v2h-2ZM216,38v-2h2v2h-2ZM216,34v-2h2v2h-2ZM216,30v-2h2v2h-2ZM216,26v-2h2v2h-2ZM216,22v-2h2v2h-2ZM218,304v-2h2v2h-2ZM218,300v-2h2v2h-2ZM218,296v-2h2v2h-2ZM218,288v-2h2v2h-2ZM218,284v-2h2v2h-2ZM218,172v-2h6v2h-6ZM218,160v-2h2v2h-2ZM218,156v-2h2v2h-2ZM218,44v-2h6v2h-6ZM218,40v-2h6v2h-6ZM218,36v-2h2v2h-2ZM218,32v-2h2v2h-2ZM218,28v-2h2v2h-2ZM220,310v-2h2v2h-2ZM220,306v-2h2v2h-2ZM220,302v-2h2v2h-2ZM220,298v-2h2v2h-2ZM220,294v-2h2v2h-2ZM220,290v-2h2v2h-2ZM220,286v-2h2v2h-2ZM220,282v-2h2v2h-2ZM220,278v-2h2v2h-2ZM220,274v-2h6v2h-6ZM220,190v-2h2v2h-2ZM220,186v-2h2v2h-2ZM220,182v-2h2v2h-2ZM220,178v-6h2v6h-2ZM220,170v-2h2v2h-2ZM220,166v-2h2v2h-2ZM220,162v-2h2v2h-2ZM220,158v-2h2v2h-2ZM220,154v-2h2v2h-2ZM220,150v-2h2v2h-2ZM220,146v-2h2v2h-2ZM220,142v-2h2v2h-2ZM220,50v-2h2v2h-2ZM220,46v-2h2v2h-2ZM220,42v-2h2v2h-2ZM220,38v-2h2v2h-2ZM220,34v-2h2v2h-2ZM220,30v-2h2v2h-2ZM220,26v-2h2v2h-2ZM222,304v-2h2v2h-2ZM222,300v-2h2v2h-2ZM222,296v-2h2v2h-2ZM222,292v-2h2v2h-2ZM222,288v-2h6v2h-6ZM222,284v-2h2v2h-2ZM222,272v-2h2v2h-2ZM222,188v-2h6v2h-6ZM222,180v-2h26v2h-26ZM222,176v-2h18v2h-18ZM222,164v-2h6v2h-6ZM222,160v-2h6v2h-6ZM222,156v-2h6v2h-6ZM222,152v-2h2v2h-2ZM222,48v-2h2v2h-2ZM222,36v-2h2v2h-2ZM222,32v-2h2v2h-2ZM224,310v-2h6v2h-6ZM224,306v-2h2v2h-2ZM224,302v-2h2v2h-2ZM224,298v-2h2v2h-2ZM224,294v-2h2v2h-2ZM224,290v-2h2v2h-2ZM224,286v-2h2v2h-2ZM224,282v-2h2v2h-2ZM224,278v-2h2v2h-2ZM224,190v-2h2v2h-2ZM224,186v-2h2v2h-2ZM224,182v-2h2v2h-2ZM224,178v-2h2v2h-2ZM224,174v-2h2v2h-2ZM224,170v-2h2v2h-2ZM224,166v-2h2v2h-2ZM224,162v-2h2v2h-2ZM224,158v-2h2v2h-2ZM224,154v-2h2v2h-2ZM224,150v-2h2v2h-2ZM224,146v-2h2v2h-2ZM224,142v-2h2v2h-2ZM224,50v-2h2v2h-2ZM224,46v-2h2v2h-2ZM224,42v-2h2v2h-2ZM224,38v-2h2v2h-2ZM224,34v-2h2v2h-2ZM224,30v-2h2v2h-2ZM224,26v-2h2v2h-2ZM226,312v-2h18v2h-18ZM226,304v-2h2v2h-2ZM226,300v-2h2v2h-2ZM226,296v-2h2v2h-2ZM226,292v-2h2v2h-2ZM226,284v-2h6v2h-6ZM226,276v-2h14v2h-14ZM226,172v-2h4v2h-4ZM226,152v-2h2v2h-2ZM226,148v-2h2v2h-2ZM226,144v-2h2v2h-2ZM226,140v-2h2v2h-2ZM226,48v-2h10v2h-10ZM226,44v-2h2v2h-2ZM226,40v-2h2v2h-2ZM226,36v-2h2v2h-2ZM226,32v-2h2v2h-2ZM228,314v-2h2v2h-2ZM228,306v-2h2v2h-2ZM228,302v-2h2v2h-2ZM228,298v-2h2v2h-2ZM228,294v-2h2v2h-2ZM228,290v-2h2v2h-2ZM228,286v-2h2v2h-2ZM228,282v-2h2v2h-2ZM228,274v-2h2v2h-2ZM228,186v-2h2v2h-2ZM228,182v-2h2v2h-2ZM228,178v-2h2v2h-2ZM228,174v-2h2v2h-2ZM228,170v-2h2v2h-2ZM228,166v-2h2v2h-2ZM228,162v-2h2v2h-2ZM228,158v-2h2v2h-2ZM228,154v-2h2v2h-2ZM228,150v-2h2v2h-2ZM228,146v-2h2v2h-2ZM228,142v-2h2v2h-2ZM228,54v-2h2v2h-2ZM228,50v-2h2v2h-2ZM228,46v-2h2v2h-2ZM228,42v-2h2v2h-2ZM228,38v-2h2v2h-2ZM228,34v-2h2v2h-2ZM228,30v-2h2v2h-2ZM230,308v-2h2v2h-2ZM230,304v-2h2v2h-2ZM230,300v-2h2v2h-2ZM230,296v-2h2v2h-2ZM230,292v-2h2v2h-2ZM230,288v-2h2v2h-2ZM230,168v-2h2v2h-2ZM230,164v-2h10v2h-10ZM230,160v-2h10v2h-10ZM230,152v-2h2v2h-2ZM230,140v-2h2v2h-2ZM230,52v-2h6v2h-6ZM230,44v-2h6v2h-6ZM230,40v-2h2v2h-2ZM232,314v-2h2v2h-2ZM232,310v-2h2v2h-2ZM232,306v-2h2v2h-2ZM232,302v-2h2v2h-2ZM232,298v-2h2v2h-2ZM232,294v-2h2v2h-2ZM232,290v-2h2v2h-2ZM232,286v-2h2v2h-2ZM232,282v-2h2v2h-2ZM232,278v-2h2v2h-2ZM232,274v-2h2v2h-2ZM232,186v-2h2v2h-2ZM232,182v-2h2v2h-2ZM232,178v-2h2v2h-2ZM232,174v-2h2v2h-2ZM232,170v-2h2v2h-2ZM232,166v-2h2v2h-2ZM232,162v-2h2v2h-2ZM232,158v-6h2v6h-2ZM232,150v-2h2v2h-2ZM232,146v-2h2v2h-2ZM232,142v-2h2v2h-2ZM232,54v-2h2v2h-2ZM232,50v-2h2v2h-2ZM232,46v-2h2v2h-2ZM232,42v-2h2v2h-2ZM232,38v-2h2v2h-2ZM232,34v-2h2v2h-2ZM232,30v-2h2v2h-2ZM234,308v-2h2v2h-2ZM234,304v-2h18v2h-18ZM234,300v-2h14v2h-14ZM234,296v-2h14v2h-14ZM234,292v-2h2v2h-2ZM234,288v-2h2v2h-2ZM234,184v-2h2v2h-2ZM234,172v-2h2v2h-2ZM234,156v-2h2v2h-2ZM234,152v-2h2v2h-2ZM234,140v-2h2v2h-2ZM234,40v-2h2v2h-2ZM234,36v-2h2v2h-2ZM236,314v-2h6v2h-6ZM236,310v-2h2v2h-2ZM236,306v-2h2v2h-2ZM236,302v-2h2v2h-2ZM236,298v-2h2v2h-2ZM236,294v-2h2v2h-2ZM236,290v-2h2v2h-2ZM236,286v-2h2v2h-2ZM236,282v-2h2v2h-2ZM236,278v-2h6v2h-6ZM236,186v-2h2v2h-2ZM236,182v-2h2v2h-2ZM236,178v-2h2v2h-2ZM236,174v-2h2v2h-2ZM236,170v-6h2v6h-2ZM236,162v-2h2v2h-2ZM236,158v-2h2v2h-2ZM236,154v-2h2v2h-2ZM236,150v-2h2v2h-2ZM236,146v-2h2v2h-2ZM236,142v-2h2v2h-2ZM236,54v-2h2v2h-2ZM236,50v-2h2v2h-2ZM236,46v-2h2v2h-2ZM236,42v-2h2v2h-2ZM236,38v-2h2v2h-2ZM236,34v-2h2v2h-2ZM238,316v-2h22v2h-22ZM238,308v-2h2v2h-2ZM238,292v-2h2v2h-2ZM238,288v-2h2v2h-2ZM238,280v-2h2v2h-2ZM238,184v-2h2v2h-2ZM238,172v-2h14v2h-14ZM238,168v-2h38v2h-38ZM238,156v-2h6v2h-6ZM238,152v-2h2v2h-2ZM238,148v-2h2v2h-2ZM238,140v-2h2v2h-2ZM238,56v-2h2v2h-2ZM238,52v-2h10v2h-10ZM238,48v-2h2v2h-2ZM238,44v-2h2v2h-2ZM240,310v-2h2v2h-2ZM240,306v-2h2v2h-2ZM240,302v-2h2v2h-2ZM240,298v-2h2v2h-2ZM240,294v-2h2v2h-2ZM240,290v-2h2v2h-2ZM240,286v-2h2v2h-2ZM240,282v-2h2v2h-2ZM240,182v-2h2v2h-2ZM240,178v-2h2v2h-2ZM240,174v-2h2v2h-2ZM240,170v-2h2v2h-2ZM240,166v-2h2v2h-2ZM240,162v-2h2v2h-2ZM240,158v-2h2v2h-2ZM240,154v-2h2v2h-2ZM240,150v-2h2v2h-2ZM240,146v-2h2v2h-2ZM240,142v-2h2v2h-2ZM240,58v-2h2v2h-2ZM240,54v-2h2v2h-2ZM240,50v-2h2v2h-2ZM240,46v-2h2v2h-2ZM240,42v-2h2v2h-2ZM240,38v-2h2v2h-2ZM240,34v-2h2v2h-2ZM242,308v-2h2v2h-2ZM242,292v-2h2v2h-2ZM242,288v-2h2v2h-2ZM242,280v-2h10v2h-10ZM242,184v-2h2v2h-2ZM242,176v-2h10v2h-10ZM242,164v-2h18v2h-18ZM242,152v-2h2v2h-2ZM242,144v-2h2v2h-2ZM242,140v-2h2v2h-2ZM242,56v-2h2v2h-2ZM242,48v-2h6v2h-6ZM242,44v-2h2v2h-2ZM242,40v-2h2v2h-2ZM244,318v-2h2v2h-2ZM244,314v-2h2v2h-2ZM244,310v-2h2v2h-2ZM244,306v-2h2v2h-2ZM244,302v-2h2v2h-2ZM244,298v-2h2v2h-2ZM244,294v-2h2v2h-2ZM244,290v-2h2v2h-2ZM244,286v-2h2v2h-2ZM244,282v-2h2v2h-2ZM244,278v-2h2v2h-2ZM244,182v-2h2v2h-2ZM244,178v-2h2v2h-2ZM244,174v-2h2v2h-2ZM244,170v-2h2v2h-2ZM244,166v-2h2v2h-2ZM244,162v-2h2v2h-2ZM244,158v-2h2v2h-2ZM244,154v-2h2v2h-2ZM244,150v-2h2v2h-2ZM244,146v-2h2v2h-2ZM244,142v-2h2v2h-2ZM244,58v-2h2v2h-2ZM244,54v-2h2v2h-2ZM244,50v-2h2v2h-2ZM244,46v-2h2v2h-2ZM244,42v-2h2v2h-2ZM244,38v-2h2v2h-2ZM246,312v-2h4v2h-4ZM246,308v-2h18v2h-18ZM246,292v-2h2v2h-2ZM246,288v-2h2v2h-2ZM246,284v-2h2v2h-2ZM246,160v-2h2v2h-2ZM246,156v-2h2v2h-2ZM246,152v-2h2v2h-2ZM246,140v-2h2v2h-2ZM246,60v-2h2v2h-2ZM246,56v-2h50v2h-50ZM246,44v-2h2v2h-2ZM248,318v-2h2v2h-2ZM248,314v-2h2v2h-2ZM248,310v-2h2v2h-2ZM248,306v-2h2v2h-2ZM248,302v-2h2v2h-2ZM248,298v-2h2v2h-2ZM248,294v-2h2v2h-2ZM248,290v-2h2v2h-2ZM248,286v-2h2v2h-2ZM248,282v-2h6v2h-6ZM248,182v-2h2v2h-2ZM248,178v-2h2v2h-2ZM248,174v-2h2v2h-2ZM248,170v-2h2v2h-2ZM248,166v-2h2v2h-2ZM248,162v-2h2v2h-2ZM248,158v-2h2v2h-2ZM248,154v-2h2v2h-2ZM248,150v-2h2v2h-2ZM248,146v-2h2v2h-2ZM248,142v-2h2v2h-2ZM248,62v-2h2v2h-2ZM248,58v-2h2v2h-2ZM248,54v-2h2v2h-2ZM248,50v-2h2v2h-2ZM248,46v-2h2v2h-2ZM248,42v-2h2v2h-2ZM248,38v-2h2v2h-2ZM250,300v-2h2v2h-2ZM250,296v-2h2v2h-2ZM250,292v-2h2v2h-2ZM250,284v-2h14v2h-14ZM250,180v-2h2v2h-2ZM250,160v-2h2v2h-2ZM250,152v-2h2v2h-2ZM250,144v-2h2v2h-2ZM250,140v-2h2v2h-2ZM250,60v-2h2v2h-2ZM250,52v-2h14v2h-14ZM250,48v-2h2v2h-2ZM252,318v-2h2v2h-2ZM252,314v-2h2v2h-2ZM252,310v-2h2v2h-2ZM252,306v-2h2v2h-2ZM252,302v-2h2v2h-2ZM252,298v-2h2v2h-2ZM252,294v-2h2v2h-2ZM252,290v-2h2v2h-2ZM252,286v-2h2v2h-2ZM252,182v-2h2v2h-2ZM252,178v-2h2v2h-2ZM252,174v-2h2v2h-2ZM252,170v-2h2v2h-2ZM252,166v-2h2v2h-2ZM252,162v-2h2v2h-2ZM252,158v-6h2v6h-2ZM252,150v-2h2v2h-2ZM252,146v-2h2v2h-2ZM252,142v-2h2v2h-2ZM252,62v-2h2v2h-2ZM252,58v-2h2v2h-2ZM252,54v-2h2v2h-2ZM252,50v-2h2v2h-2ZM252,46v-2h2v2h-2ZM252,42v-2h2v2h-2ZM254,304v-2h2v2h-2ZM254,300v-2h2v2h-2ZM254,296v-2h2v2h-2ZM254,292v-2h2v2h-2ZM254,280v-2h2v2h-2ZM254,180v-2h2v2h-2ZM254,176v-2h30v2h-30ZM254,172v-2h14v2h-14ZM254,160v-2h2v2h-2ZM254,156v-2h2v2h-2ZM254,152v-2h2v2h-2ZM254,144v-2h2v2h-2ZM254,140v-2h2v2h-2ZM254,60v-2h38v2h-38ZM254,48v-2h6v2h-6ZM254,44v-2h2v2h-2ZM256,318v-2h10v2h-10ZM256,314v-2h2v2h-2ZM256,310v-2h2v2h-2ZM256,306v-2h2v2h-2ZM256,302v-2h2v2h-2ZM256,298v-2h2v2h-2ZM256,294v-2h2v2h-2ZM256,290v-2h2v2h-2ZM256,286v-2h2v2h-2ZM256,282v-2h2v2h-2ZM256,182v-2h2v2h-2ZM256,178v-2h2v2h-2ZM256,174v-2h2v2h-2ZM256,170v-2h2v2h-2ZM256,166v-2h2v2h-2ZM256,162v-2h2v2h-2ZM256,158v-2h2v2h-2ZM256,154v-2h2v2h-2ZM256,150v-2h2v2h-2ZM256,146v-2h2v2h-2ZM256,142v-2h2v2h-2ZM256,62v-2h2v2h-2ZM256,58v-2h2v2h-2ZM256,54v-2h2v2h-2ZM256,50v-2h2v2h-2ZM256,46v-2h2v2h-2ZM256,42v-2h2v2h-2ZM258,304v-2h2v2h-2ZM258,300v-2h2v2h-2ZM258,296v-2h2v2h-2ZM258,292v-2h2v2h-2ZM258,196v-2h2v2h-2ZM258,192v-2h2v2h-2ZM258,188v-2h2v2h-2ZM258,184v-2h2v2h-2ZM258,180v-2h2v2h-2ZM258,160v-2h2v2h-2ZM258,156v-2h2v2h-2ZM258,152v-2h2v2h-2ZM258,148v-2h2v2h-2ZM258,44v-2h2v2h-2ZM260,314v-2h2v2h-2ZM260,310v-2h2v2h-2ZM260,306v-2h2v2h-2ZM260,302v-2h2v2h-2ZM260,298v-2h2v2h-2ZM260,294v-2h2v2h-2ZM260,290v-2h2v2h-2ZM260,286v-2h6v2h-6ZM260,198v-2h2v2h-2ZM260,194v-2h2v2h-2ZM260,190v-2h2v2h-2ZM260,186v-2h2v2h-2ZM260,182v-2h2v2h-2ZM260,178v-2h2v2h-2ZM260,174v-2h2v2h-2ZM260,170v-2h2v2h-2ZM260,166v-2h2v2h-2ZM260,162v-2h2v2h-2ZM260,158v-2h2v2h-2ZM260,154v-2h2v2h-2ZM260,150v-2h2v2h-2ZM260,146v-2h2v2h-2ZM260,142v-2h2v2h-2ZM260,62v-2h2v2h-2ZM260,58v-2h2v2h-2ZM260,54v-2h2v2h-2ZM260,50v-2h2v2h-2ZM260,46v-2h2v2h-2ZM260,42v-2h2v2h-2ZM262,316v-2h2v2h-2ZM262,312v-2h6v2h-6ZM262,304v-2h2v2h-2ZM262,300v-2h2v2h-2ZM262,296v-2h2v2h-2ZM262,288v-2h10v2h-10ZM262,200v-2h10v2h-10ZM262,196v-2h2v2h-2ZM262,192v-2h2v2h-2ZM262,184v-2h2v2h-2ZM262,180v-2h2v2h-2ZM262,164v-2h10v2h-10ZM262,160v-2h2v2h-2ZM262,140v-2h2v2h-2ZM262,48v-2h2v2h-2ZM264,314v-2h2v2h-2ZM264,310v-2h2v2h-2ZM264,306v-2h2v2h-2ZM264,302v-2h2v2h-2ZM264,298v-2h2v2h-2ZM264,294v-2h2v2h-2ZM264,290v-2h2v2h-2ZM264,198v-2h2v2h-2ZM264,194v-2h2v2h-2ZM264,190v-2h2v2h-2ZM264,186v-2h2v2h-2ZM264,182v-2h2v2h-2ZM264,178v-2h2v2h-2ZM264,174v-2h2v2h-2ZM264,170v-2h2v2h-2ZM264,166v-2h2v2h-2ZM264,162v-2h2v2h-2ZM264,158v-2h2v2h-2ZM264,154v-2h2v2h-2ZM264,150v-2h2v2h-2ZM264,146v-2h2v2h-2ZM264,142v-2h2v2h-2ZM264,138v-2h2v2h-2ZM264,62v-2h2v2h-2ZM264,58v-2h2v2h-2ZM264,54v-2h2v2h-2ZM264,50v-2h2v2h-2ZM264,46v-2h2v2h-2ZM264,42v-2h2v2h-2ZM266,316v-2h2v2h-2ZM266,308v-2h14v2h-14ZM266,304v-2h2v2h-2ZM266,300v-2h2v2h-2ZM266,296v-2h2v2h-2ZM266,292v-2h2v2h-2ZM266,196v-2h2v2h-2ZM266,192v-2h2v2h-2ZM266,188v-2h2v2h-2ZM266,184v-2h2v2h-2ZM266,180v-2h2v2h-2ZM266,160v-2h2v2h-2ZM266,156v-2h2v2h-2ZM266,144v-2h2v2h-2ZM266,140v-2h10v2h-10ZM266,136v-2h10v2h-10ZM266,132v-2h2v2h-2ZM266,52v-2h2v2h-2ZM266,48v-2h2v2h-2ZM268,318v-2h2v2h-2ZM268,314v-2h2v2h-2ZM268,310v-2h2v2h-2ZM268,306v-2h2v2h-2ZM268,302v-2h2v2h-2ZM268,298v-2h2v2h-2ZM268,294v-2h2v2h-2ZM268,290v-2h6v2h-6ZM268,202v-2h2v2h-2ZM268,198v-2h2v2h-2ZM268,194v-2h2v2h-2ZM268,190v-2h2v2h-2ZM268,186v-2h2v2h-2ZM268,182v-2h2v2h-2ZM268,178v-2h2v2h-2ZM268,174v-2h2v2h-2ZM268,170v-2h2v2h-2ZM268,166v-2h2v2h-2ZM268,162v-2h2v2h-2ZM268,158v-2h2v2h-2ZM268,154v-2h2v2h-2ZM268,150v-2h2v2h-2ZM268,146v-2h2v2h-2ZM268,142v-2h2v2h-2ZM268,138v-2h2v2h-2ZM268,134v-2h2v2h-2ZM268,130v-2h2v2h-2ZM268,62v-2h2v2h-2ZM268,58v-2h2v2h-2ZM268,54v-2h2v2h-2ZM268,50v-2h2v2h-2ZM268,46v-2h2v2h-2ZM268,42v-2h2v2h-2ZM270,316v-2h2v2h-2ZM270,312v-2h22v2h-22ZM270,304v-2h58v2h-58ZM270,300v-2h6v2h-6ZM270,296v-2h2v2h-2ZM270,292v-2h10v2h-10ZM270,196v-2h2v2h-2ZM270,192v-2h2v2h-2ZM270,180v-2h2v2h-2ZM270,172v-2h6v2h-6ZM270,160v-2h2v2h-2ZM270,148v-2h2v2h-2ZM270,144v-2h2v2h-2ZM270,132v-2h22v2h-22ZM270,52v-2h2v2h-2ZM272,318v-2h14v2h-14ZM272,314v-2h2v2h-2ZM272,310v-2h2v2h-2ZM272,306v-2h2v2h-2ZM272,302v-2h2v2h-2ZM272,298v-2h2v2h-2ZM272,294v-2h2v2h-2ZM272,198v-2h2v2h-2ZM272,194v-2h2v2h-2ZM272,178v-2h2v2h-2ZM272,174v-2h2v2h-2ZM272,170v-2h2v2h-2ZM272,166v-2h2v2h-2ZM272,162v-2h2v2h-2ZM272,158v-2h2v2h-2ZM272,154v-2h2v2h-2ZM272,150v-2h2v2h-2ZM272,146v-2h2v2h-2ZM272,142v-2h2v2h-2ZM272,138v-2h2v2h-2ZM272,134v-2h2v2h-2ZM272,130v-2h2v2h-2ZM272,126v-2h2v2h-2ZM272,62v-2h2v2h-2ZM272,58v-2h2v2h-2ZM272,54v-2h2v2h-2ZM272,50v-2h2v2h-2ZM272,46v-2h2v2h-2ZM272,42v-2h2v2h-2ZM274,316v-2h16v2h-16ZM274,296v-2h2v2h-2ZM274,200v-2h2v2h-2ZM274,196v-2h2v2h-2ZM274,192v-2h2v2h-2ZM274,180v-2h2v2h-2ZM274,164v-2h2v2h-2ZM274,160v-2h2v2h-2ZM274,156v-2h2v2h-2ZM274,152v-2h2v2h-2ZM274,144v-2h2v2h-2ZM274,128v-2h2v2h-2ZM274,124v-2h2v2h-2ZM274,64v-2h2v2h-2ZM274,52v-2h2v2h-2ZM274,48v-2h2v2h-2ZM276,314v-2h2v2h-2ZM276,310v-2h2v2h-2ZM276,306v-2h2v2h-2ZM276,302v-2h2v2h-2ZM276,298v-2h2v2h-2ZM276,294v-2h2v2h-2ZM276,198v-2h2v2h-2ZM276,194v-2h2v2h-2ZM276,182v-2h2v2h-2ZM276,178v-2h2v2h-2ZM276,174v-2h2v2h-2ZM276,170v-2h2v2h-2ZM276,166v-2h2v2h-2ZM276,162v-2h2v2h-2ZM276,158v-2h2v2h-2ZM276,154v-2h2v2h-2ZM276,150v-2h2v2h-2ZM276,146v-2h2v2h-2ZM276,138v-2h2v2h-2ZM276,134v-2h2v2h-2ZM276,130v-2h2v2h-2ZM276,126v-2h2v2h-2ZM276,86v-2h2v2h-2ZM276,62v-2h2v2h-2ZM276,58v-2h2v2h-2ZM276,54v-2h2v2h-2ZM276,50v-2h2v2h-2ZM276,46v-2h2v2h-2ZM276,42v-2h2v2h-2ZM278,328v-2h14v2h-14ZM278,324v-2h8v2h-8ZM278,320v-2h8v2h-8ZM278,300v-2h6v2h-6ZM278,296v-2h2v2h-2ZM278,208v-2h2v2h-2ZM278,200v-2h2v2h-2ZM278,196v-2h2v2h-2ZM278,180v-2h18v2h-18ZM278,172v-2h6v2h-6ZM278,168v-2h2v2h-2ZM278,164v-2h2v2h-2ZM278,156v-2h2v2h-2ZM278,148v-2h2v2h-2ZM278,128v-2h2v2h-2ZM278,124v-2h2v2h-2ZM278,52v-2h2v2h-2ZM280,330v-2h2v2h-2ZM280,326v-2h2v2h-2ZM280,322v-2h2v2h-2ZM280,314v-2h2v2h-2ZM280,310v-2h2v2h-2ZM280,306v-2h2v2h-2ZM280,302v-2h2v2h-2ZM280,298v-2h2v2h-2ZM280,294v-2h2v2h-2ZM280,290v-6h2v6h-2ZM280,282v-2h2v2h-2ZM280,218v-2h2v2h-2ZM280,214v-2h2v2h-2ZM280,210v-2h2v2h-2ZM280,206v-2h2v2h-2ZM280,202v-2h2v2h-2ZM280,198v-2h2v2h-2ZM280,194v-2h2v2h-2ZM280,182v-2h2v2h-2ZM280,178v-2h2v2h-2ZM280,174v-2h2v2h-2ZM280,170v-2h2v2h-2ZM280,166v-2h2v2h-2ZM280,162v-2h2v2h-2ZM280,158v-2h2v2h-2ZM280,154v-2h2v2h-2ZM280,150v-2h2v2h-2ZM280,146v-2h2v2h-2ZM280,134v-2h2v2h-2ZM280,130v-2h2v2h-2ZM280,126v-2h2v2h-2ZM280,62v-2h2v2h-2ZM280,58v-2h2v2h-2ZM280,54v-2h2v2h-2ZM280,50v-2h2v2h-2ZM280,46v-2h2v2h-2ZM280,42v-2h2v2h-2ZM282,308v-2h10v2h-10ZM282,296v-2h2v2h-2ZM282,292v-2h6v2h-6ZM282,288v-2h6v2h-6ZM282,284v-2h8v2h-8ZM282,280v-2h2v2h-2ZM282,200v-2h2v2h-2ZM282,196v-2h2v2h-2ZM282,168v-2h2v2h-2ZM282,164v-2h2v2h-2ZM282,160v-2h2v2h-2ZM282,156v-2h2v2h-2ZM282,148v-2h2v2h-2ZM282,128v-2h2v2h-2ZM282,52v-2h2v2h-2ZM282,48v-2h2v2h-2ZM284,330v-2h6v2h-6ZM284,326v-2h2v2h-2ZM284,322v-2h2v2h-2ZM284,314v-2h2v2h-2ZM284,310v-2h2v2h-2ZM284,306v-2h2v2h-2ZM284,302v-2h2v2h-2ZM284,298v-2h2v2h-2ZM284,294v-2h2v2h-2ZM284,290v-2h2v2h-2ZM284,286v-2h2v2h-2ZM284,282v-2h2v2h-2ZM284,218v-2h2v2h-2ZM284,214v-2h2v2h-2ZM284,210v-2h2v2h-2ZM284,206v-2h2v2h-2ZM284,202v-2h2v2h-2ZM284,198v-2h2v2h-2ZM284,182v-2h2v2h-2ZM284,178v-2h2v2h-2ZM284,174v-2h2v2h-2ZM284,170v-2h2v2h-2ZM284,166v-2h2v2h-2ZM284,162v-2h2v2h-2ZM284,158v-2h2v2h-2ZM284,154v-2h2v2h-2ZM284,150v-2h2v2h-2ZM284,134v-2h2v2h-2ZM284,130v-2h2v2h-2ZM284,126v-2h2v2h-2ZM284,62v-2h2v2h-2ZM284,58v-2h2v2h-2ZM284,54v-2h2v2h-2ZM284,50v-2h2v2h-2ZM284,46v-2h2v2h-2ZM284,42v-2h2v2h-2ZM286,332v-2h8v2h-8ZM286,300v-2h2v2h-2ZM286,296v-2h2v2h-2ZM286,280v-2h2v2h-2ZM286,176v-2h2v2h-2ZM286,172v-2h2v2h-2ZM286,168v-2h2v2h-2ZM286,164v-2h2v2h-2ZM286,148v-2h2v2h-2ZM286,128v-2h2v2h-2ZM286,52v-2h6v2h-6ZM286,48v-2h6v2h-6ZM286,44v-2h2v2h-2ZM288,342v-2h2v2h-2ZM288,338v-2h2v2h-2ZM288,334v-2h2v2h-2ZM288,326v-2h2v2h-2ZM288,314v-2h2v2h-2ZM288,310v-2h2v2h-2ZM288,306v-2h2v2h-2ZM288,302v-2h2v2h-2ZM288,298v-2h2v2h-2ZM288,294v-2h2v2h-2ZM288,282v-2h2v2h-2ZM288,202v-2h2v2h-2ZM288,182v-2h2v2h-2ZM288,178v-2h2v2h-2ZM288,174v-2h2v2h-2ZM288,170v-2h2v2h-2ZM288,166v-2h2v2h-2ZM288,162v-2h2v2h-2ZM288,158v-2h2v2h-2ZM288,154v-2h2v2h-2ZM288,150v-2h2v2h-2ZM288,134v-2h2v2h-2ZM288,130v-2h2v2h-2ZM288,126v-2h2v2h-2ZM288,82v-2h2v2h-2ZM288,62v-2h2v2h-2ZM288,58v-2h2v2h-2ZM288,54v-2h2v2h-2ZM288,50v-2h2v2h-2ZM288,46v-2h2v2h-2ZM288,42v-2h2v2h-2ZM290,336v-2h2v2h-2ZM290,300v-2h2v2h-2ZM290,296v-2h2v2h-2ZM290,280v-2h2v2h-2ZM290,184v-2h2v2h-2ZM290,176v-2h10v2h-10ZM290,172v-2h6v2h-6ZM290,168v-2h2v2h-2ZM290,164v-2h2v2h-2ZM290,152v-2h2v2h-2ZM290,128v-2h2v2h-2ZM290,80v-2h2v2h-2ZM290,44v-2h2v2h-2ZM292,342v-2h2v2h-2ZM292,338v-2h2v2h-2ZM292,334v-2h2v2h-2ZM292,330v-2h2v2h-2ZM292,314v-2h2v2h-2ZM292,310v-2h2v2h-2ZM292,306v-2h2v2h-2ZM292,302v-2h2v2h-2ZM292,298v-2h2v2h-2ZM292,294v-2h2v2h-2ZM292,282v-2h2v2h-2ZM292,278v-2h2v2h-2ZM292,186v-2h2v2h-2ZM292,182v-2h2v2h-2ZM292,178v-2h2v2h-2ZM292,174v-2h2v2h-2ZM292,170v-2h2v2h-2ZM292,166v-2h2v2h-2ZM292,162v-2h2v2h-2ZM292,158v-2h2v2h-2ZM292,154v-2h2v2h-2ZM292,150v-2h2v2h-2ZM292,134v-2h2v2h-2ZM292,130v-2h2v2h-2ZM292,126v-2h2v2h-2ZM292,62v-2h2v2h-2ZM292,58v-2h2v2h-2ZM292,54v-2h2v2h-2ZM292,50v-2h2v2h-2ZM292,46v-2h2v2h-2ZM292,42v-2h2v2h-2ZM294,340v-2h2v2h-2ZM294,312v-2h2v2h-2ZM294,308v-2h18v2h-18ZM294,300v-2h2v2h-2ZM294,296v-2h2v2h-2ZM294,280v-2h2v2h-2ZM294,272v-2h2v2h-2ZM294,184v-2h10v2h-10ZM294,168v-2h2v2h-2ZM294,164v-2h2v2h-2ZM294,160v-2h2v2h-2ZM294,156v-2h2v2h-2ZM294,152v-2h2v2h-2ZM294,132v-2h2v2h-2ZM294,128v-2h2v2h-2ZM294,124v-2h2v2h-2ZM294,120v-2h2v2h-2ZM294,80v-2h2v2h-2ZM294,60v-2h2v2h-2ZM294,52v-2h2v2h-2ZM294,48v-2h2v2h-2ZM294,44v-2h2v2h-2ZM296,314v-2h2v2h-2ZM296,310v-2h2v2h-2ZM296,306v-2h2v2h-2ZM296,302v-2h2v2h-2ZM296,298v-2h2v2h-2ZM296,294v-2h2v2h-2ZM296,282v-2h2v2h-2ZM296,278v-2h2v2h-2ZM296,274v-2h2v2h-2ZM296,186v-2h2v2h-2ZM296,182v-2h2v2h-2ZM296,178v-2h2v2h-2ZM296,174v-2h2v2h-2ZM296,170v-2h2v2h-2ZM296,166v-2h2v2h-2ZM296,162v-2h2v2h-2ZM296,158v-2h2v2h-2ZM296,154v-2h2v2h-2ZM296,134v-2h2v2h-2ZM296,130v-2h2v2h-2ZM296,126v-2h2v2h-2ZM296,122v-2h2v2h-2ZM296,58v-2h2v2h-2ZM296,54v-2h2v2h-2ZM296,50v-2h2v2h-2ZM296,46v-2h2v2h-2ZM296,42v-2h2v2h-2ZM298,312v-2h6v2h-6ZM298,300v-2h2v2h-2ZM298,296v-2h2v2h-2ZM298,188v-2h2v2h-2ZM298,180v-2h2v2h-2ZM298,172v-2h2v2h-2ZM298,168v-2h2v2h-2ZM298,156v-2h2v2h-2ZM298,60v-2h2v2h-2ZM298,56v-2h6v2h-6ZM298,52v-2h10v2h-10ZM298,48v-2h10v2h-10ZM300,314v-2h2v2h-2ZM300,310v-2h2v2h-2ZM300,306v-2h2v2h-2ZM300,302v-2h2v2h-2ZM300,298v-2h2v2h-2ZM300,294v-2h2v2h-2ZM300,274v-2h2v2h-2ZM300,186v-2h2v2h-2ZM300,182v-2h2v2h-2ZM300,178v-2h2v2h-2ZM300,174v-2h2v2h-2ZM300,170v-2h2v2h-2ZM300,166v-2h2v2h-2ZM300,162v-2h2v2h-2ZM300,158v-2h2v2h-2ZM300,154v-2h2v2h-2ZM300,134v-2h2v2h-2ZM300,126v-2h2v2h-2ZM300,122v-2h2v2h-2ZM300,118v-2h2v2h-2ZM300,78v-2h2v2h-2ZM300,58v-2h2v2h-2ZM300,54v-2h2v2h-2ZM300,50v-2h2v2h-2ZM300,46v-2h2v2h-2ZM300,42v-2h2v2h-2ZM300,38v-2h2v2h-2ZM302,300v-2h2v2h-2ZM302,296v-2h2v2h-2ZM302,188v-2h10v2h-10ZM302,180v-2h2v2h-2ZM302,176v-2h2v2h-2ZM302,172v-2h2v2h-2ZM302,168v-2h2v2h-2ZM302,156v-2h2v2h-2ZM302,132v-2h2v2h-2ZM302,44v-2h2v2h-2ZM304,310v-2h2v2h-2ZM304,306v-2h2v2h-2ZM304,302v-2h2v2h-2ZM304,298v-2h2v2h-2ZM304,294v-2h2v2h-2ZM304,190v-2h2v2h-2ZM304,186v-2h2v2h-2ZM304,182v-2h2v2h-2ZM304,178v-2h2v2h-2ZM304,174v-2h2v2h-2ZM304,170v-2h2v2h-2ZM304,166v-2h2v2h-2ZM304,162v-2h2v2h-2ZM304,158v-2h2v2h-2ZM304,78v-2h2v2h-2ZM304,58v-2h2v2h-2ZM304,54v-2h2v2h-2ZM304,50v-2h2v2h-2ZM304,46v-2h2v2h-2ZM304,42v-2h2v2h-2ZM304,38v-2h2v2h-2ZM306,300v-2h2v2h-2ZM306,184v-2h2v2h-2ZM306,180v-2h2v2h-2ZM306,176v-2h2v2h-2ZM306,172v-2h2v2h-2ZM306,56v-2h2v2h-2ZM306,44v-2h2v2h-2ZM308,310v-2h2v2h-2ZM308,306v-2h2v2h-2ZM308,302v-2h2v2h-2ZM308,298v-2h2v2h-2ZM308,294v-2h2v2h-2ZM308,190v-2h2v2h-2ZM308,186v-2h2v2h-2ZM308,182v-2h2v2h-2ZM308,178v-2h2v2h-2ZM308,174v-2h2v2h-2ZM308,170v-2h2v2h-2ZM308,166v-2h2v2h-2ZM308,162v-2h2v2h-2ZM308,78v-2h2v2h-2ZM308,58v-2h2v2h-2ZM308,54v-2h2v2h-2ZM308,50v-2h2v2h-2ZM308,46v-2h2v2h-2ZM308,42v-2h2v2h-2ZM308,38v-2h2v2h-2ZM308,34v-2h2v2h-2ZM310,300v-2h2v2h-2ZM310,192v-2h2v2h-2ZM310,184v-2h2v2h-2ZM310,180v-2h2v2h-2ZM310,56v-2h2v2h-2ZM310,52v-2h6v2h-6ZM310,48v-2h6v2h-6ZM310,44v-2h6v2h-6ZM310,40v-2h6v2h-6ZM312,310v-2h2v2h-2ZM312,306v-2h2v2h-2ZM312,302v-2h2v2h-2ZM312,298v-2h2v2h-2ZM312,294v-2h2v2h-2ZM312,194v-2h2v2h-2ZM312,190v-2h2v2h-2ZM312,186v-2h2v2h-2ZM312,182v-2h2v2h-2ZM312,178v-2h2v2h-2ZM312,174v-2h2v2h-2ZM312,170v-2h2v2h-2ZM312,166v-2h2v2h-2ZM312,162v-2h2v2h-2ZM312,78v-2h2v2h-2ZM312,54v-2h2v2h-2ZM312,50v-2h2v2h-2ZM312,46v-2h2v2h-2ZM312,42v-2h2v2h-2ZM312,38v-2h2v2h-2ZM312,34v-2h2v2h-2ZM314,308v-2h4v2h-4ZM314,300v-2h26v2h-26ZM314,192v-2h14v2h-14ZM314,188v-2h2v2h-2ZM314,180v-2h2v2h-2ZM314,76v-2h2v2h-2ZM314,36v-2h2v2h-2ZM314,32v-2h2v2h-2ZM316,306v-2h2v2h-2ZM316,302v-2h2v2h-2ZM316,298v-2h2v2h-2ZM316,294v-2h2v2h-2ZM316,194v-2h2v2h-2ZM316,190v-2h2v2h-2ZM316,186v-2h2v2h-2ZM316,182v-2h2v2h-2ZM316,178v-2h2v2h-2ZM316,174v-2h2v2h-2ZM316,170v-2h2v2h-2ZM316,166v-2h2v2h-2ZM316,78v-2h2v2h-2ZM316,54v-2h2v2h-2ZM316,50v-2h2v2h-2ZM316,46v-2h2v2h-2ZM316,42v-2h2v2h-2ZM316,38v-2h2v2h-2ZM316,34v-2h2v2h-2ZM318,196v-2h2v2h-2ZM318,188v-2h4v2h-4ZM318,184v-2h2v2h-2ZM318,76v-2h2v2h-2ZM318,52v-2h2v2h-2ZM318,48v-2h6v2h-6ZM318,44v-2h6v2h-6ZM318,40v-2h6v2h-6ZM318,36v-2h2v2h-2ZM320,306v-2h2v2h-2ZM320,302v-2h2v2h-2ZM320,298v-2h2v2h-2ZM320,294v-2h2v2h-2ZM320,198v-2h2v2h-2ZM320,194v-2h2v2h-2ZM320,190v-2h2v2h-2ZM320,186v-2h2v2h-2ZM320,182v-2h2v2h-2ZM320,178v-2h2v2h-2ZM320,174v-2h2v2h-2ZM320,170v-2h2v2h-2ZM320,78v-2h2v2h-2ZM320,50v-2h2v2h-2ZM320,46v-2h2v2h-2ZM320,42v-2h2v2h-2ZM320,38v-2h2v2h-2ZM320,34v-2h2v2h-2ZM320,30v-2h2v2h-2ZM322,196v-2h10v2h-10ZM322,184v-2h2v2h-2ZM322,176v-2h2v2h-2ZM322,76v-2h2v2h-2ZM322,36v-2h2v2h-2ZM322,32v-2h2v2h-2ZM322,28v-2h2v2h-2ZM324,306v-2h2v2h-2ZM324,302v-2h2v2h-2ZM324,298v-2h2v2h-2ZM324,294v-2h2v2h-2ZM324,198v-2h2v2h-2ZM324,194v-2h2v2h-2ZM324,190v-2h2v2h-2ZM324,186v-2h2v2h-2ZM324,182v-2h2v2h-2ZM324,178v-2h2v2h-2ZM324,174v-2h2v2h-2ZM324,78v-2h2v2h-2ZM324,46v-2h2v2h-2ZM324,42v-2h2v2h-2ZM324,38v-2h2v2h-2ZM324,34v-2h2v2h-2ZM324,30v-2h2v2h-2ZM326,296v-2h2v2h-2ZM326,200v-2h2v2h-2ZM326,188v-2h2v2h-2ZM326,184v-2h2v2h-2ZM326,176v-2h2v2h-2ZM326,76v-2h2v2h-2ZM326,44v-2h2v2h-2ZM326,40v-2h2v2h-2ZM326,36v-2h2v2h-2ZM326,32v-2h2v2h-2ZM328,302v-2h2v2h-2ZM328,298v-2h2v2h-2ZM328,294v-2h2v2h-2ZM328,198v-2h2v2h-2ZM328,194v-2h2v2h-2ZM328,190v-2h2v2h-2ZM328,186v-2h2v2h-2ZM328,182v-2h2v2h-2ZM328,178v-2h2v2h-2ZM328,78v-2h2v2h-2ZM328,46v-2h2v2h-2ZM328,42v-2h2v2h-2ZM328,38v-2h2v2h-2ZM328,34v-2h2v2h-2ZM328,30v-2h2v2h-2ZM328,26v-2h2v2h-2ZM330,296v-2h20v2h-20ZM330,200v-2h6v2h-6ZM330,192v-2h2v2h-2ZM330,76v-2h2v2h-2ZM330,44v-2h2v2h-2ZM330,40v-2h2v2h-2ZM330,36v-2h6v2h-6ZM330,32v-2h2v2h-2ZM330,28v-2h2v2h-2ZM332,302v-2h2v2h-2ZM332,298v-2h2v2h-2ZM332,294v-2h2v2h-2ZM332,290v-2h2v2h-2ZM332,202v-2h2v2h-2ZM332,198v-2h2v2h-2ZM332,194v-2h2v2h-2ZM332,190v-2h2v2h-2ZM332,186v-2h2v2h-2ZM332,182v-2h2v2h-2ZM332,78v-2h2v2h-2ZM332,42v-2h2v2h-2ZM332,38v-2h2v2h-2ZM332,34v-2h2v2h-2ZM332,30v-2h2v2h-2ZM332,26v-2h2v2h-2ZM334,292v-2h2v2h-2ZM334,288v-2h2v2h-2ZM334,196v-2h2v2h-2ZM334,192v-2h2v2h-2ZM334,80v-2h2v2h-2ZM334,40v-2h2v2h-2ZM334,32v-2h2v2h-2ZM334,28v-2h2v2h-2ZM336,302v-2h2v2h-2ZM336,298v-2h2v2h-2ZM336,294v-2h2v2h-2ZM336,290v-2h2v2h-2ZM336,202v-2h2v2h-2ZM336,198v-2h2v2h-2ZM336,194v-2h2v2h-2ZM336,190v-2h2v2h-2ZM336,186v-2h2v2h-2ZM336,78v-2h2v2h-2ZM336,38v-2h2v2h-2ZM336,34v-2h2v2h-2ZM336,30v-2h2v2h-2ZM336,26v-2h2v2h-2ZM336,22v-2h2v2h-2ZM336,18v-2h2v2h-2ZM338,292v-2h2v2h-2ZM338,288v-2h2v2h-2ZM338,204v-2h2v2h-2ZM338,200v-2h2v2h-2ZM338,196v-2h2v2h-2ZM338,80v-2h2v2h-2ZM338,36v-2h2v2h-2ZM338,32v-2h10v2h-10ZM338,28v-2h6v2h-6ZM338,24v-2h2v2h-2ZM338,16v-2h2v2h-2ZM340,298v-2h2v2h-2ZM340,294v-2h2v2h-2ZM340,290v-2h2v2h-2ZM340,202v-2h2v2h-2ZM340,198v-2h2v2h-2ZM340,194v-2h2v2h-2ZM340,190v-2h2v2h-2ZM340,186v-2h2v2h-2ZM340,82v-2h2v2h-2ZM340,78v-2h2v2h-2ZM340,38v-2h2v2h-2ZM340,34v-2h2v2h-2ZM340,30v-2h2v2h-2ZM340,26v-2h2v2h-2ZM340,22v-2h2v2h-2ZM340,18v-2h2v2h-2ZM340,14v-2h2v2h-2ZM342,292v-2h30v2h-30ZM342,204v-2h22v2h-22ZM342,200v-2h2v2h-2ZM342,196v-2h2v2h-2ZM342,80v-2h2v2h-2ZM342,36v-2h2v2h-2ZM342,24v-2h2v2h-2ZM342,20v-2h2v2h-2ZM344,298v-2h2v2h-2ZM344,294v-2h2v2h-2ZM344,290v-2h2v2h-2ZM344,286v-2h2v2h-2ZM344,206v-2h2v2h-2ZM344,202v-2h2v2h-2ZM344,198v-2h2v2h-2ZM344,194v-2h2v2h-2ZM344,190v-2h2v2h-2ZM344,82v-2h2v2h-2ZM344,78v-2h2v2h-2ZM344,38v-2h2v2h-2ZM344,34v-2h2v2h-2ZM344,30v-2h2v2h-2ZM344,26v-2h2v2h-2ZM344,22v-2h2v2h-2ZM344,18v-2h2v2h-2ZM346,200v-2h2v2h-2ZM346,80v-2h2v2h-2ZM346,28v-2h2v2h-2ZM346,24v-2h2v2h-2ZM346,20v-2h2v2h-2ZM348,294v-2h2v2h-2ZM348,290v-2h2v2h-2ZM348,286v-2h2v2h-2ZM348,206v-2h2v2h-2ZM348,202v-2h2v2h-2ZM348,198v-2h2v2h-2ZM348,194v-2h2v2h-2ZM348,190v-2h2v2h-2ZM348,82v-2h2v2h-2ZM348,78v-2h2v2h-2ZM348,38v-2h2v2h-2ZM348,30v-2h2v2h-2ZM348,26v-2h2v2h-2ZM348,22v-2h2v2h-2ZM348,18v-2h2v2h-2ZM350,284v-2h2v2h-2ZM350,200v-2h2v2h-2ZM350,84v-2h2v2h-2ZM350,80v-2h2v2h-2ZM350,28v-2h6v2h-6ZM350,24v-2h2v2h-2ZM350,16v-2h2v2h-2ZM352,294v-2h2v2h-2ZM352,290v-2h2v2h-2ZM352,286v-2h2v2h-2ZM352,206v-2h2v2h-2ZM352,202v-2h2v2h-2ZM352,198v-2h2v2h-2ZM352,194v-2h2v2h-2ZM352,190v-2h2v2h-2ZM352,82v-2h2v2h-2ZM352,30v-2h2v2h-2ZM352,26v-2h2v2h-2ZM352,22v-2h2v2h-2ZM352,18v-2h2v2h-2ZM352,14v-2h2v2h-2ZM354,288v-2h2v2h-2ZM354,284v-2h2v2h-2ZM354,200v-2h2v2h-2ZM354,84v-2h2v2h-2ZM354,80v-2h2v2h-2ZM354,24v-2h2v2h-2ZM354,20v-2h2v2h-2ZM354,16v-2h2v2h-2ZM356,294v-2h2v2h-2ZM356,290v-2h2v2h-2ZM356,286v-2h2v2h-2ZM356,206v-2h2v2h-2ZM356,202v-2h2v2h-2ZM356,198v-2h2v2h-2ZM356,194v-2h2v2h-2ZM356,86v-2h2v2h-2ZM356,82v-2h2v2h-2ZM356,26v-2h2v2h-2ZM356,22v-2h2v2h-2ZM356,18v-2h2v2h-2ZM356,14v-2h2v2h-2ZM358,288v-2h2v2h-2ZM358,284v-2h2v2h-2ZM358,200v-2h2v2h-2ZM358,192v-2h2v2h-2ZM358,84v-2h6v2h-6ZM358,24v-2h4v2h-4ZM358,20v-2h12v2h-12ZM360,290v-2h2v2h-2ZM360,286v-2h2v2h-2ZM360,206v-2h2v2h-2ZM360,202v-2h2v2h-2ZM360,198v-2h2v2h-2ZM360,194v-2h2v2h-2ZM360,86v-2h2v2h-2ZM360,82v-2h2v2h-2ZM360,22v-2h2v2h-2ZM360,18v-6h2v6h-2ZM360,10v-2h2v2h-2ZM362,288v-2h22v2h-22ZM362,200v-2h2v2h-2ZM362,16v-2h2v2h-2ZM362,12v-2h2v2h-2ZM364,290v-2h2v2h-2ZM364,286v-2h2v2h-2ZM364,202v-2h2v2h-2ZM364,198v-2h2v2h-2ZM364,194v-2h2v2h-2ZM364,190v-2h2v2h-2ZM364,86v-2h2v2h-2ZM364,22v-2h2v2h-2ZM364,18v-2h2v2h-2ZM364,14v-2h2v2h-2ZM364,10v-2h2v2h-2ZM366,284v-2h2v2h-2ZM366,200v-2h8v2h-8ZM366,196v-2h16v2h-16ZM366,88v-2h2v2h-2ZM366,84v-2h6v2h-6ZM366,16v-2h18v2h-18ZM366,12v-2h2v2h-2ZM366,8v-2h2v2h-2ZM368,290v-2h2v2h-2ZM368,286v-2h2v2h-2ZM368,282v-2h2v2h-2ZM368,202v-2h2v2h-2ZM368,198v-2h2v2h-2ZM368,194v-2h2v2h-2ZM368,190v-2h2v2h-2ZM368,90v-2h2v2h-2ZM368,86v-2h2v2h-2ZM368,18v-2h2v2h-2ZM368,14v-2h2v2h-2ZM368,10v-2h2v2h-2ZM368,6v-2h2v2h-2ZM370,88v-2h2v2h-2ZM370,12v-2h10v2h-10ZM370,8v-2h2v2h-2ZM372,290v-2h2v2h-2ZM372,286v-2h2v2h-2ZM372,202v-2h2v2h-2ZM372,198v-2h2v2h-2ZM372,194v-2h2v2h-2ZM372,190v-2h2v2h-2ZM372,90v-2h2v2h-2ZM372,86v-2h2v2h-2ZM372,18v-2h2v2h-2ZM372,14v-2h2v2h-2ZM372,10v-2h2v2h-2ZM372,6v-2h2v2h-2ZM374,292v-2h2v2h-2ZM374,192v-2h2v2h-2ZM374,88v-2h2v2h-2ZM374,8v-2h2v2h-2ZM376,290v-2h2v2h-2ZM376,286v-2h2v2h-2ZM376,198v-2h2v2h-2ZM376,194v-2h2v2h-2ZM376,190v-2h2v2h-2ZM376,90v-2h2v2h-2ZM376,86v-2h2v2h-2ZM376,18v-2h2v2h-2ZM376,14v-2h2v2h-2ZM376,10v-2h2v2h-2ZM376,6v-2h2v2h-2ZM378,292v-2h2v2h-2ZM378,192v-2h6v2h-6ZM378,92v-2h2v2h-2ZM378,88v-2h2v2h-2ZM378,4V2h2v2h-2ZM380,290v-2h2v2h-2ZM380,286v-2h2v2h-2ZM380,194v-2h2v2h-2ZM380,190v-2h2v2h-2ZM380,186v-2h2v2h-2ZM380,94v-2h2v2h-2ZM380,90v-2h2v2h-2ZM380,14v-2h2v2h-2ZM380,10v-2h2v2h-2ZM380,6v-2h2v2h-2ZM380,2V0h2v2h-2ZM382,292v-2h10v2h-10ZM382,284v-2h2v2h-2ZM382,188v-2h2v2h-2ZM382,92v-2h6v2h-6ZM382,88v-2h2v2h-2ZM382,12v-2h26v2h-26ZM382,4v-2h2v2h-2ZM384,290v-2h2v2h-2ZM384,286v-2h2v2h-2ZM384,194v-2h2v2h-2ZM384,190v-2h2v2h-2ZM384,186v-2h2v2h-2ZM384,182v-2h2v2h-2ZM384,94v-2h2v2h-2ZM384,90v-2h2v2h-2ZM384,14v-2h2v2h-2ZM384,10v-2h2v2h-2ZM384,6v-2h2v2h-2ZM384,2V0h2v2h-2ZM386,288v-2h2v2h-2ZM386,188v-2h6v2h-6ZM386,184v-2h2v2h-2ZM386,180v-2h2v2h-2ZM386,88v-2h2v2h-2ZM386,8v-2h2v2h-2ZM386,4v-2h2v2h-2ZM388,294v-2h2v2h-2ZM388,290v-2h2v2h-2ZM388,286v-2h2v2h-2ZM388,190v-2h2v2h-2ZM388,186v-2h2v2h-2ZM388,182v-2h2v2h-2ZM388,178v-2h2v2h-2ZM388,94v-2h2v2h-2ZM388,90v-2h2v2h-2ZM388,14v-2h2v2h-2ZM388,10v-2h2v2h-2ZM388,6v-2h2v2h-2ZM388,2V0h2v2h-2ZM390,184v-2h2v2h-2ZM390,180v-2h2v2h-2ZM390,176v-2h2v2h-2ZM390,92v-2h2v2h-2ZM390,88v-2h2v2h-2ZM390,8v-2h2v2h-2ZM390,4v-2h2v2h-2ZM392,294v-2h2v2h-2ZM392,290v-2h2v2h-2ZM392,186v-2h2v2h-2ZM392,182v-2h2v2h-2ZM392,178v-2h2v2h-2ZM392,94v-2h2v2h-2ZM392,90v-2h2v2h-2ZM392,14v-2h2v2h-2ZM392,10v-2h2v2h-2ZM392,6v-2h2v2h-2ZM392,2V0h2v2h-2ZM394,292v-2h2v2h-2ZM394,184v-2h2v2h-2ZM394,180v-2h6v2h-6ZM394,96v-2h2v2h-2ZM394,92v-2h2v2h-2ZM394,8v-2h2v2h-2ZM394,4v-2h2v2h-2ZM396,294v-2h2v2h-2ZM396,290v-2h2v2h-2ZM396,182v-2h2v2h-2ZM396,178v-2h2v2h-2ZM396,174v-2h2v2h-2ZM396,94v-2h2v2h-2ZM396,90v-2h2v2h-2ZM396,14v-2h2v2h-2ZM396,10v-2h2v2h-2ZM396,6v-2h2v2h-2ZM396,2V0h2v2h-2ZM398,292v-2h2v2h-2ZM398,176v-2h2v2h-2ZM398,172v-2h2v2h-2ZM398,96v-2h10v2h-10ZM398,92v-2h2v2h-2ZM398,8v-2h2v2h-2ZM398,4v-2h2v2h-2ZM400,294v-2h2v2h-2ZM400,178v-2h2v2h-2ZM400,174v-2h2v2h-2ZM400,170v-2h2v2h-2ZM400,94v-2h2v2h-2ZM400,90v-2h2v2h-2ZM400,14v-2h2v2h-2ZM400,10v-2h2v2h-2ZM400,6v-2h2v2h-2ZM400,2V0h2v2h-2ZM402,296v-2h2v2h-2ZM402,176v-2h2v2h-2ZM402,172v-2h2v2h-2ZM402,168v-2h2v2h-2ZM402,92v-2h2v2h-2ZM402,4v-2h2v2h-2ZM404,298v-2h2v2h-2ZM404,294v-2h2v2h-2ZM404,174v-2h2v2h-2ZM404,170v-2h2v2h-2ZM404,94v-2h2v2h-2ZM404,90v-2h2v2h-2ZM404,14v-2h2v2h-2ZM404,10v-2h2v2h-2ZM404,6v-2h2v2h-2ZM406,172v-2h4v2h-4ZM406,92v-2h2v2h-2ZM406,16v-2h2v2h-2ZM406,4v-2h2v2h-2ZM408,298v-2h2v2h-2ZM408,174v-2h2v2h-2ZM408,170v-2h2v2h-2ZM408,166v-2h2v2h-2ZM408,94v-2h2v2h-2ZM408,90v-2h2v2h-2ZM408,14v-2h2v2h-2ZM408,10v-2h2v2h-2ZM408,6v-2h2v2h-2ZM410,300v-2h2v2h-2ZM410,168v-2h2v2h-2ZM410,92v-2h14v2h-14ZM410,88v-2h2v2h-2ZM410,16v-2h2v2h-2ZM410,12v-2h6v2h-6ZM410,8v-2h2v2h-2ZM412,298v-2h2v2h-2ZM412,170v-2h2v2h-2ZM412,166v-2h2v2h-2ZM412,94v-2h2v2h-2ZM412,90v-2h2v2h-2ZM412,18v-2h2v2h-2ZM412,14v-2h2v2h-2ZM412,10v-2h2v2h-2ZM412,6v-2h2v2h-2ZM414,300v-2h2v2h-2ZM414,168v-2h2v2h-2ZM414,164v-2h2v2h-2ZM414,88v-2h2v2h-2ZM414,16v-2h2v2h-2ZM414,8v-2h2v2h-2ZM416,302v-2h2v2h-2ZM416,170v-2h2v2h-2ZM416,166v-2h2v2h-2ZM416,94v-2h2v2h-2ZM416,90v-2h2v2h-2ZM416,18v-2h2v2h-2ZM416,14v-2h2v2h-2ZM416,10v-2h2v2h-2ZM418,168v-2h2v2h-2ZM418,88v-2h2v2h-2ZM418,20v-2h2v2h-2ZM418,16v-2h2v2h-2ZM418,12v-2h2v2h-2ZM418,8v-2h2v2h-2ZM420,302v-2h2v2h-2ZM420,166v-2h2v2h-2ZM420,94v-2h2v2h-2ZM420,90v-2h2v2h-2ZM420,86v-2h2v2h-2ZM420,22v-2h2v2h-2ZM420,18v-2h2v2h-2ZM420,14v-2h2v2h-2ZM420,10v-2h2v2h-2ZM422,164v-2h2v2h-2ZM422,88v-2h2v2h-2ZM422,84v-2h2v2h-2ZM422,20v-2h2v2h-2ZM422,16v-2h2v2h-2ZM422,12v-2h2v2h-2ZM424,302v-2h2v2h-2ZM424,166v-2h2v2h-2ZM424,162v-2h2v2h-2ZM424,90v-2h2v2h-2ZM424,86v-2h2v2h-2ZM424,22v-2h2v2h-2ZM424,18v-2h2v2h-2ZM424,14v-2h2v2h-2ZM424,10v-2h2v2h-2ZM426,304v-2h2v2h-2ZM426,164v-2h2v2h-2ZM426,88v-2h4v2h-4ZM426,84v-2h2v2h-2ZM426,24v-2h2v2h-2ZM426,20v-2h2v2h-2ZM426,16v-2h2v2h-2ZM428,166v-2h2v2h-2ZM428,162v-2h2v2h-2ZM428,90v-2h2v2h-2ZM428,86v-2h2v2h-2ZM428,82v-2h2v2h-2ZM428,26v-2h2v2h-2ZM428,22v-2h2v2h-2ZM428,18v-2h2v2h-2ZM428,14v-2h2v2h-2ZM430,304v-2h2v2h-2ZM430,164v-2h2v2h-2ZM430,84v-2h6v2h-6ZM430,80v-2h2v2h-2ZM430,28v-2h2v2h-2ZM430,24v-2h2v2h-2ZM430,20v-2h2v2h-2ZM430,16v-2h2v2h-2ZM432,166v-2h2v2h-2ZM432,162v-2h2v2h-2ZM432,86v-2h2v2h-2ZM432,82v-2h2v2h-2ZM432,78v-2h2v2h-2ZM432,34v-2h2v2h-2ZM432,30v-2h2v2h-2ZM432,26v-2h2v2h-2ZM432,22v-2h2v2h-2ZM432,18v-2h2v2h-2ZM434,164v-2h2v2h-2ZM434,80v-2h6v2h-6ZM434,76v-2h2v2h-2ZM434,72v-2h2v2h-2ZM434,40v-2h2v2h-2ZM434,36v-2h2v2h-2ZM434,32v-2h2v2h-2ZM434,28v-2h2v2h-2ZM434,24v-2h2v2h-2ZM434,20v-2h2v2h-2ZM436,166v-2h2v2h-2ZM436,162v-2h2v2h-2ZM436,82v-2h2v2h-2ZM436,78v-2h2v2h-2ZM436,74v-2h2v2h-2ZM436,70v-2h2v2h-2ZM436,42v-2h2v2h-2ZM436,38v-2h2v2h-2ZM436,34v-2h2v2h-2ZM436,30v-2h2v2h-2ZM436,26v-2h2v2h-2ZM436,22v-2h2v2h-2ZM438,164v-2h2v2h-2ZM438,76v-2h4v2h-4ZM438,72v-2h2v2h-2ZM438,68v-2h2v2h-2ZM438,64v-2h2v2h-2ZM438,60v-2h2v2h-2ZM438,56v-2h2v2h-2ZM438,52v-2h2v2h-2ZM438,48v-2h2v2h-2ZM438,44v-2h2v2h-2ZM438,40v-2h2v2h-2ZM438,36v-2h2v2h-2ZM438,32v-2h2v2h-2ZM438,28v-2h2v2h-2ZM438,24v-2h2v2h-2ZM440,162v-2h2v2h-2ZM440,78v-2h2v2h-2ZM440,74v-2h2v2h-2ZM440,70v-2h2v2h-2ZM440,66v-2h2v2h-2ZM440,62v-2h2v2h-2ZM440,58v-2h2v2h-2ZM440,54v-2h2v2h-2ZM440,50v-2h2v2h-2ZM440,46v-2h2v2h-2ZM440,42v-2h2v2h-2ZM440,38v-2h2v2h-2ZM440,34v-2h2v2h-2ZM440,30v-2h2v2h-2ZM440,26v-2h2v2h-2ZM442,164v-2h2v2h-2ZM442,72v-2h2v2h-2ZM442,68v-2h2v2h-2ZM442,64v-2h4v2h-4ZM442,60v-2h6v2h-6ZM442,56v-2h2v2h-2ZM442,52v-2h2v2h-2ZM442,48v-2h2v2h-2ZM442,44v-2h2v2h-2ZM442,40v-2h2v2h-2ZM442,36v-2h2v2h-2ZM442,32v-2h2v2h-2ZM444,162v-2h2v2h-2ZM444,70v-2h2v2h-2ZM444,66v-2h2v2h-2ZM444,62v-2h2v2h-2ZM444,58v-2h2v2h-2ZM444,54v-2h2v2h-2ZM444,50v-2h2v2h-2ZM444,46v-2h2v2h-2ZM444,42v-2h2v2h-2ZM444,38v-2h2v2h-2ZM444,34v-2h2v2h-2ZM446,164v-2h2v2h-2ZM446,56v-2h2v2h-2ZM446,52v-2h2v2h-2ZM446,48v-2h2v2h-2ZM446,44v-2h2v2h-2ZM448,54v-2h2v2h-2ZM448,50v-2h2v2h-2ZM450,164v-2h2v2h-2ZM454,164v-2h2v2h-2ZM460,166v-2h2v2h-2ZM464,166v-2h2v2h-2Z"/>
</svg>