<svg width="500" height="479" viewBox="0 0 500 479" fill="none" xmlns="http://www.w3.org/2000/svg">
<path d="M75.5874 478.515C34.7874 478.515 0 452.317 0 401.639C0 350.961 35.4316 324.763 75.5874 324.763C109.436 324.763 134.051 341.14 141.743 367.145C143.204 372.087 139.749 376.907 134.706 377.967L119.733 381.114C114.358 382.244 109.233 378.646 106.925 373.662C101.167 361.227 89.4687 353.753 75.3727 353.753C52.6106 353.753 34.1432 370.287 34.1432 401.639C34.1432 432.99 52.3958 449.31 75.3727 449.31C89.2792 449.31 100.105 443.015 105.735 432.435C108.303 427.608 113.445 424.099 118.778 425.307L133.558 428.653C138.883 429.859 142.279 435.229 140.23 440.29C130.465 464.413 107.104 478.515 75.5874 478.515Z" fill="white"/>
<path d="M206.852 478.515C173.353 478.515 149.732 454.894 149.732 422.683C149.732 390.473 173.353 366.852 206.852 366.852C239.922 366.852 263.972 390.473 263.972 422.683C263.972 454.894 239.922 478.515 206.852 478.515ZM181.084 422.683C181.084 439.862 191.391 451.673 206.852 451.673C222.098 451.673 232.406 439.862 232.406 422.683C232.406 405.504 222.098 393.694 206.852 393.694C191.391 393.694 181.084 405.504 181.084 422.683Z" fill="white"/>
<path d="M319.745 478.515C287.964 478.515 268.852 456.612 268.852 422.683C268.852 388.755 287.964 366.852 319.316 366.852C332.415 366.852 342.507 371.576 348.52 378.877V334.577C348.52 329.157 352.914 324.763 358.334 324.763H370.273C375.692 324.763 380.086 329.157 380.086 334.577V466.983C380.086 472.403 375.692 476.797 370.273 476.797H358.334C352.914 476.797 348.52 472.403 348.52 466.983V466.06C342.937 473.791 331.985 478.515 319.745 478.515ZM299.56 422.683C299.56 440.077 309.867 451.673 324.899 451.673C340.36 451.673 350.453 440.077 350.453 422.683C350.453 405.289 340.36 393.694 324.899 393.694C309.867 393.694 299.56 405.289 299.56 422.683Z" fill="white"/>
<path d="M390.699 422.683C390.699 395.841 407.019 366.852 444.383 366.852C483.465 366.852 500 395.841 500 419.892C500 422.252 499.935 424.872 499.841 427.145C499.734 429.729 497.59 431.702 495.004 431.702H421.836C424.842 445.016 433.861 452.317 447.175 452.317C453.863 452.317 459.468 450.4 463.315 446.775C467.275 443.043 472.496 439.506 477.753 440.915L487.948 443.649C493.346 445.096 496.543 450.849 493.667 455.642C484.892 470.263 467.854 478.515 446.316 478.515C408.951 478.515 390.699 449.525 390.699 422.683ZM422.265 409.369H466.286C465.213 398.418 458.341 390.258 444.383 390.258C433.002 390.258 425.271 396.7 422.265 409.369Z" fill="white"/>
<g clip-path="url(#clip0_822_623)">
<path d="M482.64 225.225L479.381 224.832C469.662 223.596 460.617 219.101 453.763 212.023L321.235 74.7194V270.225H472.865C487.134 270.225 498.651 258.652 498.651 244.438V243.427C498.651 234.158 491.741 226.349 482.584 225.225H482.64ZM378.314 227.247C368.82 227.247 361.123 219.551 361.123 210.056C361.123 200.562 368.82 192.865 378.314 192.865C387.808 192.865 395.505 200.562 395.505 210.056C395.505 219.551 387.808 227.247 378.314 227.247Z" fill="#313131"/>
<path d="M212.022 73.8197V180.393L299.326 270.224H321.292V186.235L212.022 73.8197Z" fill="#F9AE2D"/>
<path d="M212.022 73.8201L147.921 7.865C131.798 -8.76421 103.652 2.69646 103.652 25.8425V68.8762L212.022 180.393V73.8201Z" fill="#F77133"/>
<path d="M321.292 186.236V74.7189L256.292 7.865C240.168 -8.76421 212.022 2.69646 212.022 25.8425V73.7639L321.292 186.18V186.236Z" fill="#FACA55"/>
<path d="M212.022 270.225H299.326L212.022 180.394V270.225Z" fill="#F0A82D"/>
<path d="M103.652 270.224H189.157L103.652 180.786V270.224Z" fill="#C64F2D"/>
<path d="M0 72.4709V244.437C0 249.774 1.62921 254.718 4.38202 258.875C6.23596 261.628 8.59551 263.988 11.3483 265.842C12.6966 266.797 14.2135 267.583 15.7303 268.201C18.8202 269.493 22.191 270.224 25.7865 270.224H103.596V180.786L0 72.4709Z" fill="#0B54E8"/>
<path d="M103.652 68.9325V180.786L189.157 270.225H212.022V180.393L103.652 68.9325Z" fill="#CD562E"/>
<path d="M103.652 68.9329L44.2697 7.86549C28.1461 -8.76372 0 2.69695 0 25.843V72.4722L103.652 180.787V68.9329Z" fill="#3271EC"/>
</g>
<defs>
<clipPath id="clip0_822_623">
<rect width="498.708" height="270.225" fill="white"/>
</clipPath>
</defs>
</svg>
